<?xml version="1.0" encoding="UTF-8"?>
<svg width="207.62pt" height="57.5pt" version="1.1" viewBox="0 0 207.62 57.5" xmlns="http://www.w3.org/2000/svg" xmlns:xlink="http://www.w3.org/1999/xlink">
 <style>
  @media (prefers-color-scheme: dark) {
   use:not([fill]) {
       fill: white;
   }
   path[stroke="#000"] {
    stroke: white;
   }
   path[color="#000000"] {
    fill: white;
   }
  }
 </style>
 <defs>
  <path id="a" d="m0 0.606v0.011002c0.012665 0.013326 0.02683 0.028656 0.042496 0.04599 0.015666 0.017334 0.030833 0.035166 0.045502 0.053497 0.014669 0.018341 0.026337 0.034846 0.035004 0.049515h0.089996c0.0080058-0.014669 0.019506-0.031174 0.0345-0.049515 0.015004-0.018331 0.03067-0.036331 0.046997-0.054001 0.016337-0.017659 0.030838-0.032822 0.043503-0.045486v-0.011002h-0.061996c-0.017334 0.010661-0.035334 0.023824-0.054001 0.03949-0.018667 0.015676-0.036997 0.032511-0.054993 0.050507-0.018005-0.017995-0.036011-0.034663-0.054016-0.050003-0.017995-0.01533-0.03566-0.028661-0.052994-0.039993h-0.059998z"/>
  <path id="c" d="m0.215-0.0099945c-0.048665 0-0.088999 0.012833-0.121 0.038498-0.031993 0.025665-0.047989 0.065832-0.047989 0.1205 0 0.053335 0.020996 0.094498 0.062988 0.12349 0.042002 0.029002 0.10667 0.04484 0.194 0.047516l0.091003 0.0029907v0.031998c0 0.044668-0.009669 0.075668-0.029007 0.093002-0.019328 0.017334-0.046656 0.026001-0.081985 0.026001-0.028005 0-0.054677-0.0041656-0.080017-0.012497-0.02533-0.0083313-0.048991-0.017832-0.070984-0.028503l-0.027008 0.065994c0.023336 0.012675 0.051 0.023509 0.082993 0.032501 0.032003 0.0090026 0.065338 0.013504 0.10001 0.013504 0.065338 0 0.11367-0.014333 0.145-0.042999 0.031331-0.028666 0.046997-0.074331 0.046997-0.13699v-0.36501h-0.063995l-0.016998 0.076004h-0.0039978c-0.023336-0.029338-0.047836-0.051005-0.073502-0.065002-0.025665-0.013997-0.061167-0.020996-0.10651-0.020996m0.020004 0.070999c0.045329 0 0.082993 0.012497 0.11299 0.037491 0.030009 0.025004 0.045013 0.063507 0.045013 0.11551v0.047989l-0.07901-0.0029907c-0.066661-0.0026652-0.11283-0.013331-0.1385-0.031998-0.025665-0.018667-0.038498-0.045003-0.038498-0.07901 0-0.029999 0.0091654-0.051997 0.027496-0.065994 0.018341-0.013997 0.041845-0.020996 0.070511-0.020996z"/>
  <path id="b" d="m0.10899 0v0.468h-0.093994v0.041l0.093994 0.029999v0.031006c0 0.069326 0.015335 0.11916 0.046005 0.14949 0.03067 0.030334 0.073339 0.045502 0.12801 0.045502 0.021332 0 0.040827-0.0018361 0.058487-0.0055084 0.01767-0.0036621 0.032837-0.0078278 0.045502-0.012497l-0.022995-0.069c-0.010661 0.0033366-0.022995 0.0066681-0.037003 0.0099945-0.013997 0.0033366-0.02833 0.0050049-0.042999 0.0050049-0.029327 0-0.051158-0.0098317-0.065491-0.029495-0.014333-0.019664-0.0215-0.050496-0.0215-0.092499v-0.035004h0.13499v-0.067993h-0.13499v-0.468h-0.088013z"/>
 </defs>
 <use transform="matrix(41.511 0 0 -41.511 8.8708 48.783)" data-text="Ì‚" xlink:href="#a"/>
 <use transform="matrix(41.511 0 0 -41.511 46.521 48.783)" data-text="Ì‚" xlink:href="#a"/>
 <use transform="matrix(41.511 0 0 -41.511 41.83 48.783)" data-text="ð–º" xlink:href="#c"/>
 <use transform="matrix(41.511 0 0 -41.511 82.471 40.108)" data-text="Ì‚" xlink:href="#a"/>
 <use transform="matrix(41.511 0 0 -41.511 78.942 48.783)" data-text="ð–¿" xlink:href="#b"/>
 <path d="m7.5415 26.653h102.99" fill="none" stroke="#0096ff" stroke-miterlimit="10" stroke-opacity=".67876"/>
 <path d="m7.7306 48.303h102.73" fill="none" stroke="#fc96ff" stroke-miterlimit="10" stroke-opacity=".67876"/>
 <text x="115.98" y="48.870003" fill="#fc96ff" font-family="'Noto Sans'" font-size="10px" stroke-width=".75" style="line-height:1.25" xml:space="preserve"><tspan x="115.98" y="48.870003" fill="#fc96ff" font-family="'Noto Sans'" font-size="10px" stroke-width=".75">baseline</tspan></text>
 <text x="115.98" y="26.92614" fill="#0098ff" font-family="'Noto Sans'" font-size="10px" stroke-width=".75" style="line-height:1.25" xml:space="preserve"><tspan x="115.98" y="26.92614" fill="#0098ff" font-family="'Noto Sans'" font-size="10px" stroke-width=".75">accentBaseHeight</tspan></text>
 <use transform="matrix(41.511 0 0 -41.511 82.471 48.783)" fill="#c80000" fill-opacity=".79842" data-text="Ì‚" xlink:href="#a"/>
</svg>
