<svg xmlns="http://www.w3.org/2000/svg" xmlns:xlink="http://www.w3.org/1999/xlink" version="1.1" width="333.96665pt" height="58.3625pt" viewBox="0 0 333.96665 58.3625">
 <style>
  @media (prefers-color-scheme: dark) {
   use:not([fill]) {
       fill: white;
   }
   path[stroke="#000"] {
    stroke: white;
   }
   path[stroke="#000000"] {
    stroke: white;
   }
   path[color="#000000"] {
    fill: white;
   }
  }
 </style>
<defs>
<path id="font_1_4788" d="M0 .6060028V.6170044C.012664795 .6303304 .026830038 .6456604 .042495729 .6629944 .05816142 .68032839 .07332865 .6981608 .08799744 .7164917 .10266622 .73483279 .11433411 .7513377 .1230011 .76600649H.21299744C.22100322 .7513377 .23250325 .73483279 .24749756 .7164917 .26250205 .6981608 .27816773 .6801605 .29449464 .66249087 .3108317 .64483138 .32533265 .6296692 .33799745 .6170044V.6060028H.27600099C.258667 .61666366 .2406667 .62982687 .22200012 .64549258 .20333354 .6611684 .18500264 .67800399 .16700745 .69599917 .14900208 .67800399 .1309967 .66133627 .11299133 .6459961 .09499613 .6306661 .07733154 .617335 .05999756 .6060028H0Z"/>
<path id="font_1_1031" d="M.19700623-.009994507C.14900208-.009994507 .11150106 .0035044354 .084503177 .03050232 .05750529 .057500204 .044006349 .09033203 .044006349 .1289978 .044006349 .17366536 .057337446 .20966594 .083999637 .23699951 .11066183 .2643331 .14615886 .28466288 .19049073 .2979889 .23483277 .31132508 .28367106 .31866456 .33700563 .32000733L.42900086 .32299806 .43600465 .35499574C.43733726 .3603363 .43833415 .3663381 .43899537 .3730011 .43966676 .3796641 .44000245 .3886617 .44000245 .3999939 .44000245 .42133586 .43200175 .43900553 .41600038 .45300294 .399999 .46700035 .3746643 .47399903 .33999635 .47399903 .32333375 .47399903 .3001658 .47183229 .27049256 .46749879 .24082947 .46316529 .20700073 .45166526 .16900635 .43299867L.1499939 .49499513C.17866008 .5123291 .210495 .5249939 .24549866 .5329895 .28050233 .5409953 .31366984 .54499819 .34500123 .54499819 .3876648 .54499819 .42216493 .5384979 .4485016 .52549746 .47483827 .51249697 .49417115 .49499513 .50650027 .47299195 .51882937 .45099894 .5249939 .42666627 .5249939 .3999939 .5249939 .3853353 .5243276 .37250266 .522995 .36149598 .5216624 .35049949 .5196635 .3393351 .5169983 .32800294L.44599916 0H.38200379L.3809967 .07600403H.3769989C.34766136 .046666463 .31932578 .024998984 .2919922 .011001587 .2646688-.0029958089 .23300679-.009994507 .19700623-.009994507M.21400452 .06100464C.2446645 .06100464 .27349345 .06916809 .30049134 .085494998 .3274994 .10183207 .35066734 .12283325 .36999513 .14849854 .3893331 .17416382 .40200297 .20099895 .40800477 .2290039L.4149933 .2619934 .3350067 .2590027C.29767356 .25767008 .26383973 .2530009 .23350525 .24499512 .20317078 .23699951 .1791687 .22433472 .16149903 .20700073 .14382935 .18966675 .1349945 .16600037 .1349945 .13600159 .1349945 .11399841 .14249166 .09599813 .15748596 .08200073 .17249044 .068003337 .19132996 .06100464 .21400452 .06100464Z"/>
<path id="font_1_3840" d="M.25 .035995485V.2420044H.050994874V.31300355H.25V.5200043H.32200624V.31300355H.5209961V.2420044H.32200624V.035995485H.25Z"/>
<path id="font_1_1040" d="M.027999878 0 .14199829 .5359955H.22999573L.115997318 0H.027999878Z"/>
<path id="font_1_1042" d="M.08200073-.2400055C.057332357-.2400055 .03666687-.2366689 .020004273-.22999573V-.15600586C.027999878-.15867107 .03699748-.16116841 .04699707-.16349793 .056996664-.1658376 .06733195-.16700745 .07800293-.16700745 .11867269-.16700745 .14600627-.13433838 .16000366-.069000247L.28799439 .5359955H.375L.24499512-.07699585C.2343343-.12699382 .21683757-.16666158 .19250489-.19599915 .1681722-.22533672 .13133748-.2400055 .08200073-.2400055Z"/>
<path id="font_1_3844" d="M.050994874 .34199525V.41299439H.5209961V.34199525H.050994874M.050994874 .14300537V.21400452H.5209961V.14300537H.050994874Z"/>
<path id="font_1_1655" d="M.19200135-.009994507C.1426646-.009994507 .10416158 .0030008953 .07649231 .0289917 .04883321 .054992677 .035003663 .09199524 .035003663 .13999939 .035003663 .19933574 .057169599 .2440033 .101501468 .27400209 .14583333 .30400086 .21366374 .31966654 .30499269 .32099916V.49499513H.29600526C.2606659 .49499513 .22966004 .49066163 .20298767 .48199464 .17632549 .47332765 .15032959 .46266175 .125 .44999696L.10499573 .49899293C.16232808 .5303345 .22233074 .54600527 .28500367 .54600527 .41366578 .54600527 .47799684 .4916687 .47799684 .3829956V0H.30499269V.041000368C.28232829 .007003784 .2446645-.009994507 .19200135-.009994507M.3580017 .052993776H.42500306V.3829956C.42500306 .40966798 .4191691 .43200175 .40750123 .44999696 .39583335 .46800233 .3793335 .48000083 .3580017 .48599244V.052993776M.19200135 .042999269C.22533672 .042999269 .25250245 .053329469 .27349855 .07398987 .29449464 .09466044 .30499269 .12299601 .30499269 .15899658V.26800538C.22766114 .26733399 .17232768 .256663 .13899231 .23599243 .105667117 .21533203 .08900452 .18333435 .08900452 .13999939 .08900452 .11000061 .09833781 .08633423 .117004398 .069000247 .13567098 .05166626 .16066997 .042999269 .19200135 .042999269Z"/>
<path id="font_1_1664" d="M.07499695 0V.5359955H.2480011V0H.07499695M.12800598 .052993776H.19500733V.4830017H.12800598V.052993776Z"/>
<path id="font_1_1666" d="M.09199524-.2400055C.061335248-.2400055 .037338258-.2373352 .020004273-.23199463V-.17900086C.031336469-.18166606 .042836507-.18366497 .054504396-.18499756 .06617228-.18633016 .07833862-.18699646 .09100342-.18699646 .094329837-.18699646 .097325649-.18699646 .099990848-.18699646 .10266622-.18699646 .10533651-.18666585 .10800171-.18600464V.5359955H.28100587V-.054000856C.28100587-.111333217 .26517234-.15666707 .23350525-.19000244 .20183818-.22333782 .15466817-.2400055 .09199524-.2400055M.16099549-.17599488C.18433126-.16866048 .20132955-.1526591 .21199036-.12799073 .22266133-.10333252 .22799683-.075668338 .22799683-.04499817V.4830017H.16099549V-.17599488Z"/>
</defs>
<use data-text="&#x0302;" xlink:href="#font_1_4788" transform="matrix(41.510999,0,0,-41.510999,16.479166,40.095834)"/>
<use data-text="&#x1d44e;" xlink:href="#font_1_1031" transform="matrix(41.510999,0,0,-41.510999,8.301498,40.095834)"/>
<use data-text="+" xlink:href="#font_1_3840" transform="matrix(41.510999,0,0,-41.510999,41.09519,40.095834)"/>
<use data-text="&#x0302;" xlink:href="#font_1_4788" transform="matrix(41.510999,0,0,-41.510999,76.21349,40.095834)"/>
<use data-text="&#x1d6a4;" xlink:href="#font_1_1040" transform="matrix(41.510999,0,0,-41.510999,74.09643,40.095834)"/>
<use data-text="+" xlink:href="#font_1_3840" transform="matrix(41.510999,0,0,-41.510999,93.980197,40.095834)"/>
<use data-text="&#x0302;" xlink:href="#font_1_4788" transform="matrix(41.510999,0,0,-41.510999,135.1591,40.095834)"/>
<use data-text="&#x1d6a5;" xlink:href="#font_1_1042" transform="matrix(41.510999,0,0,-41.510999,126.98144,40.095834)"/>
<use data-text="=" xlink:href="#font_1_3844" transform="matrix(41.510999,0,0,-41.510999,155.25043,40.095834)"/>
<use data-text="&#x0302;" xlink:href="#font_1_4788" transform="matrix(41.510999,0,0,-41.510999,196.2633,40.095834)"/>
<use data-text="&#x1d552;" xlink:href="#font_1_1655" transform="matrix(41.510999,0,0,-41.510999,190.5763,40.095834)"/>
<use data-text="+" xlink:href="#font_1_3840" transform="matrix(41.510999,0,0,-41.510999,222.2907,40.095834)"/>
<use data-text="&#x0302;" xlink:href="#font_1_4788" transform="matrix(41.510999,0,0,-41.510999,255.00138,40.095834)"/>
<use data-text="&#x1d55a;" xlink:href="#font_1_1664" transform="matrix(41.510999,0,0,-41.510999,255.25045,40.095834)"/>
<use data-text="+" xlink:href="#font_1_3840" transform="matrix(41.510999,0,0,-41.510999,277.91548,40.095834)"/>
<use data-text="&#x0302;" xlink:href="#font_1_4788" transform="matrix(41.510999,0,0,-41.510999,311.2488,40.095834)"/>
<use data-text="&#x1d55b;" xlink:href="#font_1_1666" transform="matrix(41.510999,0,0,-41.510999,310.9167,40.095834)"/>
</svg>
