<?xml version="1.0" encoding="UTF-8"?>
<svg width="347.4pt" height="121.84pt" version="1.1" viewBox="0 0 347.4 121.84" xmlns="http://www.w3.org/2000/svg" xmlns:xlink="http://www.w3.org/1999/xlink">
 <style>
  @media (prefers-color-scheme: dark) {
   use:not([fill]) {
       fill: white;
   }
   path[stroke="#000"] {
    stroke: white;
   }
   path[color="#000000"] {
    fill: white;
   }
  }
 </style>
 <defs>
  <path id="e" d="m0.367-0.761c-0.074666 0.095998-0.13617 0.2015-0.18451 0.3165-0.04833 0.115-0.084162 0.23617-0.1075 0.36351-0.023336 0.12733-0.035004 0.25733-0.035004 0.39 0 0.12933 0.011668 0.256 0.035004 0.37999 0.023336 0.124 0.059001 0.2425 0.10699 0.3555 0.048004 0.11301 0.10934 0.21751 0.18401 0.31351h0.096008c-0.070669-0.099335-0.12984-0.206-0.17751-0.32001-0.047668-0.11399-0.083338-0.23233-0.10701-0.355-0.023661-0.12267-0.035492-0.247-0.035492-0.373 0-0.128 0.011998-0.2545 0.035995-0.3795 0.024007-0.125 0.05984-0.24583 0.1075-0.36249 0.047668-0.11667 0.10617-0.22634 0.17551-0.32901h-0.093994z"/>
  <path id="b" d="m0 0 0.388 0.714h0.093994l0.088013-0.714h-0.088013l-0.026993 0.222h-0.241l-0.116-0.222h-0.098007m0.257 0.302h0.189l-0.016006 0.14999c-0.0026652 0.02534-0.0051626 0.05334-0.0074921 0.084-0.0023295 0.03067-0.0038299 0.057673-0.0045013 0.081009h-0.003006c-0.010661-0.02534-0.022995-0.052511-0.037003-0.081512-0.013997-0.028992-0.028661-0.058156-0.043991-0.087494l-0.076996-0.146z"/>
  <path id="c" d="m0.041 0 0.151 0.714h0.185c0.065999 0 0.11783-0.013 0.1555-0.039001 0.037669-0.026001 0.056503-0.067668 0.056503-0.125 0-0.048665-0.014669-0.088165-0.044006-0.1185-0.029327-0.030334-0.068329-0.050171-0.117-0.059509v-0.0049896c0.032674-0.008667 0.060008-0.025004 0.082001-0.049011 0.022003-0.023997 0.033005-0.055995 0.033005-0.095993 0-0.048665-0.011836-0.089498-0.035507-0.1225-0.023661-0.033-0.055995-0.057836-0.097-0.074509-0.040995-0.016663-0.08816-0.024994-0.14149-0.024994h-0.228m0.17599 0.41h0.117c0.029999 0 0.057165 0.0046641 0.081497 0.013992 0.024333 0.0093384 0.043833 0.023504 0.058502 0.042496 0.014669 0.019002 0.022003 0.043172 0.022003 0.07251 0 0.031331-0.0099996 0.055496-0.029999 0.072495-0.019999 0.016998-0.053335 0.025497-0.10001 0.025497h-0.101l-0.048004-0.22699m-0.070999-0.334h0.12601c0.056661 0 0.10033 0.012665 0.131 0.037994 0.03067 0.02533 0.046005 0.06133 0.046005 0.108 0 0.032003-0.010335 0.059001-0.031006 0.080994-0.020671 0.022003-0.055669 0.033005-0.105 0.033005h-0.112l-0.055008-0.25999z"/>
  <path id="d" d="m0.031006-0.761c0.069997 0.10267 0.12866 0.21234 0.17599 0.32901 0.047333 0.11666 0.083166 0.23749 0.1075 0.36249 0.024333 0.125 0.036499 0.2515 0.036499 0.3795 0 0.126-0.011998 0.25033-0.035995 0.373-0.023997 0.12267-0.05983 0.241-0.1075 0.355-0.047668 0.114-0.10684 0.22067-0.17751 0.32001h0.096008c0.074666-0.095998 0.136-0.2005 0.18399-0.31351 0.048004-0.113 0.083669-0.2315 0.10699-0.3555 0.023336-0.12399 0.035004-0.25066 0.035004-0.37999 0-0.13267-0.011668-0.26267-0.035004-0.39-0.023326-0.12734-0.059158-0.24851-0.1075-0.36351-0.04833-0.115-0.10949-0.2205-0.18349-0.3165h-0.095001z"/>
  <path id="a" d="m0.054993 0v0.089996l0.19101 0.186c0.033335 0.032664 0.060501 0.060496 0.081497 0.083496 0.020996 0.023 0.037328 0.043335 0.048996 0.061005 0.011668 0.01767 0.019669 0.034668 0.024002 0.050995 0.0043335 0.016337 0.0065002 0.033839 0.0065002 0.052506 0 0.035329-0.010167 0.061829-0.030502 0.079498-0.020335 0.01767-0.047165 0.026505-0.08049 0.026505-0.033335 0-0.06367-0.0065002-0.091003-0.019501-0.027334-0.013-0.055333-0.030167-0.084-0.051498l-0.057999 0.075989c0.032664 0.027334 0.068161 0.049332 0.10649 0.065994 0.03834 0.016673 0.080841 0.025009 0.1275 0.025009 0.070669 0 0.12633-0.017334 0.16699-0.052002 0.04067-0.034668 0.061005-0.082331 0.061005-0.14299 0-0.036672-0.0073344-0.070511-0.022003-0.10152-0.014659-0.030996-0.036158-0.062159-0.064499-0.093491-0.02833-0.031331-0.063161-0.06633-0.10449-0.105l-0.13499-0.12801h0.32399v-0.103h-0.468z"/>
 </defs>
 <use transform="matrix(41.511 0 0 -41.511 8.3042 76.133)" data-text="(" xlink:href="#e"/>
 <use transform="matrix(41.511 0 0 -41.511 33.708 46.058)" data-text="ð´" xlink:href="#b"/>
 <path transform="matrix(4.1667 0 0 -4.1667 33.708 63.742)" d="m0 0h6.167" fill="none" stroke="#000" stroke-miterlimit="10" stroke-width=".707"/>
 <use transform="matrix(41.511 0 0 -41.511 34.1 103.22)" data-text="ðµ" xlink:href="#c"/>
 <use transform="matrix(41.511 0 0 -41.511 64.383 76.133)" data-text=")" xlink:href="#d"/>
 <use transform="matrix(24.907 0 0 -24.907 84.808 26.383)" data-text="ðŸ¤" xlink:href="#a"/>
 <use transform="matrix(24.907 0 0 -24.907 84.808 113.53)" data-text="ðŸ¤" xlink:href="#a"/>
 <use transform="matrix(41.511 0 0 -41.511 149.34 75.283)" data-text="ð´" xlink:href="#b"/>
 <use transform="matrix(24.907 0 0 -24.907 175.04 59.092)" data-text="ðŸ¤" xlink:href="#a"/>
 <use transform="matrix(24.907 0 0 -24.907 175.04 84)" data-text="ðŸ¤" xlink:href="#a"/>
 <use transform="matrix(41.511 0 0 -41.511 239.58 76.133)" data-text="(" xlink:href="#e"/>
 <use transform="matrix(41.511 0 0 -41.511 264.98 46.058)" data-text="ð´" xlink:href="#b"/>
 <path transform="matrix(4.1667 0 0 -4.1667 264.98 63.742)" d="m0 0h6.167" fill="none" stroke="#000" stroke-miterlimit="10" stroke-width=".707"/>
 <use transform="matrix(41.511 0 0 -41.511 265.37 103.22)" data-text="ðµ" xlink:href="#c"/>
 <use transform="matrix(41.511 0 0 -41.511 295.65 76.133)" data-text=")" xlink:href="#d"/>
 <use transform="matrix(24.907 0 0 -24.907 323 59.092)" data-text="ðŸ¤" xlink:href="#a"/>
 <use transform="matrix(24.907 0 0 -24.907 323 84)" data-text="ðŸ¤" xlink:href="#a"/>
 <path d="m87 58.694h258.13" fill="none" stroke="#0096ff" stroke-miterlimit="10" stroke-opacity=".68" stroke-width=".82917"/>
 <path d="m87 83.609h258.13" fill="none" stroke="#0096ff" stroke-miterlimit="10" stroke-opacity=".68" stroke-width=".82917"/>
</svg>
