<?xml version="1.0" encoding="UTF-8"?>
<svg width="181pt" height="123pt" version="1.1" viewBox="0 0 181 123" xmlns="http://www.w3.org/2000/svg" xmlns:xlink="http://www.w3.org/1999/xlink">
 <style>
  @media (prefers-color-scheme: dark) {
   use:not([fill]) {
       fill: white;
   }
   path[stroke="#000"] {
    stroke: white;
   }
   path[stroke="#000000"] {
    stroke: white;
   }
   path[color="#000000"] {
    fill: white;
   }
  }
 </style>
 <defs>
  <path id="g" d="m0.084-0.24001c-0.012665 0-0.024333 0.001002-0.035004 0.003006-0.010661 0.002004-0.020325 0.004339-0.028992 0.007004v0.07399c0.0093282-0.002665 0.018326-0.005163 0.026993-0.007492 0.008667-0.00234 0.018336-0.00351 0.029007-0.00351 0.023997 0 0.042658 0.009837 0.055984 0.02951 0.013336 0.019664 0.024007 0.047831 0.032013 0.084503l0.11 0.52199h-0.093002l0.007004 0.037002 0.099991 0.033005 0.011002 0.048004c0.010671 0.046 0.023839 0.081833 0.039505 0.1075s0.035166 0.043828 0.058502 0.054489c0.023336 0.010671 0.051336 0.016006 0.084 0.016006 0.016663 0 0.033829-0.001836 0.051498-0.005508 0.01767-0.003662 0.031835-0.008158 0.042496-0.013489l-0.022995-0.067001c-0.009338 0.003337-0.019506 0.0065-0.030502 0.009491-0.010997 0.003001-0.023163 0.004501-0.036499 0.004501-0.026001 0-0.046504-0.007334-0.061508-0.022003-0.014994-0.014659-0.027161-0.042653-0.036499-0.083984l-0.011993-0.05101h0.11501l-0.013-0.067001h-0.11501l-0.112-0.532c-0.011332-0.055328-0.029831-0.098658-0.055496-0.12999-0.025665-0.031342-0.0625-0.047012-0.1105-0.047012z"/>
  <path id="d" d="m0.215-0.158c-0.059998 0.063334-0.10417 0.13534-0.13251 0.216-0.02833 0.080668-0.042496 0.16434-0.042496 0.25101 0 0.087992 0.014165 0.17299 0.042496 0.25499 0.028341 0.082001 0.07251 0.15533 0.13251 0.22h0.083008c-0.056-0.067332-0.09817-0.14183-0.12651-0.2235-0.02833-0.081665-0.042496-0.16517-0.042496-0.2505 0-0.083995 0.014333-0.16616 0.042999-0.24651 0.028666-0.080332 0.070333-0.15416 0.125-0.2215z"/>
  <path id="e" d="m0 0 0.23199 0.276-0.116 0.25999h0.089004l0.082993-0.198 0.15701 0.198h0.10199l-0.22299-0.26399 0.123-0.272h-0.089005l-0.091003 0.20799-0.16499-0.20799z"/>
  <path id="c" d="m0.031006-0.158c0.055328 0.067332 0.097158 0.14116 0.12549 0.2215 0.028341 0.080343 0.042511 0.16251 0.042511 0.24651 0 0.085337-0.01417 0.16884-0.042511 0.2505-0.02833 0.081665-0.070496 0.15616-0.1265 0.2235h0.083008c0.059998-0.064667 0.10416-0.138 0.13249-0.22 0.02833-0.082001 0.042496-0.167 0.042496-0.25499 0-0.08667-0.014165-0.17034-0.042496-0.25101-0.02833-0.080668-0.072494-0.15267-0.13249-0.216z"/>
  <path id="b" d="m0.050995 0.342v0.070999h0.47v-0.070999h-0.47m0-0.19899v0.070999h0.47v-0.070999z"/>
  <path id="a" d="m0.17999-0.158v0.942h0.073013v-0.942z"/>
  <path id="f" d="m0.026993 0 0.162 0.75999h0.087997l-0.16199-0.75999z"/>
 </defs>
 <use transform="matrix(41.511 0 0 -41.511 8.3042 40.846)" data-text="ð‘“" xlink:href="#g"/>
 <use transform="matrix(41.511 0 0 -41.511 33.003 40.846)" data-text="(" xlink:href="#d"/>
 <use transform="matrix(41.511 0 0 -41.511 46.619 40.846)" data-text="ð‘¥" xlink:href="#e"/>
 <use transform="matrix(41.511 0 0 -41.511 70.156 40.846)" data-text=")" xlink:href="#c"/>
 <use transform="matrix(41.511 0 0 -41.511 95.27 40.846)" data-text="=" xlink:href="#b"/>
 <use transform="matrix(41.511 0 0 -41.511 130.55 40.846)" data-text="|" xlink:href="#a"/>
 <use transform="matrix(41.511 0 0 -41.511 148.53 40.846)" data-text="ð‘™" xlink:href="#f"/>
 <use transform="matrix(41.511 0 0 -41.511 160.86 40.846)" data-text="|" xlink:href="#a"/>
 <g transform="translate(-184.35 62.326)">
  <use transform="matrix(41.511 0 0 -41.511 192.65 40.846)" data-text="ð‘“" xlink:href="#g"/>
  <use transform="matrix(41.511 0 0 -41.511 211.33 40.846)" data-text="(" xlink:href="#d"/>
  <use transform="matrix(41.511 0 0 -41.511 224.95 40.846)" data-text="ð‘¥" xlink:href="#e"/>
  <use transform="matrix(41.511 0 0 -41.511 248.49 40.846)" data-text=")" xlink:href="#c"/>
  <use transform="matrix(41.511 0 0 -41.511 273.64 40.846)" data-text="=" xlink:href="#b"/>
  <use transform="matrix(41.511 0 0 -41.511 308.93 40.846)" data-text="|" xlink:href="#a"/>
  <use transform="matrix(41.511 0 0 -41.511 326.9 40.846)" data-text="ð‘™" xlink:href="#f"/>
  <use transform="matrix(41.511 0 0 -41.511 337.61 40.846)" data-text="|" xlink:href="#a"/>
 </g>
</svg>
