<?xml version="1.0" encoding="UTF-8"?>
<svg width="397pt" height="140pt" version="1.1" viewBox="0 0 397 140" xmlns="http://www.w3.org/2000/svg" xmlns:xlink="http://www.w3.org/1999/xlink">
 <style>
  @media (prefers-color-scheme: dark) {
   use:not([fill]) {
       fill: white;
   }
   path[stroke="#000"] {
    stroke: white;
   }
  }
 </style>
 <defs>
  <path id="f" d="m0.033997 0 0.11501 0.54401h0.10201l-0.01001-0.10001h0.003006c0.019999 0.029999 0.044332 0.055832 0.072998 0.077499 0.028666 0.021667 0.062668 0.032501 0.10201 0.032501 0.046 0 0.080831-0.013499 0.10449-0.040497 0.023671-0.026998 0.035507-0.063497 0.035507-0.1095 0-0.013336-0.001002-0.027674-0.003006-0.043014-0.002004-0.01533-0.004669-0.030329-0.007996-0.044998l-0.067001-0.31599h-0.131l0.069 0.325c0.002665 0.012004 0.004664 0.023005 0.005997 0.033005 0.001333 0.01 0.001999 0.018997 0.001999 0.026993 0 0.04067-0.019333 0.061005-0.057999 0.061005-0.033335 0-0.063838-0.019669-0.091507-0.059006-0.02767-0.039327-0.049169-0.092656-0.064499-0.15999l-0.048004-0.227z"/>
  <path id="d" d="m0.21001-0.325h0.89099v-0.106h-1.05v0.080994l0.5 0.623-0.48799 0.54901v0.082993h0.989v-0.10699h-0.82401l0.47-0.522z"/>
  <path id="k" d="m0.243 0.617c-0.018667 0-0.034332 0.004333-0.046997 0.013-0.012665 0.008667-0.018997 0.023-0.018997 0.042999 0 0.02533 0.007167 0.044993 0.0215 0.05899 0.014333 0.014008 0.033834 0.021011 0.058502 0.021011 0.018667 0 0.034164-0.004333 0.046494-0.013 0.012339-0.008667 0.018509-0.02267 0.018509-0.042007 0-0.024668-0.006836-0.044337-0.020508-0.059006-0.013662-0.014659-0.033162-0.021988-0.058502-0.021988m-0.20399-0.617 0.11501 0.543h0.12999l-0.116-0.543z"/>
  <path id="c" d="m0.24699 0.050995v0.18401h-0.179v0.085999h0.179v0.18401h0.085998v-0.18401h0.179v-0.085999h-0.179v-0.18401z"/>
  <path id="e" d="m0.28 0v0.46201c0 0.028666 6.6629e-4 0.054662 0.001999 0.077988 0.001333 0.023336 0.003001 0.046672 0.005005 0.070007-0.010671-0.01-0.022842-0.020833-0.036514-0.032501-0.013662-0.011668-0.027491-0.022502-0.041489-0.032501l-0.089996-0.065002-0.057999 0.082001 0.21599 0.15201h0.121v-0.714z"/>
  <path id="h" d="m0.213 0.625c-0.013997 0-0.025497 0.004166-0.0345 0.012497-0.009003 0.008331-0.013504 0.019831-0.013504 0.0345 0 0.017334 0.005168 0.032333 0.015503 0.044998 0.010335 0.012665 0.024836 0.018997 0.043503 0.018997 0.03067 0 0.046005-0.014999 0.046005-0.044998 0-0.02066-0.006002-0.036824-0.018005-0.048492-0.012004-0.011668-0.025004-0.017502-0.039002-0.017502m-0.185-0.625 0.114 0.536h0.087997l-0.114-0.536z"/>
  <path id="j" d="m0.33501-0.056c0.002665 0.010671 0.006165 0.024175 0.010498 0.040512 0.004333 0.016327 0.008998 0.033157 0.013992 0.050491 0.005005 0.017334 0.009171 0.032664 0.012497 0.04599h-0.003998c-0.018666-0.024658-0.040166-0.04599-0.064499-0.063995-0.024333-0.017995-0.054164-0.026993-0.089493-0.026993-0.02534 0-0.049179 0.0065002-0.071518 0.019501-0.022329 0.013-0.040492 0.033834-0.054489 0.0625-0.013997 0.028666-0.020996 0.065664-0.020996 0.11099 0 0.046 0.0059967 0.09083 0.01799 0.13449 0.012004 0.043671 0.02917 0.083338 0.051498 0.119 0.022339 0.035675 0.049342 0.064011 0.081009 0.085007 0.031667 0.020996 0.067169 0.031494 0.10651 0.031494 0.033325 0 0.060486-0.007665 0.081482-0.022995 0.021006-0.01533 0.038844-0.035665 0.053513-0.061005h0.003998l0.029007 0.074005h0.098999l-0.16701-0.783h-0.129l0.040008 0.18401m-0.064011 0.151c0.022664 0 0.043162 0.008667 0.061493 0.026001 0.018341 0.017334 0.034012 0.0395 0.047012 0.066498s0.023 0.055328 0.029999 0.084992c0.006999 0.029673 0.010498 0.057175 0.010498 0.082504 0 0.027334-0.0065 0.0495-0.019501 0.066498-0.013 0.017008-0.032166 0.025513-0.057495 0.025513-0.020671 0-0.039841-0.007502-0.05751-0.022507-0.01766-0.015004-0.03299-0.035009-0.04599-0.060013-0.013-0.024994-0.023-0.052826-0.029999-0.083496-0.006999-0.03066-0.010498-0.061656-0.010498-0.092987 0-0.062002 0.023997-0.093002 0.071991-0.093002z"/>
  <path id="i" d="m0.020004 0 0.37799 0.714h0.155l0.078003-0.714h-0.12799l-0.017014 0.186h-0.23399l-0.093002-0.186h-0.13899m0.287 0.298h0.17099l-0.013992 0.174c-0.001333 0.021332-0.002833 0.043498-0.004501 0.066498-0.001668 0.023-0.002502 0.045502-0.002502 0.067505h-0.001999c-0.007334-0.020671-0.016001-0.041509-0.026001-0.062515-0.01-0.020996-0.020666-0.043157-0.031998-0.066483z"/>
  <path id="g" d="m0 0 0.388 0.714h0.093994l0.088013-0.714h-0.088013l-0.026993 0.222h-0.241l-0.116-0.222h-0.098007m0.257 0.302h0.189l-0.016006 0.14999c-0.002665 0.02534-0.005163 0.05334-0.007492 0.084-0.002329 0.03067-0.00383 0.057673-0.004501 0.081009h-0.0030064c-0.010661-0.02534-0.022995-0.05251-0.037003-0.081512-0.013997-0.028992-0.028661-0.058156-0.043991-0.087494z"/>
  <marker id="b" overflow="visible" markerHeight="1" markerWidth="1" orient="auto" preserveAspectRatio="xMidYMid" viewBox="0 0 1 1">
   <g transform="scale(.6)">
    <path d="m0-40"/>
    <path d="m0 0 8 5v-10z" fill="context-stroke" fill-rule="evenodd"/>
    <path d="m0-8v48" fill="none" stroke="context-stroke" stroke-linecap="square"/>
   </g>
  </marker>
  <marker id="a" overflow="visible" markerHeight="1" markerWidth="1" orient="auto" preserveAspectRatio="xMidYMid" viewBox="0 0 1 1">
   <g transform="scale(.6)">
    <path d="m0-40"/>
    <path d="m0 0-8 5v-10z" fill="context-stroke" fill-rule="evenodd"/>
    <path d="m0-8v48" fill="none" stroke="context-stroke" stroke-linecap="square"/>
   </g>
  </marker>
 </defs>
 <use transform="matrix(24.907 0 0 -24.907 30.329 31.1)" data-text="ð˜¯" xlink:href="#f"/>
 <use transform="matrix(41.511 0 0 -41.511 14.304 78.796)" data-text="âˆ‘" xlink:href="#d"/>
 <use transform="matrix(24.907 0 0 -24.907 19.283 122.84)" data-text="ð˜ª" xlink:href="#k"/>
 <use transform="matrix(24.907 0 0 -24.907 28.25 122.84)" data-text="+" xlink:href="#c"/>
 <use transform="matrix(24.907 0 0 -24.907 42.696 122.84)" data-text="ðŸ£" xlink:href="#e"/>
 <use transform="matrix(41.511 0 0 -41.511 69.042 80.5)" data-text="ð‘–" xlink:href="#h"/>
 <use transform="matrix(24.907 0 0 -24.907 240.11 31.1)" data-text="ð˜¯" xlink:href="#f"/>
 <use transform="matrix(24.907 0 0 -24.907 255.88 31.1)" data-text="+" xlink:href="#c"/>
 <use transform="matrix(24.907 0 0 -24.907 270.32 31.1)" data-text="ð˜²" xlink:href="#j"/>
 <use transform="matrix(41.511 0 0 -41.511 239.18 78.796)" data-text="âˆ‘" xlink:href="#d"/>
 <use transform="matrix(24.907 0 0 -24.907 239.93 122.84)" data-text="ð˜ˆ" xlink:href="#i"/>
 <use transform="matrix(24.907 0 0 -24.907 257.36 122.84)" data-text="+" xlink:href="#c"/>
 <use transform="matrix(24.907 0 0 -24.907 271.81 122.84)" data-text="ðŸ£" xlink:href="#e"/>
 <use transform="matrix(41.511 0 0 -41.511 293.92 80.5)" data-text="ð´" xlink:href="#g"/>
 <text x="296.22586" y="40.105793" fill="#0098ff" font-family="'Noto Sans'" font-size="10px" stroke-width=".75" style="line-height:1.25" xml:space="preserve"><tspan x="296.22586" y="40.105793"><tspan x="296.22586" y="40.105793" fill="#0098ff" font-family="'Noto Sans'" font-size="10px" stroke-width=".75">upperLimitGapMin</tspan></tspan></text>
 <g fill="none" stroke="#0096ff" stroke-width=".5">
  <path d="m282.2 41.077v-3.8594" marker-end="url(#a)" marker-start="url(#b)"/>
  <path d="m245.43 31.239v9.8744" marker-end="url(#a)" marker-start="url(#b)"/>
  <path d="m238.77 96.831v25.835" marker-end="url(#a)" marker-start="url(#b)"/>
 </g>
 <text x="296.22586" y="103.10579" fill="#0098ff" font-family="'Noto Sans'" font-size="10px" stroke-width=".75" style="line-height:1.25" xml:space="preserve"><tspan x="296.22586" y="103.10579"><tspan x="296.22586" y="103.10579" fill="#0098ff" font-family="'Noto Sans'" font-size="10px" stroke-width=".75">lowerLimitGapMin</tspan></tspan></text>
 <path d="m13.5 30.685h277.63" fill="none" stroke="#fc96ff" stroke-miterlimit="10" stroke-opacity=".67843" stroke-width=".82917"/>
 <path d="m13.5 122.42h277.63" fill="none" stroke="#fc96ff" stroke-miterlimit="10" stroke-opacity=".67843" stroke-width=".82917"/>
 <text x="102.21587" y="113.60579" fill="#0098ff" font-family="'Noto Sans'" font-size="10px" stroke-width=".75" style="line-height:1.25" xml:space="preserve"><tspan x="102.21587" y="113.60579">lowerLimitBaselineDropMin<tspan x="102.21587" y="113.60579" fill="#0098ff" font-family="'Noto Sans'" font-size="10px" stroke-width=".75"/></tspan></text>
 <text x="104.22586" y="41.207512" fill="#0098ff" font-family="'Noto Sans'" font-size="10px" stroke-width=".75" style="line-height:1.25" xml:space="preserve"><tspan x="104.22586" y="41.207512">upperLimitBaselineRiseMin</tspan></text>
 <path d="m282.2 100.7v-3.8594" fill="none" marker-end="url(#a)" marker-start="url(#b)" stroke="#0096ff" stroke-width=".5"/>
</svg>
