<?xml version="1.0" encoding="UTF-8"?>
<svg width="490pt" height="138.37pt" version="1.1" viewBox="0 0 490 138.37" xmlns="http://www.w3.org/2000/svg" xmlns:xlink="http://www.w3.org/1999/xlink">
 <style>
  @media (prefers-color-scheme: dark) {
   use:not([fill]) {
       fill: white;
   }
   path[stroke="#000"] {
    stroke: white;
   }
  }
 </style>
 <defs>
  <path id="k" d="m0.397-0.882c-0.08134 0.10667-0.14834 0.22417-0.201 0.35251-0.052663 0.12833-0.091832 0.26333-0.11751 0.405-0.025665 0.14166-0.038498 0.28616-0.038498 0.4335 0 0.14399 0.012665 0.28465 0.037994 0.42198 0.02534 0.13734 0.064341 0.26868 0.117 0.39401 0.052673 0.12534 0.12001 0.24134 0.20201 0.34801h0.097992c-0.077332-0.11067-0.14217-0.22917-0.1945-0.35551-0.052327-0.12633-0.091492-0.2575-0.11749-0.39349-0.026001-0.136-0.039001-0.274-0.039001-0.414 0-0.142 0.013331-0.28266 0.039993-0.422 0.026672-0.13933 0.06601-0.27383 0.11801-0.4035 0.052002-0.12967 0.116-0.25184 0.192-0.3665z"/>
  <path id="s" d="m0.19701-0.0099945c-0.048004 0-0.085505 0.013499-0.1125 0.040497-0.026998 0.026998-0.040497 0.05983-0.040497 0.098495 0 0.044668 0.013331 0.080668 0.039993 0.108 0.026662 0.027334 0.062159 0.047663 0.10649 0.060989 0.044342 0.013336 0.09318 0.020676 0.14651 0.022018l0.091995 0.002991 0.007004 0.031998c0.001333 0.005341 0.002329 0.011342 0.002991 0.018005 6.7139e-4 0.006663 0.001007 0.015661 0.001007 0.026993 0 0.021342-0.008001 0.039012-0.024002 0.053009-0.016001 0.013997-0.041336 0.020996-0.076004 0.020996-0.016663 0-0.039831-0.002167-0.069504-0.0065-0.029663-0.004333-0.063492-0.015834-0.10149-0.0345l-0.019012 0.061996c0.028666 0.017334 0.060501 0.029999 0.095505 0.037994 0.035004 0.008006 0.068171 0.012009 0.099503 0.012009 0.042664 0 0.077164-0.0065 0.1035-0.019501 0.026337-0.013 0.04567-0.030502 0.057999-0.052506 0.012329-0.021993 0.018494-0.046326 0.018494-0.072998 0-0.014659-6.663e-4 -0.027491-0.001999-0.038498-0.001333-0.010996-0.003332-0.022161-0.005997-0.033493l-0.070999-0.328h-0.063995l-0.0010071 0.076004h-0.0039978c-0.029338-0.029338-0.057673-0.051005-0.085007-0.065002-0.027323-0.013997-0.058985-0.020996-0.094986-0.020996m0.016998 0.070999c0.03066 0 0.059489 0.0081635 0.086487 0.02449 0.027008 0.016337 0.050176 0.037338 0.069504 0.063004 0.019338 0.025665 0.032008 0.0525 0.03801 0.080505l0.006989 0.03299-0.079987-0.002991c-0.037333-0.001333-0.071167-0.006002-0.1015-0.014008-0.030334-0.007996-0.054337-0.02066-0.072006-0.037994-0.01767-0.017334-0.026504-0.041-0.026504-0.070999 0-0.022003 0.007497-0.040003 0.022492-0.054001 0.015004-0.013997 0.033844-0.020996 0.056518-0.020996z"/>
  <path id="g" d="m0.25 0.035995v0.20601h-0.19901v0.070999h0.19901v0.207h0.072006v-0.207h0.19899v-0.070999h-0.19899v-0.20601z"/>
  <path id="r" d="m0.269-0.0099945c-0.036001 0-0.06517 0.0091654-0.087509 0.027496-0.022329 0.018331-0.038823 0.039831-0.049484 0.064499h-0.0050049l-0.033005-0.082001h-0.065994l0.161 0.75999h0.087997l-0.037994-0.17999c-0.004669-0.022664-0.009837-0.04483-0.015503-0.066498-0.005666-0.021667-0.010498-0.039668-0.014496-0.054001-0.003998-0.014333-0.006332-0.022166-0.007004-0.023498h0.003998c0.024007 0.029327 0.050176 0.054825 0.078506 0.076492 0.02833 0.021667 0.061162 0.032501 0.098496 0.032501 0.044006 0 0.079508-0.015335 0.10651-0.046005 0.026998-0.03066 0.040497-0.075989 0.040497-0.13599 0-0.048676-0.006002-0.095347-0.018005-0.14001-0.011993-0.044657-0.029327-0.084488-0.052002-0.11949-0.022664-0.035004-0.049998-0.062673-0.082001-0.083008-0.031993-0.020325-0.068324-0.030487-0.10899-0.030487m-0.007004 0.072998c0.026672 0 0.051005 0.0084991 0.072998 0.025497 0.022003 0.016998 0.040838 0.039831 0.056503 0.068497 0.015666 0.028666 0.027664 0.061 0.035996 0.097 0.008341 0.036001 0.012512 0.072668 0.012512 0.11 0 0.072001-0.028336 0.108-0.085007 0.108-0.021993 0-0.04449-0.008169-0.06749-0.024506-0.023-0.016327-0.044169-0.038661-0.063507-0.067001-0.019328-0.02833-0.034826-0.060496-0.046494-0.096497s-0.017502-0.073664-0.017502-0.11299c0-0.032003 0.008331-0.058004 0.024994-0.078003 0.016673-0.019999 0.042338-0.029999 0.076996-0.029999z"/>
  <path id="q" d="m0.24699-0.0099945c-0.059326 0-0.10733 0.016663-0.144 0.049988-0.036662 0.033335-0.054993 0.083338-0.054993 0.15001 0 0.047994 0.0065002 0.093491 0.019501 0.13649 0.013 0.04301 0.031667 0.080846 0.056 0.11351 0.024333 0.032664 0.053833 0.058497 0.088501 0.077499 0.034668 0.019002 0.073334 0.028503 0.116 0.028503 0.023336 0 0.046666-0.002335 0.069992-0.007004 0.023336-0.004669 0.044337-0.011002 0.063004-0.018997l-0.024994-0.072998c-0.013336 0.005992-0.029175 0.011653-0.047516 0.016983-0.018331 0.005341-0.038162 0.008011-0.059494 0.008011-0.037994 0-0.071325-0.012833-0.099991-0.038498s-0.051-0.059835-0.067001-0.10251c-0.016001-0.042664-0.024002-0.08933-0.024002-0.14 0-0.04066 0.010498-0.072159 0.031494-0.094498 0.021006-0.022329 0.04984-0.033493 0.086502-0.033493 0.023336 0 0.045502 0.0033315 0.066498 0.0099945 0.021006 0.006663 0.04184 0.014328 0.0625 0.022995v-0.07399c-0.018667-0.0093384-0.0395-0.017003-0.0625-0.022995-0.023-0.0060018-0.048167-0.0090027-0.0755-0.0090027z"/>
  <path id="j" d="m0.031006-0.882c0.07666 0.11466 0.14082 0.23683 0.19249 0.3665 0.051666 0.12967 0.09083 0.26417 0.11749 0.4035 0.026672 0.13933 0.040008 0.28 0.040008 0.422 0 0.14-0.013 0.278-0.039002 0.414-0.026001 0.136-0.065002 0.26716-0.117 0.39349-0.051992 0.12634-0.11699 0.24485-0.19499 0.35551h0.098999c0.08134-0.10667 0.14834-0.22267 0.201-0.34801 0.052663-0.12534 0.09166-0.25667 0.11699-0.39401 0.02534-0.13733 0.03801-0.27799 0.03801-0.42198 0-0.14734-0.012833-0.29184-0.038498-0.4335-0.025665-0.14167-0.064835-0.27667-0.11751-0.405-0.052663-0.12834-0.11966-0.24584-0.20099-0.35251z"/>
  <path id="l" d="m0.054993 0v0.089996l0.19101 0.186c0.033335 0.032664 0.060501 0.060496 0.081497 0.083496s0.037328 0.043335 0.048996 0.061005c0.011668 0.01767 0.019669 0.034668 0.024002 0.050995 0.004333 0.016337 0.0065 0.033839 0.0065 0.052506 0 0.035329-0.010168 0.061829-0.030502 0.079498-0.020335 0.01767-0.047165 0.026504-0.08049 0.026504-0.033335 0-0.06367-0.0065-0.091003-0.019501-0.027333-0.013-0.055333-0.030167-0.084-0.051498l-0.057999 0.075989c0.032664 0.027334 0.068161 0.049332 0.10649 0.065994 0.03834 0.016673 0.080841 0.025009 0.1275 0.025009 0.070668 0 0.12633-0.017334 0.16699-0.052002 0.04067-0.034668 0.061005-0.082331 0.061005-0.14299 0-0.036672-0.0073344-0.070511-0.022003-0.10152-0.014659-0.030996-0.036158-0.062159-0.064499-0.093491-0.02833-0.031331-0.063161-0.06633-0.10449-0.105l-0.13499-0.12801h0.32399v-0.103z"/>
  <path id="f" d="m0.050995 0.242v0.070999h0.47v-0.070999z"/>
  <path id="i" d="m0.050995-0.79201 0.034012 0.07901c0.019328-0.006673 0.037989-0.012171 0.055984-0.016495 0.018005-0.004333 0.035009-0.0065 0.05101-0.0065 0.026662 0 0.051158 0.007502 0.073486 0.022507 0.022339 0.014994 0.042842 0.040827 0.061508 0.077499 0.018667 0.036662 0.03567 0.087657 0.05101 0.15298 0.01533 0.066671 0.028493 0.14317 0.03949 0.22951 0.011007 0.086334 0.021006 0.1785 0.029999 0.27649 0.009003 0.098002 0.018173 0.19734 0.027512 0.298 0.01 0.106 0.019496 0.20916 0.028488 0.30949 0.009003 0.10034 0.019338 0.19484 0.031006 0.28351 0.011668 0.088664 0.025502 0.16799 0.041504 0.23799 0.018667 0.080668 0.042333 0.1455 0.070999 0.1945 0.028666 0.049001 0.060832 0.084498 0.096497 0.10649 0.035665 0.022003 0.073166 0.033005 0.1125 0.033005 0.023336 0 0.04717-0.00333 0.071503-0.00999s0.048833-0.016327 0.073502-0.028992l-0.034012-0.07901c-0.019328 0.00733-0.037994 0.013-0.056 0.016998-0.017995 0.00401-0.034994 0.00601-0.050995 0.00601-0.026662 0-0.051163-0.0075-0.073502-0.022507-0.022329-0.015007-0.042826-0.040845-0.061493-0.077517-0.018667-0.036662-0.03567-0.087657-0.05101-0.15298-0.011993-0.050669-0.022659-0.10801-0.031998-0.17201-0.0093282-0.063995-0.017827-0.13199-0.025497-0.20399-0.0076701-0.071991-0.014837-0.14582-0.0215-0.2215-0.006663-0.075663-0.013662-0.15116-0.020996-0.2265-0.0093383-0.10067-0.018509-0.2-0.027512-0.298-0.0089925-0.097992-0.018992-0.19065-0.029999-0.27798-0.010996-0.087341-0.024496-0.16567-0.040497-0.235-0.018667-0.080668-0.042333-0.1455-0.070999-0.1945-0.028666-0.049001-0.060669-0.084498-0.096008-0.10649-0.035329-0.022003-0.072993-0.033005-0.11299-0.033005-0.023336 0-0.04717 0.003331-0.071503 0.009995-0.024333 0.006663-0.048833 0.016327-0.073502 0.028991z"/>
  <path id="b" d="m0.243 0.617c-0.018667 0-0.034332 0.004333-0.046997 0.013-0.012665 0.008667-0.018997 0.023-0.018997 0.042999 0 0.02533 0.007167 0.044993 0.0215 0.05899 0.014333 0.014008 0.033834 0.021011 0.058502 0.021011 0.018667 0 0.034164-0.004333 0.046494-0.013 0.012339-0.008667 0.018509-0.02267 0.018509-0.042007 0-0.024668-0.006836-0.044337-0.020508-0.059006-0.013662-0.014659-0.033162-0.021988-0.058502-0.021988m-0.20399-0.617 0.11501 0.543h0.12999l-0.116-0.543z"/>
  <path id="n" d="m0.382 0.617c-0.018667 0-0.034337 0.004333-0.047012 0.013-0.012665 0.008667-0.018997 0.023-0.018997 0.042999 0 0.02533 0.007167 0.044993 0.0215 0.05899 0.014333 0.014008 0.033834 0.021011 0.058502 0.021011 0.018667 0 0.034164-0.004333 0.046494-0.013 0.012339-0.008667 0.018509-0.02267 0.018509-0.042007 0-0.024668-0.006836-0.044337-0.020508-0.059006-0.013662-0.014659-0.033157-0.021988-0.058487-0.021988m-0.276-0.85701c-0.014669 0-0.029002 0.00117-0.042999 0.00351-0.013997 0.00233-0.025665 0.004827-0.035004 0.007492v0.10501c0.017995-0.006673 0.036662-0.01001 0.056-0.01001 0.019999 0 0.037333 0.007004 0.052002 0.021011 0.014669 0.013997 0.025335 0.036326 0.031998 0.066986l0.125 0.589h0.129l-0.129-0.608c-0.006663-0.033335-0.017329-0.063166-0.031998-0.089493-0.014669-0.026337-0.034505-0.04717-0.059509-0.0625-0.024994-0.01534-0.056824-0.02301-0.09549-0.023011z"/>
  <path id="c" d="m0.067993 0.32899v0.085007h0.444v-0.085007h-0.444m0-0.187v0.085998h0.444v-0.085998z"/>
  <path id="a" d="m0.28 0v0.46201c0 0.028666 6.6629e-4 0.054662 0.001999 0.077988 0.001333 0.023336 0.003001 0.046672 0.005005 0.070007-0.010671-0.01-0.022842-0.020833-0.036514-0.032501-0.013662-0.011668-0.027491-0.022502-0.041489-0.032501l-0.089996-0.065002-0.057999 0.082001 0.21599 0.15201h0.121v-0.714z"/>
  <path id="o" d="m0.358 0.625c-0.013336 0-0.024506 0.004166-0.033508 0.012497-0.008993 0.008331-0.013489 0.019831-0.013489 0.0345 0 0.017334 0.005163 0.032333 0.015488 0.044998 0.010335 0.012665 0.024836 0.018997 0.043503 0.018997 0.029999 0 0.044998-0.014999 0.044998-0.044998 0-0.02066-0.006002-0.036824-0.018005-0.048492-0.011994-0.011668-0.024989-0.017502-0.038986-0.017502m-0.276-0.86501c-0.024668 0-0.045334 0.003337-0.061996 0.01001v0.07399c0.0079956-0.002665 0.016993-0.005163 0.026993-0.007492 0.0099996-0.00234 0.020335-0.00351 0.031006-0.00351 0.04067 0 0.068003 0.032669 0.082001 0.098007l0.12799 0.605h0.087006l-0.13-0.61299c-0.010661-0.049998-0.028158-0.089666-0.05249-0.119-0.024333-0.029338-0.061167-0.044006-0.1105-0.044006z"/>
  <path id="e" d="m0.050995-0.037994v0.070999h0.47v-0.070999h-0.47m0 0.119v0.077988l0.377 0.158-0.377 0.17799v0.078003l0.47101-0.235v-0.050003z"/>
  <path id="m" d="m0.033997 0 0.11501 0.54401h0.10201l-0.01001-0.10001h0.003006c0.019999 0.029999 0.044332 0.055832 0.072998 0.077499 0.028666 0.021667 0.062668 0.032501 0.10201 0.032501 0.046 0 0.080831-0.013499 0.10449-0.040497 0.023671-0.026998 0.035507-0.063497 0.035507-0.1095 0-0.013336-0.001002-0.027674-0.003006-0.043014-0.002004-0.01533-0.004669-0.030329-0.007996-0.044998l-0.067001-0.31599h-0.131l0.069 0.325c0.002665 0.012004 0.004664 0.023005 0.005997 0.033005 0.001333 0.01 0.001999 0.018997 0.001999 0.026993 0 0.04067-0.019333 0.061005-0.057999 0.061005-0.033335 0-0.063838-0.019669-0.091507-0.059006-0.02767-0.039327-0.049169-0.092656-0.064499-0.15999l-0.048004-0.227z"/>
  <path id="h" d="m0.21001-0.325h0.89099v-0.106h-1.05v0.080994l0.5 0.623-0.48799 0.54901v0.082993h0.989v-0.10699h-0.82401l0.47-0.522z"/>
  <path id="d" d="m0.24699 0.050995v0.18401h-0.179v0.085999h0.179v0.18401h0.085998v-0.18401h0.179v-0.085999h-0.179v-0.18401z"/>
  <path id="p" d="m0.213 0.625c-0.013997 0-0.025497 0.004166-0.0345 0.012497-0.009003 0.008331-0.013504 0.019831-0.013504 0.0345 0 0.017334 0.005168 0.032333 0.015503 0.044998 0.010335 0.012665 0.024836 0.018997 0.043503 0.018997 0.03067 0 0.046005-0.014999 0.046005-0.044998 0-0.02066-0.006002-0.036824-0.018005-0.048492-0.012004-0.011668-0.025004-0.017502-0.039002-0.017502m-0.185-0.625 0.114 0.536h0.087997l-0.114-0.536z"/>
 </defs>
 <use transform="matrix(41.511 0 0 -41.511 8.3042 82.15)" data-text="(" xlink:href="#k"/>
 <use transform="matrix(41.511 0 0 -41.511 35.075 51.95)" data-text="ð˜¢" xlink:href="#s"/>
 <use transform="matrix(41.511 0 0 -41.511 67.869 51.95)" data-text="+" xlink:href="#g"/>
 <use transform="matrix(41.511 0 0 -41.511 100.83 51.95)" data-text="ð˜£" xlink:href="#r"/>
 <path d="m35.075 69.883h89.808" fill="none" stroke="#000" stroke-miterlimit="10" stroke-width="2.9471"/>
 <use transform="matrix(41.511 0 0 -41.511 69.996 114.64)" data-text="ð˜¤" xlink:href="#q"/>
 <use transform="matrix(41.511 0 0 -41.511 129.87 82.15)" data-text=")" xlink:href="#j"/>
 <use transform="matrix(24.907 0 0 -24.907 151.66 26.379)" data-text="ðŸ¤" xlink:href="#l"/>
 <use transform="matrix(41.511 0 0 -41.511 177.41 81.425)" data-text="âˆ’" xlink:href="#f"/>
 <use transform="matrix(41.511 0 0 -41.511 210.38 83.479)" data-text="âˆ«" xlink:href="#i"/>
 <use transform="matrix(24.907 0 0 -24.907 254.05 27.771)" data-text="ð˜ª" xlink:href="#b"/>
 <use transform="matrix(24.907 0 0 -24.907 233.29 121.46)" data-text="ð˜«" xlink:href="#n"/>
 <use transform="matrix(24.907 0 0 -24.907 245.7 121.46)" data-text="=" xlink:href="#c"/>
 <use transform="matrix(24.907 0 0 -24.907 260.14 121.46)" data-text="ðŸ£" xlink:href="#a"/>
 <use transform="matrix(41.511 0 0 -41.511 283.6 81.425)" data-text="ð˜«" xlink:href="#o"/>
 <use transform="matrix(41.511 0 0 -41.511 313.16 81.425)" data-text="â‰¥" xlink:href="#e"/>
 <use transform="matrix(24.907 0 0 -24.907 364.54 33.854)" data-text="ð˜¯" xlink:href="#m"/>
 <use transform="matrix(41.511 0 0 -41.511 348.51 79.725)" data-text="âˆ‘" xlink:href="#h"/>
 <use transform="matrix(24.907 0 0 -24.907 353.49 124.01)" data-text="ð˜ª" xlink:href="#b"/>
 <use transform="matrix(24.907 0 0 -24.907 362.46 124.01)" data-text="+" xlink:href="#d"/>
 <use transform="matrix(24.907 0 0 -24.907 376.9 124.01)" data-text="ðŸ£" xlink:href="#a"/>
 <use transform="matrix(41.511 0 0 -41.511 403.25 81.425)" data-text="ð˜ª" xlink:href="#p"/>
 <path d="m0.042014 69.883h425.16" fill="none" stroke="#0096ff" stroke-miterlimit="10" stroke-opacity=".67876"/>
 <path d="m0.042014 81.616h425.16" fill="none" stroke="#fc96ff" stroke-miterlimit="10" stroke-opacity=".67876"/>
 <text x="427.0127" y="85.082069" fill="#fc96ff" font-family="'Noto Sans'" font-size="12px" stroke-width=".75" style="line-height:1.25" xml:space="preserve"><tspan x="427.0127" y="85.082069" fill="#fc96ff" font-family="'Noto Sans'" font-size="12px" stroke-width=".75">baseline</tspan></text>
 <text x="427.0127" y="71.582069" fill="#0098ff" font-family="'Noto Sans'" font-size="12px" stroke-width=".75" style="line-height:1.25" xml:space="preserve"><tspan x="427.0127" y="71.582069" fill="#0098ff" font-family="'Noto Sans'" font-size="12px" stroke-width=".75">axisHeight</tspan></text>
</svg>
