<svg xmlns="http://www.w3.org/2000/svg" xmlns:xlink="http://www.w3.org/1999/xlink" version="1.1" width="317.36665pt" height="50.574998pt" viewBox="0 0 317.36665 50.574998">
 <style>
  @media (prefers-color-scheme: dark) {
   use:not([fill]) {
       fill: white;
   }
   path[stroke="#000"] {
    stroke: white;
   }
   path[color="#000000"] {
    fill: white;
   }
  }
 </style>
<defs>
<path id="font_1_772" d="M0 0 .3880005 .7140045H.48199464L.5700073 0H.48199464L.45500184 .22200012H.21400452L.0980072 0H0M.25700379 .30200196H.44599916L.42999269 .45199586C.42732749 .4773356 .4248301 .5053355 .4225006 .5359955 .4201711 .56666567 .41867066 .59366866 .41799928 .6170044H.4149933C.4043325 .5916646 .3919983 .56449386 .37799073 .53549197 .36399333 .50650027 .34932963 .4773356 .33399964 .44799806L.25700379 .30200196Z"/>
<path id="font_2_3181" d="M.06500244 .10600281 .27999879 .5359955H.42999269L.16200257 .10600281H.06500244Z"/>
<path id="font_2_3182" d="M.3580017 .10600281 .57299807 .5359955H.7230072L.45500184 .10600281H.3580017M.06500244 .10600281 .27999879 .5359955H.42999269L.16200257 .10600281H.06500244Z"/>
<path id="font_2_3183" d="M.6519928 .10600281 .8670044 .5359955H1.0169983L.7480011 .10600281H.6519928M.06500244 .10600281 .27999879 .5359955H.42999269L.16200257 .10600281H.06500244M.3580017 .10600281 .57299807 .5359955H.7230072L.45500184 .10600281H.3580017Z"/>
<path id="font_1_3174" d="M.039001466 .45599366 .16799927 .7140045H.2579956L.09700012 .45599366H.039001466Z"/>
<path id="font_1_3175" d="M.21499634 .45599366 .34399415 .7140045H.43400575L.272995 .45599366H.21499634M.039001466 .45599366 .16799927 .7140045H.2579956L.09700012 .45599366H.039001466Z"/>
<path id="font_1_3176" d="M.39100648 .45599366 .5200043 .7140045H.6100006L.44900514 .45599366H.39100648M.039001466 .45599366 .16799927 .7140045H.2579956L.09700012 .45599366H.039001466M.21499634 .45599366 .34399415 .7140045H.43400575L.272995 .45599366H.21499634Z"/>
</defs>
<use data-text="&#x1d434;" xlink:href="#font_1_772" transform="matrix(41.510999,0,0,-41.510999,8.304167,42.27083)"/>
<use data-text="&#x2032;" xlink:href="#font_2_3181" transform="matrix(24.906582,0,0,-24.906582,33.995836,26.083333)"/>
<use data-text="&#x1d434;" xlink:href="#font_1_772" transform="matrix(41.510999,0,0,-41.510999,45.295835,42.27083)"/>
<use data-text="&#x2033;" xlink:href="#font_2_3182" transform="matrix(24.906582,0,0,-24.906582,70.99166,26.083333)"/>
<use data-text="&#x1d434;" xlink:href="#font_1_772" transform="matrix(41.510999,0,0,-41.510999,89.587497,42.27083)"/>
<use data-text="&#x2034;" xlink:href="#font_2_3183" transform="matrix(24.906582,0,0,-24.906582,115.283329,26.083333)"/>
<use data-text="&#x1d434;" xlink:href="#font_1_772" transform="matrix(41.510999,0,0,-41.510999,196.51248,42.27083)"/>
<use data-text="&#x2032;" xlink:href="#font_1_3174" transform="matrix(24.906582,0,0,-24.906582,222.20833,26.083333)"/>
<use data-text="&#x1d434;" xlink:href="#font_1_772" transform="matrix(41.510999,0,0,-41.510999,229.64583,42.27083)"/>
<use data-text="&#x2033;" xlink:href="#font_1_3175" transform="matrix(24.906582,0,0,-24.906582,255.34166,26.083333)"/>
<use data-text="&#x1d434;" xlink:href="#font_1_772" transform="matrix(41.510999,0,0,-41.510999,267.16667,42.27083)"/>
<use data-text="&#x2034;" xlink:href="#font_1_3176" transform="matrix(24.906582,0,0,-24.906582,292.85835,26.083333)"/>
</svg>
