<?xml version="1.0" encoding="UTF-8"?>
<svg width="510pt" height="166pt" version="1.1" viewBox="0 0 510 166" xmlns="http://www.w3.org/2000/svg" xmlns:xlink="http://www.w3.org/1999/xlink">
 <style>
  @media (prefers-color-scheme: dark) {
   use:not([fill]) {
       fill: white;
   }
   path[stroke="#000"] {
    stroke: white;
   }
   path[stroke="#000000"] {
    stroke: white;
   }
   path[color="#000000"] {
    fill: white;
   }
  }
 </style>
 <defs>
  <marker id="n" overflow="visible" markerHeight="1" markerWidth="1" orient="auto" preserveAspectRatio="xMidYMid" viewBox="0 0 1 1">
   <path d="m0 4v-8" fill="none" stroke="context-stroke"/>
  </marker>
  <marker id="o" overflow="visible" markerHeight="1" markerWidth="1" orient="auto-start-reverse" preserveAspectRatio="xMidYMid" viewBox="0 0 1 1">
   <path transform="rotate(180 .125 0)" d="m3-3-3 3 3 3" fill="none" stroke="context-stroke"/>
  </marker>
  <path id="g" d="m0.34801-0.158c-0.058675 0-0.10635 0.013336-0.14302 0.040009-0.036662 0.026662-0.054993 0.06633-0.054993 0.119v0.18199c0 0.033997-0.010498 0.058161-0.031494 0.072495-0.020996 0.014333-0.051163 0.0215-0.0905 0.0215v0.073013c0.039337 0.001333 0.069504 0.008662 0.0905 0.021988 0.020996 0.013336 0.031494 0.037003 0.031494 0.070999v0.18301c0 0.053324 0.018331 0.092987 0.054993 0.11899 0.036672 0.026001 0.084346 0.039002 0.14302 0.039002v-0.071991c-0.035339 0-0.062678-0.007502-0.082016-0.022507-0.019328-0.014994-0.028992-0.038829-0.028992-0.071503v-0.179c0-0.068665-0.036331-0.10933-0.10899-0.12199v-0.005997c0.072662-0.012665 0.10899-0.053335 0.10899-0.12201v-0.18199c0-0.032674 0.009664-0.056341 0.028992-0.070999 0.019338-0.014669 0.046677-0.022003 0.082016-0.022003z"/>
  <path id="a" d="m0.55901 0h-0.517v0.101l0.19299 0.186c0.036662 0.036001 0.066325 0.066167 0.088989 0.0905 0.022675 0.024333 0.039342 0.046829 0.050003 0.06749 0.010671 0.020671 0.016006 0.042674 0.016006 0.06601 0 0.03067-0.009165 0.053334-0.027496 0.067993-0.018331 0.014669-0.041829 0.022003-0.070496 0.022003-0.028676 0-0.056513-0.0065-0.083511-0.019501-0.026998-0.013001-0.055496-0.031499-0.085495-0.055496l-0.082001 0.095001c0.021332 0.017334 0.043996 0.033834 0.067993 0.0495 0.024007 0.015666 0.051844 0.028498 0.083511 0.038498 0.031667 0.009999 0.068832 0.014999 0.1115 0.014999 0.048004 0 0.089335-0.008336 0.12399-0.025009 0.034668-0.016663 0.061503-0.039495 0.080505-0.068497 0.019002-0.028992 0.028503-0.062154 0.028503-0.099487 0-0.041341-0.0081685-0.078512-0.024506-0.11151-0.016327-0.033-0.039825-0.065501-0.070496-0.097504-0.03067-0.031993-0.068003-0.067322-0.112-0.10599l-0.098999-0.087997v-0.005005h0.328v-0.123z"/>
  <path id="e" d="m0.274 0-0.13499 0.38h-0.088013v0.069992h0.14301l0.11301-0.32899 0.332 0.936h0.070999l-0.371-1.057h-0.065002z"/>
  <path id="h" d="m0 0 0.23199 0.276-0.116 0.25999h0.089005l0.082993-0.198 0.15701 0.198h0.10199l-0.22299-0.26399 0.123-0.272h-0.089005l-0.091003 0.20799-0.16499-0.20799h-0.10201z"/>
  <path id="f" d="m0.028-0.158v0.072006c0.035329 0 0.062663 0.0073344 0.082001 0.022003 0.019338 0.014659 0.029007 0.038325 0.029007 0.070999v0.18199c0 0.068675 0.036331 0.10934 0.10899 0.12201v0.005997c-0.072662 0.012665-0.10899 0.053329-0.10899 0.12199v0.179c0 0.032674-0.009669 0.056508-0.029007 0.071503-0.019338 0.015004-0.046672 0.022507-0.082001 0.022507v0.071991c0.058665 0 0.10633-0.013 0.14299-0.039002 0.036672-0.026001 0.055008-0.065664 0.055008-0.11899v-0.18301c0-0.033997 0.010498-0.057663 0.031494-0.070999 0.021006-0.013326 0.051178-0.020655 0.090515-0.021988v-0.073013c-0.039337 0-0.069509-0.007167-0.090515-0.0215-0.020996-0.014333-0.031494-0.038498-0.031494-0.072495v-0.18199c0-0.052673-0.018336-0.092341-0.055008-0.119-0.036662-0.026672-0.084325-0.040009-0.14299-0.040009z"/>
  <path id="l" d="m0.381 0.55499c0.07134 0 0.12651-0.016001 0.1655-0.048004 0.039001-0.031993 0.058502-0.080322 0.058502-0.14499v-0.362h-0.10199l-0.029007 0.078003h-0.0039978c-0.01533-0.019999-0.031499-0.036499-0.048508-0.0495-0.016998-0.013-0.036997-0.022664-0.059998-0.028992-0.023-0.0063375-0.051168-0.0095062-0.084503-0.0095062-0.032664 0-0.062332 0.0058289-0.089005 0.017487-0.026662 0.011668-0.047826 0.030004-0.063492 0.055008s-0.023499 0.05717-0.023499 0.096497c0 0.057332 0.02183 0.099996 0.065491 0.12799 0.043671 0.028005 0.10784 0.043676 0.1925 0.047012l0.10001 0.003998v0.020004c0 0.033335-0.008169 0.057002-0.024506 0.070999-0.016327 0.013997-0.039159 0.020996-0.068497 0.020996-0.026662 0-0.05366-0.004003-0.080994-0.012009-0.027334-0.007996-0.054667-0.01799-0.082001-0.029984l-0.046005 0.098999c0.03067 0.01533 0.064835 0.027161 0.10249 0.035492 0.037669 0.008331 0.078171 0.012497 0.12151 0.012497m0.014008-0.30399c-0.052002-0.001343-0.089005-0.009516-0.11101-0.024521-0.021993-0.014994-0.03299-0.036158-0.03299-0.063492 0-0.023326 0.007497-0.040324 0.022491-0.050995 0.015004-0.010671 0.034505-0.016006 0.058502-0.016006 0.037333 0 0.06783 0.0099996 0.091492 0.029999 0.023671 0.020009 0.035843 0.047679 0.036514 0.083008v0.044998l-0.065002-0.002991z"/>
  <path id="k" d="m0.26601 0.58c0-0.022003-6.7139e-4 -0.04334-0.002014-0.064011-0.0013328-0.02066-0.0026654-0.036992-0.003998-0.048996h0.005005c0.013997 0.023336 0.034495 0.043833 0.061493 0.061493 0.027008 0.01767 0.06218 0.026505 0.10551 0.026505 0.063995 0 0.11582-0.023666 0.15549-0.070999 0.039673-0.047333 0.059509-0.11733 0.059509-0.20999 0-0.092-0.020167-0.16233-0.060501-0.211-0.040334-0.048665-0.094167-0.072998-0.1615-0.072998-0.044006 0-0.078176 0.0079956-0.10251 0.023987-0.024333 0.016001-0.043162 0.033005-0.056488 0.05101h-0.01001l-0.024994-0.065002h-0.112v0.75999h0.147v-0.17999m0.118-0.14c-0.041331 0-0.071167-0.012502-0.089508-0.037506-0.018331-0.024994-0.027827-0.063161-0.028488-0.1145v-0.016998c0-0.052663 0.008499-0.092829 0.025497-0.1205 0.016998-0.027669 0.047831-0.041504 0.092499-0.041504 0.036001 0 0.064 0.014501 0.084 0.043503 0.019999 0.029002 0.029999 0.07017 0.029999 0.1235 0 0.10933-0.037999 0.164-0.114 0.164z"/>
  <path id="j" d="m0.394-0.0099945c-0.084666 0-0.15133 0.023-0.2 0.069-0.048665 0.046-0.072998 0.11633-0.072998 0.211 0 0.066661 0.012497 0.12099 0.037491 0.16299 0.025004 0.042002 0.059336 0.072835 0.103 0.092499 0.043671 0.019664 0.09284 0.029495 0.14751 0.029495 0.034668 0 0.066503-0.003332 0.095505-0.009995 0.029002-0.0066625 0.054835-0.01566 0.077499-0.026992l-0.042999-0.11101c-0.023336 0.009338-0.045837 0.017003-0.067505 0.022995-0.021667 0.006002-0.043167 0.009003-0.064499 0.009003-0.043335 0-0.077001-0.014333-0.101-0.042999-0.023997-0.028666-0.035995-0.070333-0.035995-0.125 0-0.053996 0.011663-0.09466 0.034988-0.12199 0.023336-0.027334 0.056341-0.041 0.099014-0.041 0.031331 0 0.06016 0.003998 0.086487 0.011993 0.026337 0.008006 0.051504 0.018672 0.075501 0.031998v-0.12099c-0.022664-0.012675-0.047333-0.02268-0.074005-0.030014-0.026662-0.0073242-0.059326-0.010986-0.097992-0.010986z"/>
  <path id="m" d="m0.478 0-0.34399 1.381h-0.087997v0.070007h0.157l0.325-1.329 0.44701 2.745h0.084l-0.472-2.867h-0.10901z"/>
  <path id="d" d="m0 0 0.388 0.714h0.093994l0.088013-0.714h-0.088013l-0.026993 0.222h-0.241l-0.116-0.222h-0.098007m0.257 0.302h0.189l-0.016006 0.14999c-0.002665 0.02534-0.005163 0.05334-0.007492 0.084-0.002329 0.03067-0.00383 0.057673-0.004501 0.081009h-0.0030064c-0.010661-0.02534-0.022995-0.052511-0.037003-0.081512-0.013997-0.028992-0.028661-0.058156-0.043991-0.087494l-0.076996-0.146z"/>
  <path id="i" d="m0.054993 0v0.089996l0.19101 0.186c0.033335 0.032664 0.060501 0.060496 0.081497 0.083496s0.037328 0.043335 0.048996 0.061005 0.019669 0.034668 0.024002 0.050995c0.004333 0.016337 0.0065 0.033839 0.0065 0.052506 0 0.035329-0.010167 0.061829-0.030502 0.079498-0.020335 0.01767-0.047165 0.026505-0.08049 0.026505-0.033335 0-0.06367-0.0065-0.091003-0.019501-0.027334-0.013-0.055333-0.030167-0.084-0.051498l-0.057999 0.075989c0.032664 0.027334 0.068161 0.049332 0.10649 0.065994 0.03834 0.016673 0.080841 0.025009 0.1275 0.025009 0.070669 0 0.12633-0.017334 0.16699-0.052002 0.04067-0.034668 0.061005-0.082331 0.061005-0.14299 0-0.036672-0.007334-0.070511-0.022003-0.10152-0.014659-0.030996-0.036158-0.062159-0.064499-0.093491-0.02833-0.031331-0.063161-0.06633-0.10449-0.105l-0.13499-0.12801h0.32399v-0.103h-0.468z"/>
  <marker id="c" overflow="visible" markerHeight="1" markerWidth="1" orient="auto" preserveAspectRatio="xMidYMid" viewBox="0 0 1 1">
   <g transform="scale(.6)">
    <path d="m0-40"/>
    <path d="m0 0 8 5v-10z" fill="context-stroke" fill-rule="evenodd"/>
    <path d="m0-8v48" fill="none" stroke="context-stroke" stroke-linecap="square"/>
   </g>
  </marker>
  <marker id="b" overflow="visible" markerHeight="1" markerWidth="1" orient="auto" preserveAspectRatio="xMidYMid" viewBox="0 0 1 1">
   <g transform="scale(.6)">
    <path d="m0-40"/>
    <path d="m0 0-8 5v-10z" fill="context-stroke" fill-rule="evenodd"/>
    <path d="m0-8v48" fill="none" stroke="context-stroke" stroke-linecap="square"/>
   </g>
  </marker>
 </defs>
 <use transform="matrix(20.755 0 0 -20.755 417.69 77.358)" data-text="ðŸ¤" xlink:href="#a"/>
 <g transform="translate(123)">
  <use transform="matrix(41.511,0,0,-41.511,131.13,96.533)" data-text="{" xlink:href="#g"/>
  <use transform="matrix(20.755,0,0,-20.755,149.02,77.358)" data-text="ð–º" xlink:href="#l"/>
  <use transform="matrix(20.755,0,0,-20.755,163.93,77.358)" data-text="ð–»" xlink:href="#k"/>
  <use transform="matrix(20.755,0,0,-20.755,178.93,77.358)" data-text="ð–¼" xlink:href="#j"/>
  <use transform="matrix(41.511,0,0,-41.511,173.85,101.93)" data-text="âˆš" xlink:href="#e"/>
  <path transform="matrix(4.1667,0,0,-4.1667,202.03,59.525)" d="m0 0h5.181" fill="none" stroke="#000" stroke-miterlimit="10" stroke-width=".707"/>
  <use transform="matrix(41.511,0,0,-41.511,202.03,96.533)" data-text="ð‘¥" xlink:href="#h"/>
  <use transform="matrix(41.511,0,0,-41.511,223.62,96.533)" data-text="}" xlink:href="#f"/>
 </g>
 <use transform="matrix(20.755,0,0,-20.755,29.192,77.358)" data-text="ðŸ¤" xlink:href="#a"/>
 <use transform="matrix(41.511,0,0,-41.511,27.075,101.93)" data-text="âˆš" xlink:href="#e"/>
 <path d="m55.262 60.998v-2.946h21.59v2.946z" color="#000000" stroke-miterlimit="10" stroke-width="4.1667" style="-inkscape-stroke:none"/>
 <use transform="matrix(41.511,0,0,-41.511,55.262,96.533)" data-text="ð‘¥" xlink:href="#h"/>
 <path d="m26.532 101.76v-24.351" fill="none" marker-end="url(#b)" marker-start="url(#c)" stroke="#0096ff" stroke-width=".5"/>
 <g transform="translate(-172.5)">
  <use transform="matrix(20.755,0,0,-20.755,283.02,63.612)" data-text="ðŸ¤" xlink:href="#a"/>
  <use transform="matrix(41.511,0,0,-41.511,280.9,130.26)" data-text="âˆš" xlink:href="#m"/>
  <path transform="matrix(4.1667,0,0,-4.1667,322.95,12.721)" d="m0 0h18.859" fill="none" stroke="#000" stroke-miterlimit="10" stroke-width=".707"/>
  <use transform="matrix(41.511,0,0,-41.511,327.94,67.308)" data-text="ð´" xlink:href="#d"/>
  <use transform="matrix(24.907,0,0,-24.907,353.63,55.688)" data-text="ðŸ¤" xlink:href="#i"/>
  <use transform="matrix(20.755,0,0,-20.755,368.08,48.713)" data-text="ðŸ¤" xlink:href="#a"/>
  <use transform="matrix(20.755,0,0,-20.755,380.57,42.9)" data-text="ðŸ¤" xlink:href="#a"/>
  <path transform="matrix(4.1667,0,0,-4.1667,327.94,84.992)" d="m0 0h16.468" fill="none" stroke="#000" stroke-miterlimit="10" stroke-width=".707"/>
  <use transform="matrix(41.511,0,0,-41.511,349.4,124.47)" data-text="ð´" xlink:href="#d"/>
 </g>
 <path d="m107.53 130.14v-66.35" fill="none" marker-end="url(#b)" marker-start="url(#c)" stroke="#0096ff" stroke-width=".5"/>
 <g fill="#0098ff">
  <text x="32.345009" y="148.36516" font-family="'Noto Sans'" font-size="10px" stroke-width=".75" style="line-height:1.25" xml:space="preserve"><tspan x="32.345009" y="148.36516" fill="#0098ff" font-family="'Noto Sans'" font-size="10px" stroke-width=".75">radicalDegreeBottomRaisePercent</tspan></text>
  <text x="248.14999" y="42.099998" font-family="'Noto Sans'" font-size="10px" stroke-width=".75" style="line-height:1.25" xml:space="preserve"><tspan x="248.14999" y="42.099998" fill="#0098ff" font-family="'Noto Sans'" font-size="10px" stroke-width=".75">radicalKernBeforeDegree</tspan></text>
  <rect x="271.24" y="63.7" width="2.7272" height="39.35" fill-opacity=".76166" style="paint-order:fill markers stroke"/>
 </g>
 <use transform="matrix(20.755 0 0 -20.755 402.69 77.358)" fill="#fc96ff" data-text="ðŸ¤" xlink:href="#a"/>
 <use transform="matrix(41.511 0 0 -41.511 415.58 101.93)" data-text="âˆš" xlink:href="#e"/>
 <path d="m443.76 60.998v-2.946h21.59v2.946z" color="#000000" stroke-miterlimit="10" stroke-width="4.1667" style="-inkscape-stroke:none"/>
 <use transform="matrix(41.511 0 0 -41.511 443.76 96.533)" data-text="ð‘¥" xlink:href="#h"/>
 <path d="m416.43 61.347h18.592" fill="none" marker-end="url(#b)" marker-start="url(#c)" stroke="#0096ff" stroke-width=".5"/>
 <text x="384.64999" y="42.100014" fill="#0098ff" font-family="'Noto Sans'" font-size="10px" stroke-width=".75" style="line-height:1.25" xml:space="preserve"><tspan x="384.64999" y="42.100014" fill="#0098ff" font-family="'Noto Sans'" font-size="10px" stroke-width=".75">radicalKernAfterDegree</tspan></text>
 <path d="m428.85 80.997h-25.147" fill="none" marker-end="url(#n)" marker-start="url(#o)" stroke="#fc96ff" stroke-width=".5"/>
</svg>
