<?xml version="1.0" encoding="UTF-8"?>
<svg width="207.75pt" height="57.138pt" version="1.1" viewBox="0 0 207.75 57.138" xmlns="http://www.w3.org/2000/svg" xmlns:xlink="http://www.w3.org/1999/xlink">
 <defs>
  <path id="d" d="m0.34801-0.158c-0.058675 0-0.10635 0.013336-0.14302 0.040009-0.036662 0.026662-0.054993 0.06633-0.054993 0.119v0.18199c0 0.033997-0.010498 0.058161-0.031494 0.072495-0.020996 0.014333-0.051163 0.0215-0.0905 0.0215v0.073013c0.039337 0.0013326 0.069504 0.0086619 0.0905 0.021988 0.020996 0.013336 0.031494 0.037003 0.031494 0.070999v0.18301c0 0.053324 0.018331 0.092987 0.054993 0.11899 0.036672 0.026001 0.084346 0.039002 0.14302 0.039002v-0.071991c-0.035339 0-0.062678-0.0075022-0.082016-0.022507-0.019328-0.014994-0.028992-0.038829-0.028992-0.071503v-0.179c0-0.068665-0.036331-0.10933-0.10899-0.12199v-0.0059967c0.072662-0.012665 0.10899-0.053335 0.10899-0.12201v-0.18199c0-0.032674 0.0096639-0.056341 0.028992-0.070999 0.019338-0.014669 0.046677-0.022003 0.082016-0.022003v-0.072006z"/>
  <path id="b" d="m0.215-0.0099945c-0.048665 0-0.088999 0.012833-0.121 0.038498-0.031993 0.025665-0.047989 0.065832-0.047989 0.1205 0 0.053335 0.020996 0.094498 0.062988 0.12349 0.042002 0.029002 0.10667 0.04484 0.194 0.047516l0.091003 0.0029907v0.031998c0 0.044668-0.009669 0.075668-0.029007 0.093002-0.019328 0.017334-0.046656 0.026001-0.081985 0.026001-0.028005 0-0.054677-0.0041656-0.080017-0.012497-0.02533-0.0083313-0.048991-0.017832-0.070984-0.028503l-0.027008 0.065994c0.023336 0.012675 0.051 0.023509 0.082993 0.032501 0.032003 0.0090026 0.065338 0.013504 0.10001 0.013504 0.065338 0 0.11367-0.014333 0.145-0.042999 0.031331-0.028666 0.046997-0.074331 0.046997-0.13699v-0.36501h-0.063995l-0.016998 0.076004h-0.0039978c-0.023336-0.029338-0.047836-0.051005-0.073502-0.065002-0.025665-0.013997-0.061167-0.020996-0.10651-0.020996m0.020004 0.070999c0.045329 0 0.082993 0.012497 0.11299 0.037491 0.030009 0.025004 0.045013 0.063507 0.045013 0.11551v0.047989l-0.07901-0.0029907c-0.066661-0.0026652-0.11283-0.013331-0.1385-0.031998-0.025665-0.018667-0.038498-0.045003-0.038498-0.07901 0-0.029999 0.0091654-0.051997 0.027496-0.065994 0.018341-0.013997 0.041845-0.020996 0.070511-0.020996z"/>
  <path id="a" d="m0.382-0.0099945c-0.094666 0-0.167 0.024165-0.21701 0.072495-0.049998 0.04833-0.074997 0.1155-0.074997 0.20151v0.45h0.134v-0.44c0-0.058665 0.013835-0.10233 0.041504-0.131 0.027669-0.028666 0.0675-0.042999 0.11949-0.042999 0.10601 0 0.15901 0.057999 0.15901 0.174v0.44h0.13399v-0.44901c0-0.083995-0.025167-0.15083-0.0755-0.2005-0.050334-0.049662-0.12383-0.074493-0.22049-0.074493z"/>
  <path id="c" d="m0.028-0.158v0.072006c0.035329 0 0.062663 0.0073344 0.082001 0.022003 0.019338 0.014659 0.029007 0.038325 0.029007 0.070999v0.18199c0 0.068675 0.036331 0.10934 0.10899 0.12201v0.0059967c-0.072662 0.012665-0.10899 0.053329-0.10899 0.12199v0.179c0 0.032674-0.009669 0.056508-0.029007 0.071503-0.019338 0.015004-0.046672 0.022507-0.082001 0.022507v0.071991c0.058665 0 0.10633-0.013 0.14299-0.039002 0.036672-0.026001 0.055008-0.065664 0.055008-0.11899v-0.18301c0-0.033997 0.010498-0.057663 0.031494-0.070999 0.021006-0.013326 0.051178-0.020655 0.090515-0.021988v-0.073013c-0.039337 0-0.069509-0.0071665-0.090515-0.0215-0.020996-0.014333-0.031494-0.038498-0.031494-0.072495v-0.18199c0-0.052673-0.018336-0.092341-0.055008-0.119-0.036662-0.026672-0.084325-0.040009-0.14299-0.040009z"/>
 </defs>
 <use transform="matrix(41.511 0 0 -41.511 8.3042 42.275)" data-text="{" xlink:href="#d"/>
 <use transform="matrix(41.511 0 0 -41.511 24.078 42.275)" data-text="a" xlink:href="#b"/>
 <use transform="matrix(24.907 0 0 -24.907 47.362 26.088)" data-text="ð–´" xlink:href="#a"/>
 <use transform="matrix(41.511 0 0 -41.511 68.179 42.275)" data-text="}" xlink:href="#c"/>
 <use transform="matrix(41.511 0 0 -41.511 125.46 42.275)" data-text="{" xlink:href="#d"/>
 <use transform="matrix(41.511 0 0 -41.511 141.24 42.275)" data-text="a" xlink:href="#b"/>
 <use transform="matrix(24.907 0 0 -24.907 164.52 26.088)" data-text="ð–´" xlink:href="#a"/>
 <use transform="matrix(41.511 0 0 -41.511 183.68 42.275)" data-text="}" xlink:href="#c"/>
 <rect x="64.258" y="8.3251" width="5.0932" height="28.446" ry="0" fill="#0096ff" fill-opacity=".26943" style="paint-order:fill markers stroke"/>
 <rect x="179.76" y="8.3251" width="5.0932" height="28.446" ry="0" fill="#0096ff" fill-opacity=".26943" style="paint-order:fill markers stroke"/>
</svg>
