<svg xmlns="http://www.w3.org/2000/svg" xmlns:xlink="http://www.w3.org/1999/xlink" version="1.1" width="511.15415pt" height="122.433338pt" viewBox="0 0 511.15415 122.433338">
 <style>
  @media (prefers-color-scheme: dark) {
   use:not([fill]) {
       fill: white;
   }
   path[stroke="#000"] {
    stroke: white;
   }
   path[stroke="#000000"] {
    stroke: white;
   }
   path[color="#000000"] {
    fill: white;
   }
  }
 </style>
<defs>
<path id="font_1_795" d="M0 0 .29100038 .37800599 .16400147 .7140045H.2539978L.35099793 .44099427 .56300356 .7140045H.6609955L.39100648 .37399293 .526001 0H.43200685L.33000184 .30900575 .0980072 0H0Z"/>
<path id="font_1_3844" d="M.050994874 .34199525V.41299439H.5209961V.34199525H.050994874M.050994874 .14300537V.21400452H.5209961V.14300537H.050994874Z"/>
<path id="font_1_2278" d="M.3480072-.8820038C.28933207-.8820038 .24165853-.86883547 .20498657-.8424988 .16832479-.8161621 .1499939-.7763316 .1499939-.7230072V.16000366C.1499939 .19400025 .13949585 .21816509 .118499759 .23249817 .09750366 .24683126 .067337039 .2539978 .027999878 .2539978V.33700563C.067337039 .33833824 .09750366 .3456675 .118499759 .35899354 .13949585 .3723297 .1499939 .3959961 .1499939 .42999269V1.3150025C.1499939 1.368337 .16832479 1.4080048 .20498657 1.4340057 .24165853 1.4600067 .28933207 1.4730072 .3480072 1.4730072V1.401001C.31333924 1.4003296 .28667198 1.3924917 .26800538 1.3774872 .24933879 1.3624929 .2400055 1.3389994 .2400055 1.3070068V.42100526C.2400055 .35233055 .20600383 .31166078 .13800049 .29899598V.29299928C.20600383 .28033448 .2400055 .2396698 .2400055 .17100525V-.7160034C.2400055-.74800619 .24933879-.7715047 .26800538-.786499 .28667198-.8015035 .31333924-.80933639 .3480072-.80999758V-.8820038Z"/>
<path id="font_1_1056" d="M0 0 .23199463 .27600099 .115997318 .5359955H.20500183L.28799439 .33799745 .44500733 .5359955H.5469971L.32400514 .27200318 .44700624 0H.3580017L.2669983 .20799256 .102005008 0H0Z"/>
<path id="font_1_3622" d="M.3939972-.014007568C.28266908-.014007568 .19766744 .010660808 .13899231 .05999756 .080327358 .10933431 .050994874 .18166606 .050994874 .2769928 .050994874 .3723297 .07999674 .44466148 .13800049 .49398805 .19600423 .54332479 .28133647 .56799319 .3939972 .56799319H.647995V.49699403H.38200379C.22533672 .49699403 .13966878 .43566386 .125 .31300355H.647995V.2420044H.125C.13166301 .18133545 .1569926 .13533528 .20098877 .104003909 .24499512 .07267252 .30533348 .057006837 .38200379 .057006837H.647995V-.014007568H.3939972Z"/>
<path id="font_1_1592" d="M.09700012 0V.7140045H.3560028C.44132997 .7140045 .50399276 .6975047 .5439911 .664505 .58399966 .6315053 .6040039 .584671 .6040039 .5240021 .6040039 .47999574 .5928345 .44249473 .5704956 .41149903 .54816696 .38050334 .51666769 .35733543 .47599793 .34199525L.6990051 0H.5039978L.31300355 .31700135H.27000428V0H.09700012M.1499939 .052993776H.21699524V.6609955H.1499939V.052993776M.27000428 .36999513H.40899659V.6609955H.27000428V.36999513M.46299745 .3869934C.48699443 .39833579 .50682577 .41400657 .52249148 .43400575 .5381673 .4540049 .54600527 .4840037 .54600527 .5240021 .54600527 .5606639 .53900149 .5884959 .5249939 .60749819 .5109965 .6265004 .49033103 .6403351 .46299745 .6490021V.3869934M.53100588 .052001954H.6049957L.42999269 .32699586C.4099935 .32299806 .3896637 .32033286 .3690033 .31900025L.53100588 .052001954Z"/>
<path id="font_1_2255" d="M.17999268-.8820038V1.4730072H.2630005V-.8820038H.17999268Z"/>
<path id="font_1_2940" d="M.050994874-.79200747 .085006717-.71299746C.10433451-.7196706 .12299601-.7251689 .14099121-.7294922 .15899658-.7338257 .17599996-.73599246 .19200135-.73599246 .21866353-.73599246 .24315898-.7284902 .26548768-.7134857 .28782655-.6984914 .30832926-.67265829 .32699586-.6359863 .34566245-.5993245 .3626658-.54832968 .37800599-.4830017 .39333598-.41633097 .40649925-.3398285 .41749574-.25349427 .4285024-.16716004 .43850199-.07499695 .4474945 .022994996 .4564972 .12099711 .46566773 .22033184 .4750061 .32099916 .4850057 .42699687 .49450175 .53016158 .50349429 .63049319 .51249697 .73083499 .5228322 .8253377 .5345001 .91400149 .546168 1.0026652 .5600026 1.0819956 .576004 1.1519928 .5946706 1.2326609 .618337 1.2974955 .6470032 1.3464966 .6756694 1.3954977 .7078349 1.4309946 .74349978 1.4529877 .7791646 1.4749909 .81666567 1.4859924 .8560028 1.4859924 .87933859 1.4859924 .9031728 1.4826609 .9275055 1.4759979 .9518382 1.469335 .9763387 1.459671 1.0010071 1.4470062L.96699526 1.3679962C.9476674 1.3753306 .92900088 1.3809967 .9109955 1.3849945 .8930003 1.3890025 .876002 1.3910065 .8600006 1.3910065 .83333846 1.3910065 .8088379 1.3835043 .786499 1.3684998 .76417037 1.3534952 .74367269 1.3276571 .7250061 1.2909851 .70633956 1.2543234 .6893361 1.2033285 .673996 1.1380005 .66200259 1.0873312 .65133669 1.0299937 .6419983 .96598818 .6326701 .9019928 .62417098 .83399459 .61650088 .7619934 .60883077 .69000247 .60166427 .6161702 .5950012 .5404968 .5883382 .4648336 .58133956 .3893331 .5740051 .31399537 .56466677 .21332805 .5554962 .113993328 .54649356 .015991211 .53750106-.08200073 .5275014-.17466228 .51649478-.2619934 .50549826-.34933473 .4919993-.42766825 .47599793-.49699403 .45733134-.57766219 .43366496-.64249679 .40499879-.6914978 .3763326-.74049887 .34432984-.7759959 .30899049-.7979889 .2736613-.81999209 .23599752-.83099368 .19599915-.83099368 .17266338-.83099368 .14882915-.82766219 .12449646-.82099917 .10016378-.8143361 .075663249-.80467227 .050994874-.79200747Z"/>
<path id="font_2_1240" d="M0 0 .23399353 .27900697 .12199402 .54299929H.2579956L.32200624 .3690033 .45300294 .54299929H.6049957L.37800599 .27200318 .49899293 0H.3600006L.29100038 .17999268 .15100098 0H0Z"/>
<path id="font_2_1819" d="M.28599549-.011001587C.20066834-.011001587 .13633728 .020828248 .09300232 .084487918 .04966736 .14815776 .027999878 .23965962 .027999878 .35899354 .027999878 .47633363 .048497518 .5668335 .0894928 .63049319 .13049825 .694163 .19599915 .7259979 .28599549 .7259979 .3713328 .7259979 .43566896 .6944987 .4790039 .63150027 .52233889 .5685018 .54400637 .47766624 .54400637 .35899354 .54400637 .24166362 .5238393 .15066529 .48350526 .085998538 .44317118 .021331788 .3773346-.011001587 .28599549-.011001587M.28599549 .09300232C.33399964 .09300232 .36883546 .11483256 .39050294 .15849304 .4121704 .2021637 .42300416 .2689972 .42300416 .35899354 .42300416 .44766746 .4121704 .5136668 .39050294 .5569916 .36883546 .60032656 .33399964 .621994 .28599549 .621994 .23733013 .621994 .20233155 .6004944 .18099976 .5574951 .15966797 .51449587 .14900208 .44832865 .14900208 .35899354 .14900208 .2703298 .15966797 .20383199 .18099976 .15950012 .20233155 .11516825 .23733013 .09300232 .28599549 .09300232Z"/>
<path id="font_1_1036" d="M.083999637-.2400055C.07133484-.2400055 .05966695-.2390035 .04899597-.23699951 .038335165-.23499553 .028671265-.23266094 .020004273-.22999573V-.15600586C.02933248-.15867107 .038330079-.16116841 .04699707-.16349793 .055664064-.1658376 .065333049-.16700745 .07600403-.16700745 .100001018-.16700745 .118662517-.15717061 .13198853-.13749695 .1453247-.11783346 .15599568-.08966573 .16400147-.052993776L.27400209 .46899415H.18099976L.18800354 .5059967 .28799439 .53900149 .29899598 .5870056C.30966697 .6330058 .3228353 .6688385 .33850099 .6945038 .35416667 .72016909 .3736674 .7383321 .39700318 .7489929 .42033897 .7596639 .44833885 .7649994 .4810028 .7649994 .4976654 .7649994 .51483157 .76316329 .5325012 .75949099 .5501709 .75582888 .5643361 .7513326 .57499697 .7460022L.55200198 .67900088C.5426636 .68233749 .53249618 .6855011 .52149966 .6884918 .5105031 .69149276 .4983368 .69299319 .4850006 .69299319 .45899964 .69299319 .43849693 .68565878 .42349244 .67099 .40849815 .65633139 .3963318 .6283366 .3869934 .5870056L.375 .5359955H.4900055L.477005 .46899415H.3619995L.25-.06300354C.2386678-.11833191 .22016907-.16166179 .19450379-.19299317 .1688385-.22433472 .13200379-.2400055 .083999637-.2400055Z"/>
<path id="font_1_1864" d="M.21499634-.15800476C.15499878-.094670619 .11082967-.022669474 .08248901 .057998659 .054158529 .1386668 .039993287 .22233582 .039993287 .30900575 .039993287 .39699809 .054158529 .48199464 .08248901 .56399539 .11082967 .6459961 .15499878 .71932986 .21499634 .7839966H.29800416C.2420044 .7166646 .19983419 .64216616 .17149353 .5605011 .14316304 .47883607 .1289978 .39533488 .1289978 .30999757 .1289978 .226003 .14333089 .14383443 .17199707 .06349182 .20066326-.016840617 .24232991-.09067281 .29699708-.15800476H.21499634Z"/>
<path id="font_1_1058" d="M0 0 .011993408 .05999756 .34500123 .47000123H.11500549L.1289978 .5359955H.45399476L.44000245 .46499635 .11300659 .06599426H.36799623L.35499574 0H0Z"/>
<path id="font_1_1865" d="M.03100586-.15800476C.08633423-.09067281 .12816365-.016840617 .15649414 .06349182 .1848348 .14383443 .19900513 .226003 .19900513 .30999757 .19900513 .39533488 .1848348 .47883607 .15649414 .5605011 .12816365 .64216616 .085998538 .7166646 .02999878 .7839966H.11300659C.17300415 .71932986 .21716817 .6459961 .24549866 .56399539 .27382914 .48199464 .28799439 .39699809 .28799439 .30900575 .28799439 .22233582 .27382914 .1386668 .24549866 .057998659 .21716817-.022669474 .17300415-.094670619 .11300659-.15800476H.03100586Z"/>
<path id="font_1_1034" d="M.19299317-.009994507C.15032959-.009994507 .11549886 .0053354899 .08850098 .035995485 .061503095 .06666565 .04800415 .112335208 .04800415 .17300415 .04800415 .22233074 .054000856 .26915995 .06599426 .31349183 .07799784 .35783387 .09549967 .39750163 .118499759 .43249513 .14149983 .46749879 .16916402 .4950002 .20149231 .5149994 .23383077 .5349986 .27033488 .54499819 .31100465 .54499819 .34700523 .54499819 .37583415 .5358327 .39749146 .51750186 .41915895 .49917094 .43532817 .4776713 .44599916 .45300294H.45100404C.45433045 .47566734 .45766197 .4973297 .46099855 .5179901 .4643351 .5386607 .468338 .5609996 .4730072 .5850067L.5099945 .7599945H.5970001L.43600465 0H.3639984L.375 .09899902H.3710022C.34700523 .069000247 .32066856 .04333496 .2919922 .022003174 .26332603 .0006713867 .23032634-.009994507 .19299317-.009994507M.2230072 .06300354C.2450002 .06300354 .2673289 .07116699 .2899933 .0874939 .31266786 .10383097 .33366905 .1259969 .35299684 .1539917 .3723348 .18199666 .38783775 .21399944 .39950563 .25 .4111735 .28600059 .41700746 .32400004 .41700746 .3639984 .41700746 .3960012 .40916953 .42200218 .39349366 .44200135 .37782798 .46200053 .35233055 .47200013 .31700135 .47200013 .29032899 .47200013 .26615907 .46350099 .24449158 .4465027 .22283428 .4295044 .20400493 .40667216 .18800354 .37800599 .17200215 .3493398 .15966797 .31700645 .15100098 .28100587 .14233399 .2450053 .13800049 .20833843 .13800049 .17100525 .13800049 .09900411 .16633606 .06300354 .2230072 .06300354Z"/>
<path id="font_1_3847" d="M.5209961 .042007448 .05000305 .24899292V.29899598L.5209961 .5339966V.45599366L.14399719 .27799989 .5209961 .11999512V.042007448Z"/>
<path id="font_1_1779" d="M.28500367-.009994507C.20433553-.009994507 .14483135 .022501627 .10649109 .0874939 .06816101 .15249634 .04899597 .2426656 .04899597 .3580017 .04899597 .43533326 .056828817 .5013326 .07249451 .55599978 .088160198 .61066696 .11332703 .6525014 .147995 .6815033 .18266297 .7105052 .22833252 .7250061 .28500367 .7250061 .3650004 .7250061 .42466227 .6928355 .46398927 .62849429 .5033264 .5641632 .522995 .47399903 .522995 .3580017 .522995 .2813314 .5149943 .2154948 .49899293 .16049195 .4830017 .10549927 .45767213 .063334148 .42300416 .033996583 .38833619 .0046691896 .34233604-.009994507 .28500367-.009994507M.28500367 .06500244C.33833824 .06500244 .37650553 .089167278 .39950563 .13749695 .4225057 .18583679 .43400575 .25933839 .43400575 .3580017 .43400575 .45533244 .4225057 .5283305 .39950563 .57699587 .37650553 .6256612 .33833824 .6499939 .28500367 .6499939 .23099773 .6499939 .19282532 .6256612 .17048645 .57699587 .14815776 .5283305 .13699341 .45533244 .13699341 .3580017 .13699341 .2599996 .14815776 .18666585 .17048645 .13800049 .19282532 .08933512 .23099773 .06500244 .28500367 .06500244Z"/>
<path id="font_1_2279" d="M.027999878-.8820038V-.80999758C.06266785-.80933639 .08949789-.8015035 .10848999-.786499 .12749227-.7715047 .13699341-.74800619 .13699341-.7160034V.17100525C.13699341 .2396698 .17066448 .28033448 .23800659 .29299928V.29899598C.17066448 .31166078 .13699341 .35233055 .13699341 .42100526V1.3070068C.13699341 1.3389994 .12749227 1.3624929 .10848999 1.3774872 .08949789 1.3924917 .06266785 1.4003296 .027999878 1.401001V1.4730072C.08666483 1.4730072 .1343282 1.4600067 .17098999 1.4340057 .20766194 1.4080048 .22599793 1.368337 .22599793 1.3150025V.42999269C.22599793 .3959961 .23649597 .3723297 .25749208 .35899354 .27849833 .3456675 .30867005 .33833824 .3480072 .33700563V.2539978C.30867005 .2539978 .27849833 .24683126 .25749208 .23249817 .23649597 .21816509 .22599793 .19400025 .22599793 .16000366V-.7230072C.22599793-.7763316 .20766194-.8161621 .17098999-.8424988 .1343282-.86883547 .08666483-.8820038 .027999878-.8820038Z"/>
</defs>
<use data-text="&#x1d44b;" xlink:href="#font_1_795" transform="matrix(41.510999,0,0,-41.510999,8.304167,71.495838)"/>
<use data-text="=" xlink:href="#font_1_3844" transform="matrix(41.510999,0,0,-41.510999,48.07171,71.495838)"/>
<use data-text="{" xlink:href="#font_1_2278" transform="matrix(41.510999,0,0,-41.510999,83.375,72.22084)"/>
<use data-text="&#x1d465;" xlink:href="#font_1_1056" transform="matrix(41.510999,0,0,-41.510999,99.149997,71.495838)"/>
<use data-text="&#x2208;" xlink:href="#font_1_3622" transform="matrix(41.510999,0,0,-41.510999,134.18527,71.495838)"/>
<use data-text="&#x211d;" xlink:href="#font_1_1592" transform="matrix(41.510999,0,0,-41.510999,174.74153,71.495838)"/>
<use data-text="|" xlink:href="#font_1_2255" transform="matrix(41.510999,0,0,-41.510999,204.40416,72.22084)"/>
<use data-text="&#x222b;" xlink:href="#font_1_2940" transform="matrix(41.510999,0,0,-41.510999,229.7125,73.55)"/>
<use data-text="&#x1d639;" xlink:href="#font_2_1240" transform="matrix(24.906582,0,0,-24.906582,273.37916,21.82917)"/>
<use data-text="&#x1d7e2;" xlink:href="#font_2_1819" transform="matrix(24.906582,0,0,-24.906582,252.625,113.85834)"/>
<use data-text="&#x1d453;" xlink:href="#font_1_1036" transform="matrix(41.510999,0,0,-41.510999,296.35417,71.495838)"/>
<use data-text="(" xlink:href="#font_1_1864" transform="matrix(41.510999,0,0,-41.510999,321.05317,71.495838)"/>
<use data-text="&#x1d467;" xlink:href="#font_1_1058" transform="matrix(41.510999,0,0,-41.510999,334.6688,71.495838)"/>
<use data-text=")" xlink:href="#font_1_1865" transform="matrix(41.510999,0,0,-41.510999,353.76387,71.495838)"/>
<use data-text="&#x1d451;" xlink:href="#font_1_1034" transform="matrix(41.510999,0,0,-41.510999,367.37947,71.495838)"/>
<use data-text="&#x1d465;" xlink:href="#font_1_1056" transform="matrix(41.510999,0,0,-41.510999,392.99177,71.495838)"/>
<use data-text="&#x003c;" xlink:href="#font_1_3847" transform="matrix(41.510999,0,0,-41.510999,428.02705,71.495838)"/>
<use data-text="0" xlink:href="#font_1_1779" transform="matrix(41.510999,0,0,-41.510999,463.3114,71.495838)"/>
<use data-text="}" xlink:href="#font_1_2279" transform="matrix(41.510999,0,0,-41.510999,487.07917,72.22084)"/>
</svg>
