<svg xmlns="http://www.w3.org/2000/svg" xmlns:xlink="http://www.w3.org/1999/xlink" version="1.1" width="301.7583pt" height="76.09166pt" viewBox="0 0 301.7583 76.09166">
 <style>
  @media (prefers-color-scheme: dark) {
   use:not([fill]) {
       fill: white;
   }
   path[stroke="#000"] {
    stroke: white;
   }
   path[color="#000000"] {
    fill: white;
   }
  }
 </style>
<defs>
<path id="font_1_1290" d="M.052993776 0 .16900635 .54600527H.27999879L.27000428 .44500733H.27400209C.29466249 .4769999 .31899516 .50349429 .34700013 .52449038 .3750051 .54549667 .40800477 .55599978 .44599916 .55599978 .4933319 .55599978 .5286662 .5418294 .55200198 .51348879 .5753377 .4851583 .5870056 .44732667 .5870056 .3999939 .5870056 .3746643 .58333846 .34533183 .576004 .31199647L.5110016 0H.3659973L.43299867 .32000733C.43832908 .34333293 .44099427 .3626658 .44099427 .37800599 .44099427 .41800437 .422994 .43800355 .3869934 .43800355 .3650004 .43800355 .34483338 .42867027 .3264923 .41000367 .3081614 .39133708 .29232789 .3660024 .2789917 .33399964 .26566569 .30199687 .2546692 .2659963 .2460022 .22599793L.19799805 0H.052993776Z"/>
<path id="font_2_3195" d="M.27400209 0 .13900757 .38000489H.050994874V.44999696H.19400025L.30700685 .1210022 .63900759 1.0570068H.7100067L.33900453 0H.27400209Z"/>
<path id="font_2_1056" d="M0 0 .23199463 .27600099 .115997318 .5359955H.20500183L.28799439 .33799745 .44500733 .5359955H.5469971L.32400514 .27200318 .44700624 0H.3580017L.2669983 .20799256 .102005008 0H0Z"/>
<path id="font_2_3842" d="M.117996219 .057006837 .06599426 .10800171 .23500061 .27799989 .06500244 .44700624 .117004398 .49899293 .28599549 .32800294 .45700074 .49899293 .5070038 .44799806 .33700563 .27799989 .5059967 .10800171 .45599366 .057006837 .28500367 .22599793 .117996219 .057006837Z"/>
<path id="font_2_2752" d="M.65600588-.014007568C.63933309-.014007568 .62499496-.008672078 .61299136 .0019989014 .6009979 .012669881 .5950012 .030003867 .5950012 .054000856 .5950012 .07866923 .6009979 .09600321 .61299136 .10600281 .62499496 .1160024 .63933309 .1210022 .65600588 .1210022 .67333987 .1210022 .6881714 .1160024 .7005005 .10600281 .7128296 .09600321 .71899417 .07866923 .71899417 .054000856 .71899417 .030003867 .7128296 .012669881 .7005005 .0019989014 .6881714-.008672078 .67333987-.014007568 .65600588-.014007568M.1329956-.014007568C.11633301-.014007568 .101999919-.008672078 .08999634 .0019989014 .07800293 .012669881 .072006229 .030003867 .072006229 .054000856 .072006229 .07866923 .07800293 .09600321 .08999634 .10600281 .101999919 .1160024 .11633301 .1210022 .1329956 .1210022 .15032959 .1210022 .16516114 .1160024 .17749024 .10600281 .18982952 .09600321 .19599915 .07866923 .19599915 .054000856 .19599915 .030003867 .18982952 .012669881 .17749024 .0019989014 .16516114-.008672078 .15032959-.014007568 .1329956-.014007568M.39500428-.014007568C.3783315-.014007568 .36399333-.008672078 .35198976 .0019989014 .33999635 .012669881 .33399964 .030003867 .33399964 .054000856 .33399964 .07866923 .33999635 .09600321 .35198976 .10600281 .36399333 .1160024 .3783315 .1210022 .39500428 .1210022 .41233827 .1210022 .4271698 .1160024 .4394989 .10600281 .451828 .09600321 .45799256 .07866923 .45799256 .054000856 .45799256 .030003867 .451828 .012669881 .4394989 .0019989014 .4271698-.008672078 .41233827-.014007568 .39500428-.014007568Z"/>
<path id="font_2_4851" d="M.17399597-.2290039C.11266581-.2290039 .068333949-.21467082 .041000368-.18600464 .013666789-.15733846 0-.1153361 0-.05999756H.07299805C.07299805-.09266154 .08149719-.11566162 .09849548-.1289978 .115493778-.14233399 .1429952-.14900208 .18099976-.14900208H.78100588V-.2290039H.17399597Z"/>
<path id="font_2_4985" d="M0-.2290039V-.14900208H.80000308V-.2290039H0Z"/>
<path id="font_2_4859" d="M.70500186-.30499269C.7023366-.2543335 .6673381-.2290039 .6000061-.2290039H0V-.14900208H.6119995C.68000289-.14900208 .7213338-.17333476 .73599246-.22200012H.7420044C.75667318-.17333476 .79800418-.14900208 .8659973-.14900208H1.4779968V-.2290039H.878006C.8106639-.2290039 .7756602-.2543335 .772995-.30499269H.70500186Z"/>
<path id="font_2_4861" d="M0-.2290039V-.14900208H.6000061C.6380005-.14900208 .6654968-.14233399 .6824951-.1289978 .6994934-.11566162 .70799258-.09266154 .70799258-.05999756H.78100588C.78100588-.1153361 .76733908-.15733846 .7400055-.18600464 .71267196-.21467082 .66833499-.2290039 .6069946-.2290039H0Z"/>
<path id="font_2_3844" d="M.050994874 .34199525V.41299439H.5209961V.34199525H.050994874M.050994874 .14300537V.21400452H.5209961V.14300537H.050994874Z"/>
</defs>
<use data-text="&#x1d62f;" xlink:href="#font_1_1290" transform="matrix(20.755499,0,0,-20.755499,10.420833,30.558327)"/>
<use data-text="&#x221a;" xlink:href="#font_2_3195" transform="matrix(41.510999,0,0,-41.510999,8.304167,55.129159)"/>
<path transform="matrix(4.1666667,0,0,-4.1666667,36.4875,12.724995)" stroke-width=".707" stroke-linecap="butt" stroke-miterlimit="10" stroke-linejoin="miter" fill="none" stroke="#000000" d="M0 0H5.181"/>
<use data-text="&#x1d465;" xlink:href="#font_2_1056" transform="matrix(41.510999,0,0,-41.510999,36.4875,49.733327)"/>
<use data-text="&#x00d7;" xlink:href="#font_2_3842" transform="matrix(41.510999,0,0,-41.510999,67.28866,49.733327)"/>
<use data-text="&#x1d62f;" xlink:href="#font_1_1290" transform="matrix(20.755499,0,0,-20.755499,102.38333,30.558327)"/>
<use data-text="&#x221a;" xlink:href="#font_2_3195" transform="matrix(41.510999,0,0,-41.510999,100.26666,55.129159)"/>
<path transform="matrix(4.1666667,0,0,-4.1666667,128.45417,12.724995)" stroke-width=".707" stroke-linecap="butt" stroke-miterlimit="10" stroke-linejoin="miter" fill="none" stroke="#000000" d="M0 0H5.181"/>
<use data-text="&#x1d465;" xlink:href="#font_2_1056" transform="matrix(41.510999,0,0,-41.510999,128.45417,49.733327)"/>
<use data-text="&#x00d7;" xlink:href="#font_2_3842" transform="matrix(41.510999,0,0,-41.510999,159.25534,49.733327)"/>
<use data-text="&#x2026;" xlink:href="#font_2_2752" transform="matrix(41.510999,0,0,-41.510999,192.21509,49.733327)"/>
<use data-text="&#x23df;" xlink:href="#font_2_4851" transform="matrix(41.510999,0,0,-41.510999,8.304167,55.129159)"/>
<use data-text="&#x23df;" xlink:href="#font_2_4985" transform="matrix(41.510999,0,0,-41.510999,34.165517,55.129159)"/>
<use data-text="&#x23df;" xlink:href="#font_2_4985" transform="matrix(41.510999,0,0,-41.510999,59.404207,55.129159)"/>
<use data-text="&#x23df;" xlink:href="#font_2_4859" transform="matrix(41.510999,0,0,-41.510999,86.01276,55.129159)"/>
<use data-text="&#x23df;" xlink:href="#font_2_4985" transform="matrix(41.510999,0,0,-41.510999,140.80727,55.129159)"/>
<use data-text="&#x23df;" xlink:href="#font_2_4985" transform="matrix(41.510999,0,0,-41.510999,166.04596,55.129159)"/>
<use data-text="&#x23df;" xlink:href="#font_2_4861" transform="matrix(41.510999,0,0,-41.510999,192.65451,55.129159)"/>
<use data-text="=" xlink:href="#font_2_3844" transform="matrix(41.510999,0,0,-41.510999,236.59583,49.733327)"/>
<use data-text="&#x1d465;" xlink:href="#font_2_1056" transform="matrix(41.510999,0,0,-41.510999,271.83869,49.733327)"/>
</svg>
