<svg xmlns="http://www.w3.org/2000/svg" xmlns:xlink="http://www.w3.org/1999/xlink" version="1.1" width="1240.4pt" height="111.37499pt" viewBox="0 0 1240.4 111.37499">
 <style>
  @media (prefers-color-scheme: dark) {
   use:not([fill]) {
       fill: white;
   }
   path[stroke="#000"] {
    stroke: white;
   }
   path[color="#000000"] {
    fill: white;
   }
  }
 </style>
<defs>
<path id="font_1_3206" d="M.31500245 0 .13800049 .58000186H.05000305V.6499939H.19599915L.35099793 .1210022 .70599368 1.4190064H.7799988L.38900758 0H.31500245Z"/>
<path id="font_1_1782" d="M.24099732-.009994507C.20366414-.009994507 .16899617-.0071614587 .13699341-.0014953613 .10500082 .004170736 .07433573 .014338176 .04499817 .029006958V.11099243C.07499695 .096333827 .10733032 .08483378 .14199829 .07649231 .17666626 .06816101 .21000164 .06399536 .2420044 .06399536 .30599977 .06399536 .3521627 .0764974 .38049317 .101501468 .40883384 .12650554 .42300416 .16100566 .42300416 .20500183 .42300416 .24966939 .40550233 .28183494 .37049867 .3014984 .335495 .3211619 .28633119 .33099366 .2230072 .33099366H.15400696V.40600587H.22399903C.28266398 .40600587 .3271637 .41833497 .35749818 .44299317 .38783265 .46766154 .40299989 .5003306 .40299989 .54100039 .40299989 .57566836 .391332 .60249838 .36799623 .6214905 .34466044 .64049276 .31299339 .6499939 .272995 .6499939 .23432923 .6499939 .20132955 .6443278 .17399597 .6329956 .1466624 .6216634 .11966451 .6073303 .09300232 .58999636L.04899597 .6499939C.07433573 .6699931 .10583496 .6873271 .14349365 .70199587 .18116252 .7166646 .22399903 .723999 .27200318 .723999 .34666953 .723999 .40216575 .70733138 .43849183 .673996 .4748281 .6406606 .49299623 .59832766 .49299623 .5469971 .49299623 .49900309 .47966004 .46083579 .45298768 .43249513 .42632548 .40416465 .39033 .3853353 .34500123 .37600709V.37199403C.4023336 .36533103 .44499717 .34733073 .47299195 .31799317 .5009969 .28866578 .5149994 .2503357 .5149994 .20300293 .5149994 .16167195 .5053304 .12483724 .48599244 .09249878 .46666465 .06017049 .4368337 .035003663 .39649964 .016998291 .35616557-.0009969076 .30433146-.009994507 .24099732-.009994507Z"/>
<path id="font_1_3840" d="M.25 .035995485V.2420044H.050994874V.31300355H.25V.5200043H.32200624V.31300355H.5209961V.2420044H.32200624V.035995485H.25Z"/>
<path id="font_1_1781" d="M.04800415 0V.07299805L.23500061 .2619934C.2710012 .297994 .30133567 .32999168 .32600404 .35798646 .3506724 .38599143 .369339 .41349284 .38200379 .44049073 .39466859 .46749879 .40100099 .49700419 .40100099 .52900698 .40100099 .5683339 .3893331 .59816488 .3659973 .61849978 .34266154 .63883468 .31232707 .6490021 .2749939 .6490021 .2403361 .6490021 .20983887 .6430003 .1835022 .6309967 .15716553 .6190033 .1303304 .60233566 .102996829 .58099368L.055999757 .6399994C.08400472 .66333517 .11617025 .6831665 .15249634 .6994934 .1888326 .7158305 .22966512 .723999 .2749939 .723999 .34166465 .723999 .3943329 .7071635 .43299867 .67349246 .47166444 .63983157 .4909973 .59333297 .4909973 .5339966 .4909973 .49666343 .4833323 .4618276 .46800233 .42948915 .45267234 .39716087 .43134056 .36499534 .40400697 .33299256 .37667338 .30099998 .34467063 .2670034 .30799867 .23100281L.15899658 .083999637V.08000183H.5200043V0H.04800415Z"/>
<path id="font_1_3195" d="M.27400209 0 .13900757 .38000489H.050994874V.44999696H.19400025L.30700685 .1210022 .63900759 1.0570068H.7100067L.33900453 0H.27400209Z"/>
<path id="font_1_3844" d="M.050994874 .34199525V.41299439H.5209961V.34199525H.050994874M.050994874 .14300537V.21400452H.5209961V.14300537H.050994874Z"/>
<path id="font_1_1780" d="M.2689972 0V.49899293C.2689972 .52766928 .2693278 .5506694 .269989 .56799319 .2706604 .58532717 .27166239 .60332748 .272995 .621994 .2623342 .61199447 .2526703 .6031596 .2440033 .5954895 .2353363 .5878296 .22433472 .57833358 .21099854 .56700137L.1349945 .5050049 .08900452 .56399539 .28199769 .7140045H.35499574V0H.2689972Z"/>
<path id="font_1_3209" d="M.3560028 0 .13699341 .78100588H.04899597V.8509979H.19799805L.3959961 .12199402 .7740021 1.7810059H.8500061L.43800355 0H.3560028Z"/>
<path id="font_2_1821" d="M.054992677 0V.08999634L.2460022 .27600099C.27933757 .30866496 .3065033 .33649699 .3274994 .35949708 .34849549 .38249717 .36482749 .40283204 .37649537 .4205017 .38816325 .4381714 .39616395 .45516969 .40049745 .47149659 .40483094 .48783366 .40699769 .5053355 .40699769 .5240021 .40699769 .55933126 .39683024 .5858307 .37649537 .60350039 .3561605 .62117007 .32933045 .6300049 .29600526 .6300049 .2626699 .6300049 .2323354 .62350466 .20500183 .61050418 .17766826 .59750369 .14966838 .5803375 .1210022 .55900576L.06300354 .6349945C.09566752 .66232809 .13116455 .6843262 .16949463 .70098879 .20783489 .71766158 .2503357 .7259979 .29699708 .7259979 .36766563 .7259979 .42332969 .70866397 .46398927 .673996 .504659 .639328 .5249939 .5916646 .5249939 .53100588 .5249939 .4943339 .5176595 .460495 .5029907 .42948915 .48833213 .39849345 .4668325 .36732994 .43849183 .33599855 .41016136 .30466715 .3753306 .26966859 .33399964 .23100281L.19900513 .102996829H.522995V0H.054992677Z"/>
<path id="font_1_3212" d="M.3959961 0 .13600159 .9810028H.04800415V1.0509949H.19900513L.44000245 .12199402 .8410034 2.1430054H.91900637L.4880066 0H.3959961Z"/>
<path id="font_1_2084" d="M.30599977-.5200043C.24533081-.44533793 .19532776-.36350505 .1559906-.27450563 .11666361-.18550618 .087498988-.091674808 .068496707 .0069885256 .049494428 .105662029 .039993287 .20633443 .039993287 .30900575 .039993287 .41033427 .049494428 .50949606 .068496707 .6064911 .087498988 .7034963 .11666361 .7960002 .1559906 .8840027 .19532776 .9720052 .24533081 1.0536703 .30599977 1.1289978H.39700318C.31033326 1.0123291 .24533081 .8834941 .20199585 .7424927 .15866089 .60150149 .13699341 .45733644 .13699341 .30999757 .13699341 .16133626 .15882874 .015670777 .20249939-.1269989 .24617005-.26966859 .31066896-.40067039 .3959961-.5200043H.30599977Z"/>
<path id="font_1_2085" d="M.03100586-.5200043C.11567179-.40067039 .18000286-.26966859 .22399903-.1269989 .2679952 .015670777 .2899933 .16133626 .2899933 .30999757 .2899933 .45733644 .26815797 .60150149 .2244873 .7424927 .18082683 .8834941 .115997318 1.0123291 .02999878 1.1289978H.1210022C.18167115 1.0536703 .23166912 .9720052 .2709961 .8840027 .31033326 .7960002 .3394979 .7034963 .35849 .6064911 .37749229 .50949606 .3869934 .41033427 .3869934 .30900575 .3869934 .20633443 .37732444 .105662029 .35798646 .0069885256 .33865867-.091674808 .30949403-.18550618 .27049256-.27450563 .23150127-.36350505 .18167115-.44533793 .1210022-.5200043H.03100586Z"/>
</defs>
<use data-text="&#x221a;" xlink:href="#font_1_3206" transform="matrix(41.510999,0,0,-41.510999,8.304167,81.72916)"/>
<path transform="matrix(4.1666667,0,0,-4.1666667,39.270833,24.29583)" stroke-width=".707" stroke-linecap="butt" stroke-miterlimit="10" stroke-linejoin="miter" fill="none" stroke="#000000" d="M0 0H33.987"/>
<use data-text="3" xlink:href="#font_1_1782" transform="matrix(41.510999,0,0,-41.510999,39.270833,79.612499)"/>
<use data-text="+" xlink:href="#font_1_3840" transform="matrix(41.510999,0,0,-41.510999,72.23057,79.612499)"/>
<use data-text="2" xlink:href="#font_1_1781" transform="matrix(41.510999,0,0,-41.510999,105.1903,79.612499)"/>
<use data-text="&#x221a;" xlink:href="#font_1_3195" transform="matrix(41.510999,0,0,-41.510999,128.95,81.10416)"/>
<path transform="matrix(4.1666667,0,0,-4.1666667,157.1375,38.7)" stroke-width=".707" stroke-linecap="butt" stroke-miterlimit="10" stroke-linejoin="miter" fill="none" stroke="#000000" d="M0 0H5.699"/>
<use data-text="2" xlink:href="#font_1_1781" transform="matrix(41.510999,0,0,-41.510999,157.1375,79.612499)"/>
<use data-text="=" xlink:href="#font_1_3844" transform="matrix(41.510999,0,0,-41.510999,192.38034,79.612499)"/>
<use data-text="&#x221a;" xlink:href="#font_1_3206" transform="matrix(41.510999,0,0,-41.510999,227.6875,81.72916)"/>
<path transform="matrix(4.1666667,0,0,-4.1666667,258.65415,24.29583)" stroke-width=".707" stroke-linecap="butt" stroke-miterlimit="10" stroke-linejoin="miter" fill="none" stroke="#000000" d="M0 0H49.812"/>
<use data-text="1" xlink:href="#font_1_1780" transform="matrix(41.510999,0,0,-41.510999,258.65415,79.612499)"/>
<use data-text="+" xlink:href="#font_1_3840" transform="matrix(41.510999,0,0,-41.510999,291.6139,79.612499)"/>
<use data-text="2" xlink:href="#font_1_1781" transform="matrix(41.510999,0,0,-41.510999,324.57365,79.612499)"/>
<use data-text="&#x221a;" xlink:href="#font_1_3195" transform="matrix(41.510999,0,0,-41.510999,348.33747,81.10416)"/>
<path transform="matrix(4.1666667,0,0,-4.1666667,376.5208,38.7)" stroke-width=".707" stroke-linecap="butt" stroke-miterlimit="10" stroke-linejoin="miter" fill="none" stroke="#000000" d="M0 0H5.699"/>
<use data-text="2" xlink:href="#font_1_1781" transform="matrix(41.510999,0,0,-41.510999,376.5208,79.612499)"/>
<use data-text="+" xlink:href="#font_1_3840" transform="matrix(41.510999,0,0,-41.510999,409.48057,79.612499)"/>
<use data-text="2" xlink:href="#font_1_1781" transform="matrix(41.510999,0,0,-41.510999,442.4403,79.612499)"/>
<use data-text="=" xlink:href="#font_1_3844" transform="matrix(41.510999,0,0,-41.510999,477.72468,79.612499)"/>
<use data-text="&#x221a;" xlink:href="#font_1_3209" transform="matrix(41.510999,0,0,-41.510999,513.0083,85.18333)"/>
<path transform="matrix(4.1666667,0,0,-4.1666667,546.7583,12.724995)" stroke-width=".707" stroke-linecap="butt" stroke-miterlimit="10" stroke-linejoin="miter" fill="none" stroke="#000000" d="M0 0H64.307"/>
<use data-text="1" xlink:href="#font_1_1780" transform="matrix(41.510999,0,0,-41.510999,546.7583,79.612499)"/>
<use data-text="&#x1d7e4;" xlink:href="#font_2_1821" transform="matrix(24.906582,0,0,-24.906582,570.5,67.987499)"/>
<use data-text="+" xlink:href="#font_1_3840" transform="matrix(41.510999,0,0,-41.510999,595.8333,79.612499)"/>
<use data-text="2" xlink:href="#font_1_1781" transform="matrix(41.510999,0,0,-41.510999,628.79299,79.612499)"/>
<use data-text="&#x221a;" xlink:href="#font_1_3195" transform="matrix(41.510999,0,0,-41.510999,652.5458,81.10416)"/>
<path transform="matrix(4.1666667,0,0,-4.1666667,680.73336,38.7)" stroke-width=".707" stroke-linecap="butt" stroke-miterlimit="10" stroke-linejoin="miter" fill="none" stroke="#000000" d="M0 0H5.699"/>
<use data-text="2" xlink:href="#font_1_1781" transform="matrix(41.510999,0,0,-41.510999,680.73336,79.612499)"/>
<use data-text="+" xlink:href="#font_1_3840" transform="matrix(41.510999,0,0,-41.510999,713.693,79.612499)"/>
<use data-text="&#x221a;" xlink:href="#font_1_3195" transform="matrix(41.510999,0,0,-41.510999,746.67086,81.10416)"/>
<path transform="matrix(4.1666667,0,0,-4.1666667,774.8541,38.7)" stroke-width=".707" stroke-linecap="butt" stroke-miterlimit="10" stroke-linejoin="miter" fill="none" stroke="#000000" d="M0 0H5.699"/>
<use data-text="2" xlink:href="#font_1_1781" transform="matrix(41.510999,0,0,-41.510999,774.8541,79.612499)"/>
<use data-text="&#x1d7e4;" xlink:href="#font_2_1821" transform="matrix(24.906582,0,0,-24.906582,798.6,44.24166)"/>
<use data-text="=" xlink:href="#font_1_3844" transform="matrix(41.510999,0,0,-41.510999,826.2374,79.612499)"/>
<use data-text="&#x221a;" xlink:href="#font_1_3212" transform="matrix(41.510999,0,0,-41.510999,861.51248,103.07082)"/>
<path transform="matrix(4.1666667,0,0,-4.1666667,898,15.587496)" stroke-width=".707" stroke-linecap="butt" stroke-miterlimit="10" stroke-linejoin="miter" fill="none" stroke="#000000" d="M0 0H40.662"/>
<use data-text="(" xlink:href="#font_1_2084" transform="matrix(41.510999,0,0,-41.510999,898,80.712497)"/>
<use data-text="1" xlink:href="#font_1_1780" transform="matrix(41.510999,0,0,-41.510999,915.725,79.612499)"/>
<use data-text="+" xlink:href="#font_1_3840" transform="matrix(41.510999,0,0,-41.510999,948.68466,79.612499)"/>
<use data-text="&#x221a;" xlink:href="#font_1_3195" transform="matrix(41.510999,0,0,-41.510999,981.6625,81.10416)"/>
<path transform="matrix(4.1666667,0,0,-4.1666667,1009.8458,38.7)" stroke-width=".707" stroke-linecap="butt" stroke-miterlimit="10" stroke-linejoin="miter" fill="none" stroke="#000000" d="M0 0H5.699"/>
<use data-text="2" xlink:href="#font_1_1781" transform="matrix(41.510999,0,0,-41.510999,1009.8458,79.612499)"/>
<use data-text=")" xlink:href="#font_1_2085" transform="matrix(41.510999,0,0,-41.510999,1033.5916,80.712497)"/>
<use data-text="&#x1d7e4;" xlink:href="#font_2_1821" transform="matrix(24.906582,0,0,-24.906582,1051.3167,43.808328)"/>
<use data-text="=" xlink:href="#font_1_3844" transform="matrix(41.510999,0,0,-41.510999,1078.9541,79.612499)"/>
<use data-text="1" xlink:href="#font_1_1780" transform="matrix(41.510999,0,0,-41.510999,1114.197,79.612499)"/>
<use data-text="+" xlink:href="#font_1_3840" transform="matrix(41.510999,0,0,-41.510999,1147.1984,79.612499)"/>
<use data-text="&#x221a;" xlink:href="#font_1_3195" transform="matrix(41.510999,0,0,-41.510999,1180.1666,81.10416)"/>
<path transform="matrix(4.1666667,0,0,-4.1666667,1208.35,38.7)" stroke-width=".707" stroke-linecap="butt" stroke-miterlimit="10" stroke-linejoin="miter" fill="none" stroke="#000000" d="M0 0H5.699"/>
<use data-text="2" xlink:href="#font_1_1781" transform="matrix(41.510999,0,0,-41.510999,1208.35,79.612499)"/>
</svg>
