<svg xmlns="http://www.w3.org/2000/svg" xmlns:xlink="http://www.w3.org/1999/xlink" version="1.1" width="570.88748pt" height="122.74583pt" viewBox="0 0 570.88748 122.74583">
 <style>
  @media (prefers-color-scheme: dark) {
   use:not([fill]) {
       fill: white;
   }
   path[stroke="#000"] {
    stroke: white;
   }
   path[stroke="#000000"] {
    stroke: white;
   }
   path[color="#000000"] {
    fill: white;
   }
  }
 </style>
<defs>
<path id="font_1_192" d="M.2460022 0 .020004273 .66000369V.7140045H.56100466V.6589966L.33599855 0H.2460022M.29200746 .0980072C.30133567 .132665 .30966697 .163325 .31700135 .18998719 .32433573 .21665955 .33133445 .23966472 .33799745 .2590027L.46499635 .6349945H.119003299L.24499512 .2590027C.2556661 .22833252 .2649994 .19966126 .272995 .17298889 .28100077 .1463267 .28733827 .1213328 .29200746 .0980072Z"/>
<path id="font_1_1036" d="M.083999637-.2400055C.07133484-.2400055 .05966695-.2390035 .04899597-.23699951 .038335165-.23499553 .028671265-.23266094 .020004273-.22999573V-.15600586C.02933248-.15867107 .038330079-.16116841 .04699707-.16349793 .055664064-.1658376 .065333049-.16700745 .07600403-.16700745 .100001018-.16700745 .118662517-.15717061 .13198853-.13749695 .1453247-.11783346 .15599568-.08966573 .16400147-.052993776L.27400209 .46899415H.18099976L.18800354 .5059967 .28799439 .53900149 .29899598 .5870056C.30966697 .6330058 .3228353 .6688385 .33850099 .6945038 .35416667 .72016909 .3736674 .7383321 .39700318 .7489929 .42033897 .7596639 .44833885 .7649994 .4810028 .7649994 .4976654 .7649994 .51483157 .76316329 .5325012 .75949099 .5501709 .75582888 .5643361 .7513326 .57499697 .7460022L.55200198 .67900088C.5426636 .68233749 .53249618 .6855011 .52149966 .6884918 .5105031 .69149276 .4983368 .69299319 .4850006 .69299319 .45899964 .69299319 .43849693 .68565878 .42349244 .67099 .40849815 .65633139 .3963318 .6283366 .3869934 .5870056L.375 .5359955H.4900055L.477005 .46899415H.3619995L.25-.06300354C.2386678-.11833191 .22016907-.16166179 .19450379-.19299317 .1688385-.22433472 .13200379-.2400055 .083999637-.2400055Z"/>
<path id="font_1_1864" d="M.21499634-.15800476C.15499878-.094670619 .11082967-.022669474 .08248901 .057998659 .054158529 .1386668 .039993287 .22233582 .039993287 .30900575 .039993287 .39699809 .054158529 .48199464 .08248901 .56399539 .11082967 .6459961 .15499878 .71932986 .21499634 .7839966H.29800416C.2420044 .7166646 .19983419 .64216616 .17149353 .5605011 .14316304 .47883607 .1289978 .39533488 .1289978 .30999757 .1289978 .226003 .14333089 .14383443 .17199707 .06349182 .20066326-.016840617 .24232991-.09067281 .29699708-.15800476H.21499634Z"/>
<path id="font_1_1056" d="M0 0 .23199463 .27600099 .115997318 .5359955H.20500183L.28799439 .33799745 .44500733 .5359955H.5469971L.32400514 .27200318 .44700624 0H.3580017L.2669983 .20799256 .102005008 0H0Z"/>
<path id="font_2_1820" d="M.27999879 0V.46200563C.27999879 .49067179 .28066508 .51666769 .28199769 .5399933 .2833303 .56332907 .28499858 .58666488 .28700257 .6100006 .27633158 .60000106 .26416017 .5891673 .25048829 .5774994 .23682659 .5658315 .22299703 .55499777 .20899964 .54499819L.119003299 .47999574 .06100464 .56199648 .2769928 .7140045H.397995V0H.27999879Z"/>
<path id="font_1_2749" d="M.041000368-.1289978C.05032857-.09100342 .059824628-.04933675 .069488529-.0039978029 .0791626 .041330976 .08633423 .081329349 .09100342 .115997318H.18499756L.19200135 .10499573C.18333435 .06966654 .17083232 .030838013 .15449524-.011489868 .13816834-.053827924 .12200419-.09299723 .10600281-.1289978H.041000368Z"/>
<path id="font_1_2752" d="M.65600588-.014007568C.63933309-.014007568 .62499496-.008672078 .61299136 .0019989014 .6009979 .012669881 .5950012 .030003867 .5950012 .054000856 .5950012 .07866923 .6009979 .09600321 .61299136 .10600281 .62499496 .1160024 .63933309 .1210022 .65600588 .1210022 .67333987 .1210022 .6881714 .1160024 .7005005 .10600281 .7128296 .09600321 .71899417 .07866923 .71899417 .054000856 .71899417 .030003867 .7128296 .012669881 .7005005 .0019989014 .6881714-.008672078 .67333987-.014007568 .65600588-.014007568M.1329956-.014007568C.11633301-.014007568 .101999919-.008672078 .08999634 .0019989014 .07800293 .012669881 .072006229 .030003867 .072006229 .054000856 .072006229 .07866923 .07800293 .09600321 .08999634 .10600281 .101999919 .1160024 .11633301 .1210022 .1329956 .1210022 .15032959 .1210022 .16516114 .1160024 .17749024 .10600281 .18982952 .09600321 .19599915 .07866923 .19599915 .054000856 .19599915 .030003867 .18982952 .012669881 .17749024 .0019989014 .16516114-.008672078 .15032959-.014007568 .1329956-.014007568M.39500428-.014007568C.3783315-.014007568 .36399333-.008672078 .35198976 .0019989014 .33999635 .012669881 .33399964 .030003867 .33399964 .054000856 .33399964 .07866923 .33999635 .09600321 .35198976 .10600281 .36399333 .1160024 .3783315 .1210022 .39500428 .1210022 .41233827 .1210022 .4271698 .1160024 .4394989 .10600281 .451828 .09600321 .45799256 .07866923 .45799256 .054000856 .45799256 .030003867 .451828 .012669881 .4394989 .0019989014 .4271698-.008672078 .41233827-.014007568 .39500428-.014007568Z"/>
<path id="font_2_1230" d="M.033996583 0 .14900208 .54400637H.25100709L.24099732 .44400025H.2440033C.26400248 .47399903 .28833518 .49983216 .31700135 .52149966 .3456675 .5431671 .3796692 .55400088 .41900636 .55400088 .4650065 .55400088 .49983726 .5405019 .52349856 .513504 .54717 .48650614 .55900576 .4500071 .55900576 .40400697 .55900576 .39067079 .5580037 .3763326 .55599978 .36099244 .5539958 .34566245 .55133059 .33066307 .54800418 .31599427L.4810028 0H.3500061L.41900636 .32499696C.42167155 .33700053 .42367045 .3480021 .42500306 .3580017 .42633567 .3680013 .42700196 .3769989 .42700196 .3849945 .42700196 .42566429 .40766908 .44599916 .3690033 .44599916 .33566795 .44599916 .30516563 .42633058 .27749635 .3869934 .24982707 .3476664 .22832744 .29433695 .21299744 .227005L.16499329 0H.033996583Z"/>
<path id="font_1_1865" d="M.03100586-.15800476C.08633423-.09067281 .12816365-.016840617 .15649414 .06349182 .1848348 .14383443 .19900513 .226003 .19900513 .30999757 .19900513 .39533488 .1848348 .47883607 .15649414 .5605011 .12816365 .64216616 .085998538 .7166646 .02999878 .7839966H.11300659C.17300415 .71932986 .21716817 .6459961 .24549866 .56399539 .27382914 .48199464 .28799439 .39699809 .28799439 .30900575 .28799439 .22233582 .27382914 .1386668 .24549866 .057998659 .21716817-.022669474 .17300415-.094670619 .11300659-.15800476H.03100586Z"/>
<path id="font_1_3844" d="M.050994874 .34199525V.41299439H.5209961V.34199525H.050994874M.050994874 .14300537V.21400452H.5209961V.14300537H.050994874Z"/>
<path id="font_1_2258" d="M.39700318-.8820038C.31566368-.77533468 .24866231-.65783187 .19599915-.52949526 .14333599-.40116883 .104166667-.26616923 .07849121-.12449646 .052825929 .017166138 .039993287 .16166687 .039993287 .30900575 .039993287 .45299784 .05265808 .59365847 .07798767 .73098757 .10332743 .86832687 .1423289 .9996643 .19499207 1.125 .2476654 1.2503357 .31500245 1.3663381 .39700318 1.4730072H.49499513C.41766358 1.3623403 .35282899 1.2438355 .30049134 1.1174927 .24816387 .9911601 .20899964 .85999557 .18299866 .723999 .15699768 .5880025 .14399719 .45000205 .14399719 .30999757 .14399719 .16799927 .1573283 .027333579 .18399048-.11199951 .21066284-.2513326 .25-.38583375 .30200196-.5155029 .3540039-.6451721 .41800437-.76733908 .4940033-.8820038H.39700318Z"/>
<path id="font_1_1140" d="M.22799683-.009994507C.17066448-.009994507 .12683106 .0065053307 .09649658 .039505006 .06616211 .07250468 .050994874 .1203359 .050994874 .18299866 .050994874 .21967061 .05599467 .25550334 .06599426 .29049684 .07599386 .3255005 .09032694 .35733543 .10899353 .3860016 .12766011 .41466777 .14966329 .43766786 .17500305 .45500184 .21299744 .4810028 .256663 .4940033 .30599977 .4940033 .3353373 .4940033 .36150614 .48750306 .38450624 .47450257 .40750633 .46150209 .42633567 .44366966 .44099427 .42100526 .44166566 .42699687 .4421641 .4331614 .44248963 .4394989 .44282533 .4458364 .44299317 .45200096 .44299317 .45799256 .44299317 .5846608 .3983307 .647995 .30900575 .647995 .29033915 .647995 .26950584 .6446635 .24650574 .6380005 .22350566 .63133749 .20233663 .6213379 .18299866 .6080017V.69200137C.20299785 .7013295 .22549439 .7086589 .25048829 .71398928 .27549235 .71932986 .29899598 .7220001 .32099916 .7220001 .3896637 .7220001 .4418284 .6996663 .4774933 .6549988 .51316836 .61033126 .53100588 .5436656 .53100588 .45500184 .53100588 .3983307 .52483627 .3434957 .51249697 .29049684 .50016787 .23749797 .48283387 .18999736 .460495 .147995 .4381663 .10600281 .41200257 .07233683 .38200379 .04699707 .3373362 .009002686 .28600059-.009994507 .22799683-.009994507M.23300171 .06399536C.26367188 .06399536 .2921702 .075663249 .3184967 .09899902 .34483338 .1223348 .36749778 .15416973 .38648988 .19450379 .40549217 .23483785 .4186605 .28033448 .42599488 .33099366 .41933189 .35899864 .40583293 .38183085 .38549806 .39949037 .36516319 .41716004 .34199525 .42599488 .31599427 .42599488 .28199769 .42599488 .2519989 .414327 .22599793 .3909912 .19999695 .36766563 .17949422 .337499 .16448975 .30049134 .14949544 .26349388 .14199829 .22399903 .14199829 .18200684 .14199829 .14467366 .14983113 .11567179 .16549683 .09500122 .18116252 .07433065 .20366414 .06399536 .23300171 .06399536Z"/>
<path id="font_1_2259" d="M.03100586-.8820038C.107666019-.76733908 .17182923-.6451721 .22349549-.5155029 .27516175-.38583375 .31432597-.2513326 .34098817-.11199951 .36766053 .027333579 .3809967 .16799927 .3809967 .30999757 .3809967 .45000205 .36799623 .5880025 .34199525 .723999 .31599427 .85999557 .2769928 .9911601 .22499085 1.1174927 .17299907 1.2438355 .10800171 1.3623403 .02999878 1.4730072H.1289978C.21033733 1.3663381 .27733866 1.2503357 .33000184 1.125 .382665 .9996643 .42166139 .86832687 .44699098 .73098757 .47233073 .59365847 .4850006 .45299784 .4850006 .30900575 .4850006 .16166687 .47216798 .017166138 .4465027-.12449646 .4208374-.26616923 .3816681-.40116883 .32899476-.52949526 .27633158-.65783187 .20933533-.77533468 .12800598-.8820038H.03100586Z"/>
<path id="font_2_948" d="M.14300537 0 .2689972 .602005H.08999634L.11399841 .7140045H.6040039L.58000186 .602005H.40100099L.272995 0H.14300537Z"/>
</defs>
<use data-text="&#x2207;" xlink:href="#font_1_192" transform="matrix(41.510999,0,0,-41.510999,8.304167,77.10416)"/>
<use data-text="&#x1d453;" xlink:href="#font_1_1036" transform="matrix(41.510999,0,0,-41.510999,32.42206,77.10416)"/>
<use data-text="(" xlink:href="#font_1_1864" transform="matrix(41.510999,0,0,-41.510999,57.121107,77.10416)"/>
<use data-text="&#x1d465;" xlink:href="#font_1_1056" transform="matrix(41.510999,0,0,-41.510999,70.73671,77.10416)"/>
<use data-text="&#x1d7e3;" xlink:href="#font_2_1820" transform="matrix(24.906582,0,0,-24.906582,92.32083,85.82083)"/>
<use data-text="," xlink:href="#font_1_2749" transform="matrix(41.510999,0,0,-41.510999,108.424999,77.10416)"/>
<use data-text="&#x2026;" xlink:href="#font_1_2752" transform="matrix(41.510999,0,0,-41.510999,126.440769,77.10416)"/>
<use data-text="," xlink:href="#font_1_2749" transform="matrix(41.510999,0,0,-41.510999,166.20832,77.10416)"/>
<use data-text="&#x1d465;" xlink:href="#font_1_1056" transform="matrix(41.510999,0,0,-41.510999,184.2656,77.10416)"/>
<use data-text="&#x1d62f;" xlink:href="#font_2_1230" transform="matrix(24.906582,0,0,-24.906582,205.85416,85.82083)"/>
<use data-text=")" xlink:href="#font_1_1865" transform="matrix(41.510999,0,0,-41.510999,223.27916,77.10416)"/>
<use data-text="=" xlink:href="#font_1_3844" transform="matrix(41.510999,0,0,-41.510999,248.39333,77.10416)"/>
<use data-text="(" xlink:href="#font_1_2258" transform="matrix(41.510999,0,0,-41.510999,283.69999,77.82916)"/>
<use data-text="&#x1d715;" xlink:href="#font_1_1140" transform="matrix(41.510999,0,0,-41.510999,319.97917,47.879159)"/>
<use data-text="&#x1d453;" xlink:href="#font_1_1036" transform="matrix(41.510999,0,0,-41.510999,344.13856,47.879159)"/>
<path transform="matrix(4.1666667,0,0,-4.1666667,310.47499,65.56249)" stroke-width=".707" stroke-linecap="butt" stroke-miterlimit="10" stroke-linejoin="miter" fill="none" stroke="#000000" d="M0 0H14.844"/>
<use data-text="&#x1d715;" xlink:href="#font_1_1140" transform="matrix(41.510999,0,0,-41.510999,310.47499,105.04166)"/>
<use data-text="&#x1d465;" xlink:href="#font_1_1056" transform="matrix(41.510999,0,0,-41.510999,334.6344,105.04166)"/>
<use data-text="&#x1d7e3;" xlink:href="#font_2_1820" transform="matrix(24.906582,0,0,-24.906582,356.2208,113.75832)"/>
<use data-text="," xlink:href="#font_1_2749" transform="matrix(41.510999,0,0,-41.510999,377.30833,77.10416)"/>
<use data-text="&#x2026;" xlink:href="#font_1_2752" transform="matrix(41.510999,0,0,-41.510999,395.32414,77.10416)"/>
<use data-text="," xlink:href="#font_1_2749" transform="matrix(41.510999,0,0,-41.510999,435.09165,77.10416)"/>
<use data-text="&#x1d715;" xlink:href="#font_1_1140" transform="matrix(41.510999,0,0,-41.510999,468.2958,47.879159)"/>
<use data-text="&#x1d453;" xlink:href="#font_1_1036" transform="matrix(41.510999,0,0,-41.510999,492.4552,47.879159)"/>
<path transform="matrix(4.1666667,0,0,-4.1666667,458.12913,65.56249)" stroke-width=".707" stroke-linecap="butt" stroke-miterlimit="10" stroke-linejoin="miter" fill="none" stroke="#000000" d="M0 0H15.161"/>
<use data-text="&#x1d715;" xlink:href="#font_1_1140" transform="matrix(41.510999,0,0,-41.510999,458.12913,105.04166)"/>
<use data-text="&#x1d465;" xlink:href="#font_1_1056" transform="matrix(41.510999,0,0,-41.510999,482.28855,105.04166)"/>
<use data-text="&#x1d62f;" xlink:href="#font_2_1230" transform="matrix(24.906582,0,0,-24.906582,503.87498,113.75832)"/>
<use data-text=")" xlink:href="#font_1_2259" transform="matrix(41.510999,0,0,-41.510999,526.2791,77.82916)"/>
<use data-text="&#x1d61b;" xlink:href="#font_2_948" transform="matrix(24.906582,0,0,-24.906582,548.07498,26.087494)"/>
</svg>
