<svg xmlns="http://www.w3.org/2000/svg" xmlns:xlink="http://www.w3.org/1999/xlink" version="1.1" width="179.75832pt" height="54.483335pt" viewBox="0 0 179.75832 54.483335">
 <style>
  @media (prefers-color-scheme: dark) {
   use:not([fill]) {
       fill: white;
   }
   path[stroke="#000"] {
    stroke: white;
   }
   path[stroke="#000000"] {
    stroke: white;
   }
   path[color="#000000"] {
    fill: white;
   }
  }
 </style>
<defs>
<path id="font_1_1031" d="M.19700623-.009994507C.14900208-.009994507 .11150106 .0035044354 .084503177 .03050232 .05750529 .057500204 .044006349 .09033203 .044006349 .1289978 .044006349 .17366536 .057337446 .20966594 .083999637 .23699951 .11066183 .2643331 .14615886 .28466288 .19049073 .2979889 .23483277 .31132508 .28367106 .31866456 .33700563 .32000733L.42900086 .32299806 .43600465 .35499574C.43733726 .3603363 .43833415 .3663381 .43899537 .3730011 .43966676 .3796641 .44000245 .3886617 .44000245 .3999939 .44000245 .42133586 .43200175 .43900553 .41600038 .45300294 .399999 .46700035 .3746643 .47399903 .33999635 .47399903 .32333375 .47399903 .3001658 .47183229 .27049256 .46749879 .24082947 .46316529 .20700073 .45166526 .16900635 .43299867L.1499939 .49499513C.17866008 .5123291 .210495 .5249939 .24549866 .5329895 .28050233 .5409953 .31366984 .54499819 .34500123 .54499819 .3876648 .54499819 .42216493 .5384979 .4485016 .52549746 .47483827 .51249697 .49417115 .49499513 .50650027 .47299195 .51882937 .45099894 .5249939 .42666627 .5249939 .3999939 .5249939 .3853353 .5243276 .37250266 .522995 .36149598 .5216624 .35049949 .5196635 .3393351 .5169983 .32800294L.44599916 0H.38200379L.3809967 .07600403H.3769989C.34766136 .046666463 .31932578 .024998984 .2919922 .011001587 .2646688-.0029958089 .23300679-.009994507 .19700623-.009994507M.21400452 .06100464C.2446645 .06100464 .27349345 .06916809 .30049134 .085494998 .3274994 .10183207 .35066734 .12283325 .36999513 .14849854 .3893331 .17416382 .40200297 .20099895 .40800477 .2290039L.4149933 .2619934 .3350067 .2590027C.29767356 .25767008 .26383973 .2530009 .23350525 .24499512 .20317078 .23699951 .1791687 .22433472 .16149903 .20700073 .14382935 .18966675 .1349945 .16600037 .1349945 .13600159 .1349945 .11399841 .14249166 .09599813 .15748596 .08200073 .17249044 .068003337 .19132996 .06100464 .21400452 .06100464Z"/>
<path id="font_2_1215" d="M.20399475-.009994507C.17066956-.009994507 .14250691-.0031636556 .119506839 .010498047 .09650675 .024169922 .07917277 .042170209 .06750488 .0644989 .055836996 .08683777 .05000305 .1110026 .05000305 .13699341 .05000305 .18032837 .06216939 .21616109 .086502078 .24449158 .110834758 .27283225 .14433289 .2941691 .18699646 .3085022 .22967021 .3228353 .27833558 .33066813 .33299256 .33200074L.42900086 .3350067 .43499757 .3619995C.43700157 .3713379 .43800355 .3813375 .43800355 .3919983 .43800355 .43400065 .41033427 .45500184 .35499574 .45500184 .30633036 .45500184 .2513326 .44166566 .19000244 .4149933L.16499329 .5039978C.19633484 .5199992 .22917176 .5323334 .26350404 .54100039 .2978363 .54966738 .33333335 .55400088 .36999513 .55400088 .43332926 .55400088 .48182679 .5405019 .5154877 .513504 .54915878 .48650614 .56599429 .44833885 .56599429 .39900209 .56599429 .37633769 .5629985 .3523356 .55700686 .32699586L.4869995 0H.39500428L.3860016 .07499695H.38200379C.36533103 .057662965 .34882609 .042663576 .332489 .02999878 .3161621 .017333985 .29799906 .007502238 .27799989 .00050354006 .2580007-.0064951579 .23333232-.009994507 .20399475-.009994507M.24899292 .087005618C.2730001 .087005618 .2958374 .09350586 .31750489 .10650635 .33917237 .119506839 .3580017 .13667298 .37399293 .15800476 .3899943 .17933655 .40066529 .20200093 .40600587 .22599793L.41200257 .25500489 .34700013 .25300599C.30032859 .25167338 .26132713 .24250286 .22999573 .22549439 .19866435 .2084961 .18299866 .18166606 .18299866 .14500427 .18299866 .1303355 .1884969 .116999309 .19949341 .10499573 .21050008 .09300232 .22699993 .087005618 .24899292 .087005618Z"/>
<path id="font_3_1275" d="M.22999573-.009994507C.19599915-.009994507 .16750081-.0028279622 .14450073 .011505127 .12150065 .025838217 .104166667 .044336957 .09249878 .06700134 .080830898 .08966573 .07499695 .11399841 .07499695 .13999939 .07499695 .18333435 .08666483 .21916707 .11000061 .24749756 .13333638 .27582804 .16600037 .29732768 .20799256 .31199647 .24999492 .32666526 .29899598 .33466593 .35499574 .33599855L.45199586 .33900453 .45700074 .3639984C.45900474 .3733368 .4600067 .3816732 .4600067 .38900758 .4600067 .42833457 .43467204 .44799806 .3840027 .44799806 .3580017 .44799806 .3315023 .44433085 .3045044 .43699647 .2775065 .42966209 .24966939 .41999818 .22099304 .40800477L.19400025 .5070038C.226003 .5223338 .2590027 .5345001 .29299928 .5435028 .32699586 .5525055 .36332704 .55700686 .4019928 .55700686 .46466575 .55700686 .5140025 .5438385 .55000308 .51750186 .5860036 .49116517 .6040039 .45166526 .6040039 .39900209 .6040039 .3776703 .601003 .35333763 .5950012 .32600404L.526001 0H.42300416L.41099549 .07400513H.40699769C.3909963 .058003744 .37549339 .04366557 .3604889 .0309906 .3454946 .018325806 .32783 .008326213 .30749513 .0009918213 .28716026-.0063323976 .26132713-.009994507 .22999573-.009994507M.28500367 .09700012C.30633546 .09700012 .32700096 .10283407 .34700013 .11450195 .3669993 .12616985 .38433329 .14183553 .39900209 .16149903 .41367088 .18116252 .42333476 .20233155 .42799378 .2250061L.43400575 .25300599 .37399293 .25100709C.33066813 .2496643 .29483543 .24066162 .26649476 .22399903 .23816426 .20733643 .22399903 .18233745 .22399903 .14900208 .22399903 .13633728 .22883098 .12450155 .23849488 .11349487 .24816895 .102498378 .26367188 .09700012 .28500367 .09700012Z"/>
</defs>
<use data-text="&#x1d44e;" xlink:href="#font_1_1031" transform="matrix(41.510999,0,0,-41.510999,8.304167,45.766668)"/>
<use data-text="&#x1d622;" xlink:href="#font_2_1215" transform="matrix(24.906582,0,0,-24.906582,31.879166,29.575)"/>
<use data-text="&#x1d622;" xlink:href="#font_3_1275" transform="matrix(20.755499,0,0,-20.755499,47.220834,19.862504)"/>
<use data-text="&#x1d44e;" xlink:href="#font_1_1031" transform="matrix(41.510999,0,0,-41.510999,119.28749,45.766668)"/>
<use data-text="&#x1d44e;" xlink:href="#font_1_1031" transform="matrix(24.906582,0,0,-24.906582,142.86249,29.575)"/>
<use data-text="&#x1d44e;" xlink:href="#font_1_1031" transform="matrix(20.755499,0,0,-20.755499,157.01248,19.862504)"/>
</svg>
