<?xml version="1.0" encoding="UTF-8"?>
<svg width="420pt" height="145pt" version="1.1" viewBox="0 0 420 145" xmlns="http://www.w3.org/2000/svg" xmlns:xlink="http://www.w3.org/1999/xlink">
 <style>
  @media (prefers-color-scheme: dark) {
   use:not([fill]) {
       fill: white;
   }
   path[stroke="#000"] {
    stroke: white;
   }
   path[stroke="#000000"] {
    stroke: white;
   }
   path[color="#000000"] {
    fill: white;
   }
  }
 </style>
 <defs>
  <path id="a" d="m0.19701-0.0099945c-0.048004 0-0.085505 0.013499-0.1125 0.040497-0.026998 0.026998-0.040497 0.05983-0.040497 0.098495 0 0.044668 0.013331 0.080668 0.039993 0.108 0.026662 0.027334 0.062159 0.047663 0.10649 0.060989 0.044342 0.013336 0.09318 0.020676 0.14651 0.022018l0.091995 0.002991 0.007004 0.031998c0.001333 0.005341 0.002329 0.011342 0.002991 0.018005 6.7139e-4 0.006663 0.001007 0.015661 0.001007 0.026993 0 0.021342-0.008001 0.039012-0.024002 0.053009-0.016001 0.013997-0.041336 0.020996-0.076004 0.020996-0.016663 0-0.039831-0.002167-0.069504-0.0065-0.029663-0.004333-0.063492-0.015834-0.10149-0.0345l-0.019012 0.061996c0.028666 0.017334 0.060501 0.029999 0.095505 0.037994 0.035004 0.008006 0.068171 0.012009 0.099503 0.012009 0.042664 0 0.077164-0.0065 0.1035-0.019501 0.026337-0.013 0.04567-0.030502 0.057999-0.052506 0.012329-0.021993 0.018494-0.046326 0.018494-0.072998 0-0.014659-6.663e-4 -0.027491-0.001999-0.038498-0.001333-0.010996-0.003332-0.022161-0.005997-0.033493l-0.070999-0.328h-0.063995l-0.0010071 0.076004h-0.0039978c-0.029338-0.029338-0.057673-0.051005-0.085007-0.065002-0.027323-0.013997-0.058985-0.020996-0.094986-0.020996m0.016998 0.070999c0.03066 0 0.059489 0.0081635 0.086487 0.02449 0.027008 0.016337 0.050176 0.037338 0.069504 0.063004 0.019338 0.025665 0.032008 0.0525 0.03801 0.080505l0.006989 0.03299-0.079987-0.002991c-0.037333-0.001333-0.071167-0.006002-0.1015-0.014008-0.030334-0.007996-0.054337-0.02066-0.072006-0.037994-0.01767-0.017334-0.026504-0.041-0.026504-0.070999 0-0.022003 0.007497-0.040003 0.022492-0.054001 0.015004-0.013997 0.033844-0.020996 0.056518-0.020996z"/>
  <path id="b" d="m0.269-0.0099945c-0.036001 0-0.06517 0.0091654-0.087509 0.027496-0.022329 0.018331-0.038823 0.039831-0.049484 0.064499h-0.0050049l-0.033005-0.082001h-0.065994l0.161 0.75999h0.087997l-0.037994-0.17999c-0.004669-0.022664-0.009837-0.04483-0.015503-0.066498-0.005666-0.021667-0.010498-0.039668-0.014496-0.054001-0.003998-0.014333-0.006332-0.022166-0.007004-0.023498h0.003998c0.024007 0.029327 0.050176 0.054825 0.078506 0.076492 0.02833 0.021667 0.061162 0.032501 0.098496 0.032501 0.044006 0 0.079508-0.015335 0.10651-0.046005 0.026998-0.03066 0.040497-0.075989 0.040497-0.13599 0-0.048676-0.006002-0.095347-0.018005-0.14001-0.011993-0.044657-0.029327-0.084488-0.052002-0.11949-0.022664-0.035004-0.049998-0.062673-0.082001-0.083008-0.031993-0.020325-0.068324-0.030487-0.10899-0.030487m-0.007004 0.072998c0.026672 0 0.051005 0.0084991 0.072998 0.025497 0.022003 0.016998 0.040838 0.039831 0.056503 0.068497 0.015666 0.028666 0.027664 0.061 0.035996 0.097 0.008341 0.036001 0.012512 0.072668 0.012512 0.11 0 0.072001-0.028336 0.108-0.085007 0.108-0.021993 0-0.04449-0.008169-0.06749-0.024506-0.023-0.016327-0.044169-0.038661-0.063507-0.067001-0.019328-0.02833-0.034826-0.060496-0.046494-0.096497s-0.017502-0.073664-0.017502-0.11299c0-0.032003 0.008331-0.058004 0.024994-0.078003 0.016673-0.019999 0.042338-0.029999 0.076996-0.029999z"/>
  <path id="e" d="m0.084-0.24001c-0.012665 0-0.024333 0.001002-0.035004 0.003006-0.010661 0.002004-0.020325 0.004339-0.028992 0.007004v0.07399c0.0093282-0.002665 0.018326-0.005163 0.026993-0.007492 0.008667-0.00234 0.018336-0.00351 0.029007-0.00351 0.023997 0 0.042658 0.009837 0.055984 0.02951 0.013336 0.019664 0.024007 0.047831 0.032013 0.084503l0.11 0.52199h-0.093002l0.007004 0.037002 0.099991 0.033005 0.011002 0.048004c0.010671 0.046 0.023839 0.081833 0.039505 0.1075s0.035166 0.043828 0.058502 0.054489c0.023336 0.010671 0.051336 0.016006 0.084 0.016006 0.016663 0 0.033829-0.001836 0.051498-0.005508 0.01767-0.003662 0.031835-0.008158 0.042496-0.013489l-0.022995-0.067001c-0.009338 0.003337-0.019506 0.0065-0.030502 0.009491-0.010997 0.003001-0.023163 0.004501-0.036499 0.004501-0.026001 0-0.046504-0.007334-0.061508-0.022003-0.014994-0.014659-0.027161-0.042653-0.036499-0.083984l-0.011993-0.05101h0.11501l-0.013-0.067001h-0.11501l-0.112-0.532c-0.011332-0.055328-0.029831-0.098658-0.055496-0.12999-0.025665-0.031342-0.0625-0.047012-0.1105-0.047012z"/>
  <path id="i" d="m0.054993 0v0.089996l0.19101 0.186c0.033335 0.032664 0.060501 0.060496 0.081497 0.083496s0.037328 0.043335 0.048996 0.061005c0.011668 0.01767 0.019669 0.034668 0.024002 0.050995 0.004333 0.016337 0.0065 0.033839 0.0065 0.052506 0 0.035329-0.010168 0.061829-0.030502 0.079498-0.020335 0.01767-0.047165 0.026504-0.08049 0.026504-0.033335 0-0.06367-0.0065-0.091003-0.019501-0.027333-0.013-0.055333-0.030167-0.084-0.051498l-0.057999 0.075989c0.032664 0.027334 0.068161 0.049332 0.10649 0.065994 0.03834 0.016673 0.080841 0.025009 0.1275 0.025009 0.070668 0 0.12633-0.017334 0.16699-0.052002 0.04067-0.034668 0.061005-0.082331 0.061005-0.14299 0-0.036672-0.0073344-0.070511-0.022003-0.10152-0.014659-0.030996-0.036158-0.062159-0.064499-0.093491-0.02833-0.031331-0.063161-0.06633-0.10449-0.105l-0.13499-0.12801h0.32399v-0.103z"/>
  <path id="h" d="m0.55901 0h-0.517v0.101l0.19299 0.186c0.036662 0.036001 0.066325 0.066167 0.088989 0.0905 0.022675 0.024333 0.039342 0.046829 0.050003 0.06749 0.010671 0.020671 0.016006 0.042674 0.016006 0.06601 0 0.03067-0.009165 0.053334-0.027496 0.067993-0.018331 0.014669-0.04183 0.022003-0.070496 0.022003-0.028676 0-0.056514-0.0065-0.083511-0.019501-0.026998-0.013-0.055496-0.031499-0.085495-0.055496l-0.082001 0.095001c0.021332 0.017334 0.043996 0.033834 0.067993 0.0495 0.024007 0.015666 0.051844 0.028498 0.083511 0.038498 0.031667 0.01 0.068832 0.014999 0.1115 0.014999 0.048004 0 0.089335-0.008336 0.12399-0.025009 0.034668-0.016663 0.061503-0.039495 0.080505-0.068497 0.019002-0.028992 0.028503-0.062154 0.028503-0.099487 0-0.041341-0.008169-0.078512-0.024506-0.11151-0.016327-0.033-0.039826-0.065501-0.070496-0.097504-0.03067-0.031993-0.068003-0.067322-0.112-0.10599l-0.098999-0.087997v-0.005005h0.328z"/>
  <marker id="g" overflow="visible" markerHeight="1" markerWidth="1" orient="auto" preserveAspectRatio="xMidYMid" viewBox="0 0 1 1">
   <g transform="scale(.6)">
    <path d="m0-40"/>
    <path d="m0 0 8 5v-10z" fill="context-stroke" fill-rule="evenodd"/>
    <path d="m0-8v48" fill="none" stroke="context-stroke" stroke-linecap="square"/>
   </g>
  </marker>
  <marker id="f" overflow="visible" markerHeight="1" markerWidth="1" orient="auto" preserveAspectRatio="xMidYMid" viewBox="0 0 1 1">
   <g transform="scale(.6)">
    <path d="m0-40"/>
    <path d="m0 0-8 5v-10z" fill="context-stroke" fill-rule="evenodd"/>
    <path d="m0-8v48" fill="none" stroke="context-stroke" stroke-linecap="square"/>
   </g>
  </marker>
  <marker id="d" overflow="visible" markerHeight="1" markerWidth="1" orient="auto" preserveAspectRatio="xMidYMid" viewBox="0 0 1 1">
   <g transform="scale(.6)">
    <path d="m0-40"/>
    <path d="m0 0 8 5v-10z" fill="context-stroke" fill-rule="evenodd"/>
    <path d="m0-8v48" fill="none" stroke="context-stroke" stroke-linecap="square"/>
   </g>
  </marker>
  <marker id="c" overflow="visible" markerHeight="1" markerWidth="1" orient="auto" preserveAspectRatio="xMidYMid" viewBox="0 0 1 1">
   <g transform="scale(.6)">
    <path d="m0-40"/>
    <path d="m0 0-8 5v-10z" fill="context-stroke" fill-rule="evenodd"/>
    <path d="m0-8v48" fill="none" stroke="context-stroke" stroke-linecap="square"/>
   </g>
  </marker>
 </defs>
 <use transform="matrix(41.511 0 0 -41.511 126.8 85.425)" data-text="ð‘Ž" xlink:href="#a"/>
 <use transform="matrix(41.511 0 0 -41.511 155.59 56.2)" data-text="ð‘Ž" xlink:href="#a"/>
 <use transform="matrix(41.511 0 0 -41.511 155.36 113.36)" data-text="ð‘" xlink:href="#b"/>
 <use transform="matrix(41.511 0 0 -41.511 189.36 56.2)" data-text="ð‘Ž" xlink:href="#a"/>
 <use transform="matrix(41.511 0 0 -41.511 212.94 56.2)" data-text="ð‘“" xlink:href="#e"/>
 <use transform="matrix(41.511 0 0 -41.511 198.47 113.36)" data-text="ð‘" xlink:href="#b"/>
 <use transform="matrix(41.511 0 0 -41.511 241.58 55.058)" data-text="ð‘Ž" xlink:href="#a"/>
 <use transform="matrix(41.511 0 0 -41.511 265.16 55.058)" data-text="ð‘“" xlink:href="#e"/>
 <use transform="matrix(24.907 0 0 -24.907 283.84 63.775)" data-text="ðŸ¤" xlink:href="#i"/>
 <use transform="matrix(20.755 0 0 -20.755 298.28 69.008)" data-text="ðŸ¤" xlink:href="#h"/>
 <use transform="matrix(41.511 0 0 -41.511 265.49 114.5)" data-text="ð‘" xlink:href="#b"/>
 <path d="m124.53 85.016h187.63" fill="none" stroke="#fc96ff" stroke-miterlimit="10" stroke-opacity=".67843" stroke-width=".82917"/>
 <path d="m167.09 85.594v27.658" fill="none" marker-end="url(#f)" marker-start="url(#g)" stroke="#0096ff" stroke-width=".5"/>
 <text x="74.730011" y="85.310463" fill="#fc96ff" font-family="'Noto Sans'" font-size="12px" stroke-width=".75" style="line-height:1.25" xml:space="preserve"><tspan x="74.730011" y="85.310463" fill="#fc96ff" font-family="'Noto Sans'" font-size="12px" stroke-width=".75">baseline</tspan></text>
 <g fill="none">
  <path d="m157.53 112.96h126.13" stroke="#fc96ff" stroke-miterlimit="10" stroke-opacity=".67843" stroke-width=".82917"/>
  <path d="m200.55 56.33v28.956" marker-end="url(#c)" marker-start="url(#d)" stroke="#0096ff" stroke-width=".5"/>
  <path d="m292.05 69.156v13.657" marker-end="url(#c)" marker-start="url(#d)" stroke="#0096ff" stroke-width=".5"/>
 </g>
 <g fill="#0098ff" font-family="'Noto Sans'" font-size="10px" stroke-width=".75">
  <text x="203.82993" y="13.650002" text-anchor="end" style="line-height:1.25" xml:space="preserve"><tspan x="203.82993" y="13.650002" text-align="end">stackTopShiftUp<tspan x="24.939957" y="13.650002" fill="#0098ff" font-family="'Noto Sans'" font-size="10px" stroke-width=".75" text-align="end" text-anchor="end"/></tspan><tspan x="203.82993" y="26.150002" text-align="end">stackTopDisplayStyleShiftUp</tspan></text>
  <text x="297.60001" y="81.900002" style="line-height:1.25" xml:space="preserve"><tspan x="297.60001" y="81.900002">stackGapMin</tspan><tspan x="297.60001" y="94.400002">stackDisplayStyleGapMin</tspan></text>
  <text x="169.99992" y="123.9" text-anchor="end" style="line-height:1.25" xml:space="preserve"><tspan x="169.99992" y="123.9" text-align="end">stackBottomShiftDown</tspan><tspan x="169.99991" y="136.39999" text-align="end">stackBottomDisplayStyleShiftDown</tspan></text>
 </g>
</svg>
