<?xml version="1.0" encoding="UTF-8"?>
<svg width="440pt" height="85pt" version="1.1" viewBox="0 0 440 85" xmlns="http://www.w3.org/2000/svg" xmlns:xlink="http://www.w3.org/1999/xlink">
 <style>
  @media (prefers-color-scheme: dark) {
   use:not([fill]) {
       fill: white;
   }
   path[stroke="#000"] {
    stroke: white;
   }
   path[stroke="#000000"] {
    stroke: white;
   }
   path[color="#000000"] {
    fill: white;
   }
  }
 </style>
 <defs>
  <path id="q" d="m0.19701-0.0099945c-0.048004 0-0.085505 0.013499-0.1125 0.040497-0.026998 0.026998-0.040497 0.05983-0.040497 0.098495 0 0.044668 0.013331 0.080668 0.039993 0.108 0.026662 0.027334 0.062159 0.047663 0.10649 0.060989 0.044342 0.013336 0.09318 0.020676 0.14651 0.022018l0.091995 0.002991 0.007004 0.031998c0.001333 0.005341 0.002329 0.011342 0.002991 0.018005 6.7139e-4 0.006663 0.001007 0.015661 0.001007 0.026993 0 0.021342-0.008001 0.039012-0.024002 0.053009-0.016001 0.013997-0.041336 0.020996-0.076004 0.020996-0.016663 0-0.039831-0.002167-0.069504-0.0065-0.029663-0.004333-0.063492-0.015834-0.10149-0.0345l-0.019012 0.061996c0.028666 0.017334 0.060501 0.029999 0.095505 0.037994 0.035004 0.008006 0.068171 0.012009 0.099503 0.012009 0.042664 0 0.077164-0.0065 0.1035-0.019501 0.026337-0.013 0.04567-0.030502 0.057999-0.052506 0.012329-0.021993 0.018494-0.046326 0.018494-0.072998 0-0.014659-6.663e-4 -0.027491-0.001999-0.038498-0.001333-0.010996-0.003332-0.022161-0.005997-0.033493l-0.070999-0.328h-0.063995l-0.0010071 0.076004h-0.0039978c-0.029338-0.029338-0.057673-0.051005-0.085007-0.065002-0.027323-0.013997-0.058985-0.020996-0.094986-0.020996m0.016998 0.070999c0.03066 0 0.059489 0.0081635 0.086487 0.02449 0.027008 0.016337 0.050176 0.037338 0.069504 0.063004 0.019338 0.025665 0.032008 0.0525 0.03801 0.080505l0.006989 0.03299-0.079987-0.002991c-0.037333-0.001333-0.071167-0.006002-0.1015-0.014008-0.030334-0.007996-0.054337-0.02066-0.072006-0.037994-0.01767-0.017334-0.026504-0.041-0.026504-0.070999 0-0.022003 0.007497-0.040003 0.022492-0.054001 0.015004-0.013997 0.033844-0.020996 0.056518-0.020996z"/>
  <path id="n" d="m0.20399-0.0099945c-0.033325 0-0.061488 0.0068308-0.084488 0.020493-0.023 0.013672-0.040334 0.031672-0.052002 0.054001-0.011668 0.022339-0.017502 0.046504-0.017502 0.072495 0 0.043335 0.012166 0.079168 0.036499 0.1075 0.024333 0.028341 0.057831 0.049678 0.10049 0.064011 0.042674 0.014333 0.091339 0.022166 0.146 0.023498l0.096008 0.003006 0.005997 0.026993c0.002004 0.009338 0.003006 0.019338 0.003006 0.029999 0 0.042002-0.027669 0.063004-0.083008 0.063004-0.048665 0-0.10366-0.013336-0.16499-0.040008l-0.025009 0.089004c0.031342 0.016001 0.064178 0.028336 0.098511 0.037003s0.069829 0.013 0.10649 0.013c0.063334 0 0.11183-0.013499 0.14549-0.040497 0.033671-0.026998 0.050507-0.065165 0.050507-0.1145 0-0.022664-0.002996-0.046666-0.008987-0.072006l-0.070008-0.327h-0.091995l-0.009003 0.074997h-0.003998c-0.016672-0.017334-0.033177-0.032333-0.049514-0.044998-0.016327-0.012665-0.03449-0.022497-0.054489-0.029495-0.019999-0.0069987-0.044668-0.010498-0.074005-0.010498m0.044998 0.097c0.024007 0 0.046844 0.0065002 0.068512 0.019501 0.021668 0.013 0.040497 0.030167 0.056488 0.051498 0.016001 0.021332 0.026672 0.043996 0.032013 0.067993l0.005997 0.029007-0.065002-0.001999c-0.046672-0.001333-0.085673-0.010503-0.117-0.027512-0.031331-0.016998-0.046997-0.043828-0.046997-0.08049 0-0.014669 0.005498-0.028005 0.016495-0.040008 0.011007-0.011993 0.027506-0.01799 0.049499-0.01799z"/>
  <path id="g" d="m0.24699 0.050995v0.18401h-0.179v0.085999h0.179v0.18401h0.085998v-0.18401h0.179v-0.085999h-0.179v-0.18401z"/>
  <path id="m" d="m0.30701-0.0099945c-0.034668 0-0.063004 0.0078328-0.085007 0.023499s-0.038671 0.035497-0.050003 0.059494h-0.003998l-0.031006-0.072998h-0.097992l0.161 0.75999h0.129l-0.031998-0.153c-0.0033264-0.016001-0.0074921-0.033503-0.012497-0.052505-0.0050049-0.018992-0.01001-0.036825-0.015015-0.053497-0.0049947-0.016663-0.0091553-0.029994-0.012482-0.039993h0.003998c0.019328 0.024668 0.040324 0.046168 0.062988 0.064499 0.022675 0.018331 0.051346 0.027496 0.086014 0.027496 0.027995 0 0.053492-0.006668 0.076492-0.020004 0.023-0.013326 0.041499-0.034159 0.055496-0.0625 0.014008-0.02833 0.021011-0.065496 0.021011-0.1115 0-0.045329-0.006002-0.089996-0.018005-0.134-0.012004-0.043996-0.02917-0.083664-0.051499-0.119-0.022329-0.035329-0.049164-0.063492-0.080505-0.084488-0.031331-0.020996-0.066661-0.031494-0.10599-0.031494m-0.019012 0.105c0.020671 0 0.039673 0.0074972 0.057007 0.022491 0.017334 0.015004 0.032501 0.035004 0.045502 0.059998 0.013 0.025004 0.023168 0.053004 0.030502 0.084 0.007334 0.031006 0.011002 0.062174 0.011002 0.093506 0 0.06134-0.023672 0.09201-0.071014 0.09201-0.023326 0-0.044322-0.008504-0.062988-0.025513-0.018666-0.016998-0.034668-0.038834-0.048004-0.065506-0.013336-0.026662-0.023504-0.054993-0.030502-0.084991-0.006999-0.029999-0.010498-0.057663-0.010498-0.082993 0-0.028005 0.006831-0.050507 0.020493-0.067505 0.013672-0.016998 0.033173-0.025497 0.058502-0.025497z"/>
  <path id="f" d="m0.067993 0.32899v0.085007h0.444v-0.085007h-0.444m0-0.187v0.085998h0.444v-0.085998z"/>
  <path id="l" d="m0.269-0.0099945c-0.037994 0-0.072327 0.0068308-0.103 0.020493-0.03067 0.013672-0.05484 0.035339-0.07251 0.065002-0.01766 0.029663-0.026489 0.068161-0.026489 0.11549 0 0.048676 0.0063324 0.094844 0.018997 0.1385 0.012665 0.043671 0.031331 0.082169 0.056 0.11549 0.024668 0.033335 0.054835 0.059667 0.0905 0.078995 0.035665 0.019338 0.076167 0.029007 0.12151 0.029007 0.029327 0 0.056493-0.002833 0.081497-0.008499s0.048503-0.013499 0.070496-0.023498l-0.039001-0.099991c-0.016663 0.006663-0.033661 0.01266-0.050995 0.01799-0.017334 0.005341-0.036667 0.008011-0.057999 0.008011-0.032664 0-0.061-0.011836-0.085007-0.035507-0.023997-0.023661-0.042328-0.054326-0.054993-0.091995-0.012665-0.037669-0.018997-0.077504-0.018997-0.11951 0-0.033997 0.008163-0.059998 0.02449-0.078003 0.016337-0.017995 0.039505-0.026993 0.069504-0.026993 0.023997 0 0.046494 0.0036672 0.06749 0.011002 0.021006 0.007334 0.042511 0.016332 0.064514 0.026993v-0.106c-0.021332-0.011332-0.044668-0.02033-0.070007-0.026993-0.02533-0.006663-0.053996-0.0099945-0.085999-0.0099945z"/>
  <path id="a" d="m0 0.243v0.070999h0.658v-0.070999z"/>
  <path id="h" d="m0.69 0.082993h-0.057007c0.032674 0.07134 0.064677 0.12467 0.096008 0.16h-0.729v0.070999h0.729c-0.032003 0.035339-0.064006 0.088343-0.096008 0.15901h0.057007c0.035329-0.04067 0.071325-0.076172 0.10799-0.10651 0.036672-0.030334 0.07401-0.055166 0.11201-0.074493v-0.028c-0.038005-0.019338-0.075343-0.044006-0.11201-0.074005-0.036662-0.029999-0.072657-0.065669-0.10799-0.10701z"/>
  <path id="p" d="m0.269-0.0099945c-0.036001 0-0.06517 0.0091654-0.087509 0.027496-0.022329 0.018331-0.038823 0.039831-0.049484 0.064499h-0.0050049l-0.033005-0.082001h-0.065994l0.161 0.75999h0.087997l-0.037994-0.17999c-0.004669-0.022664-0.009837-0.04483-0.015503-0.066498-0.005666-0.021667-0.010498-0.039668-0.014496-0.054001-0.003998-0.014333-0.006332-0.022166-0.007004-0.023498h0.003998c0.024007 0.029327 0.050176 0.054825 0.078506 0.076492 0.02833 0.021667 0.061162 0.032501 0.098496 0.032501 0.044006 0 0.079508-0.015335 0.10651-0.046005 0.026998-0.03066 0.040497-0.075989 0.040497-0.13599 0-0.048676-0.006002-0.095347-0.018005-0.14001-0.011993-0.044657-0.029327-0.084488-0.052002-0.11949-0.022664-0.035004-0.049998-0.062673-0.082001-0.083008-0.031993-0.020325-0.068324-0.030487-0.10899-0.030487m-0.007004 0.072998c0.026672 0 0.051005 0.0084991 0.072998 0.025497 0.022003 0.016998 0.040838 0.039831 0.056503 0.068497 0.015666 0.028666 0.027664 0.061 0.035996 0.097 0.008341 0.036001 0.012512 0.072668 0.012512 0.11 0 0.072001-0.028336 0.108-0.085007 0.108-0.021993 0-0.04449-0.008169-0.06749-0.024506-0.023-0.016327-0.044169-0.038661-0.063507-0.067001-0.019328-0.02833-0.034826-0.060496-0.046494-0.096497s-0.017502-0.073664-0.017502-0.11299c0-0.032003 0.008331-0.058004 0.024994-0.078003 0.016673-0.019999 0.042338-0.029999 0.076996-0.029999z"/>
  <path id="k" d="m0.21899-0.0099945c-0.026662 0-0.051661 0.006663-0.074997 0.019989-0.023336 0.013336-0.042002 0.03417-0.056 0.0625-0.013997 0.028341-0.020996 0.065511-0.020996 0.11151 0 0.046 0.0059967 0.09083 0.01799 0.13449 0.012004 0.043671 0.02917 0.083171 0.051498 0.1185 0.022339 0.035339 0.049342 0.063507 0.081009 0.084503 0.031667 0.020996 0.067169 0.031494 0.10651 0.031494 0.033325 0 0.059657-0.008169 0.078995-0.024506 0.019338-0.016327 0.035339-0.036158 0.048004-0.059494h0.003998c6.6123e-4 0.009338 0.002157 0.02567 0.004486 0.048996 0.00234 0.023336 0.005844 0.045675 0.010513 0.067017l0.037003 0.17499h0.129l-0.161-0.75999h-0.098999l0.008987 0.078995h-0.0039974c-0.02066-0.02533-0.043991-0.046494-0.069992-0.063492s-0.056671-0.025497-0.092011-0.025497m0.05101 0.105c0.022664 0 0.043162 0.0084991 0.061493 0.025497 0.018331 0.016998 0.034164 0.038996 0.047501 0.065994 0.013336 0.027008 0.023504 0.055512 0.030502 0.08551 0.006999 0.029999 0.010498 0.057663 0.010498 0.082993 0 0.028005-0.0065 0.050339-0.019501 0.067001-0.013 0.016673-0.032166 0.025009-0.057495 0.025009-0.020671 0-0.039841-0.007502-0.05751-0.022507-0.01766-0.015004-0.03299-0.035009-0.04599-0.060013-0.013-0.024994-0.023-0.052826-0.029999-0.083496-0.006999-0.03066-0.010498-0.061656-0.010498-0.092987 0-0.062002 0.023666-0.093002 0.070999-0.093002z"/>
  <path id="i" d="m0.33501-0.056c0.002665 0.010671 0.006165 0.024175 0.010498 0.040512 0.004333 0.016327 0.008998 0.033157 0.013992 0.050491 0.005005 0.017334 0.009171 0.032664 0.012497 0.04599h-0.003998c-0.018666-0.024658-0.040166-0.04599-0.064499-0.063995-0.024333-0.017995-0.054164-0.026993-0.089493-0.026993-0.02534 0-0.049179 0.0065002-0.071518 0.019501-0.022329 0.013-0.040492 0.033834-0.054489 0.0625-0.013997 0.028666-0.020996 0.065664-0.020996 0.11099 0 0.046 0.0059967 0.09083 0.01799 0.13449 0.012004 0.043671 0.02917 0.083338 0.051498 0.119 0.022339 0.035675 0.049342 0.064011 0.081009 0.085007 0.031667 0.020996 0.067169 0.031494 0.10651 0.031494 0.033325 0 0.060486-0.007665 0.081482-0.022995 0.021006-0.01533 0.038844-0.035665 0.053513-0.061005h0.003998l0.029007 0.074005h0.098999l-0.16701-0.783h-0.129l0.040008 0.18401m-0.064011 0.151c0.022664 0 0.043162 0.008667 0.061493 0.026001 0.018341 0.017334 0.034012 0.0395 0.047012 0.066498s0.023 0.055328 0.029999 0.084992c0.006999 0.029673 0.010498 0.057175 0.010498 0.082504 0 0.027334-0.0065 0.0495-0.019501 0.066498-0.013 0.017008-0.032166 0.025513-0.057495 0.025513-0.020671 0-0.039841-0.007502-0.05751-0.022507-0.01766-0.015004-0.03299-0.035009-0.04599-0.060013-0.013-0.024994-0.023-0.052826-0.029999-0.083496-0.006999-0.03066-0.010498-0.061656-0.010498-0.092987 0-0.062002 0.023997-0.093002 0.071991-0.093002z"/>
  <path id="j" d="m0.106-0.24001c-0.014669 0-0.029002 0.00117-0.042999 0.00351-0.013997 0.00233-0.025665 0.004827-0.035004 0.007492v0.10501c0.019338-0.006673 0.038005-0.01001 0.056-0.01001 0.043996 0 0.072332 0.030665 0.085007 0.091995l0.10199 0.48601h-0.082993l0.013 0.061005 0.091995 0.039002 0.009003 0.042999c0.01533 0.066661 0.038661 0.11299 0.069992 0.13899 0.031342 0.026001 0.073008 0.039002 0.125 0.039002 0.021342 0 0.041178-0.001999 0.059509-0.005997s0.034831-0.009664 0.0495-0.016998l-0.033997-0.096008c-0.009338 0.003998-0.019343 0.007497-0.030014 0.010498-0.010661 0.003001-0.022659 0.004501-0.035996 0.004501-0.04066 0-0.065994-0.027334-0.076004-0.082001l-0.007996-0.035996h0.10901l-0.021011-0.098999h-0.10899l-0.10699-0.504c-0.007334-0.034668-0.018336-0.065501-0.033005-0.092499-0.014669-0.026998-0.034505-0.04833-0.059509-0.063995-0.024994-0.015676-0.056824-0.023514-0.09549-0.023514z"/>
  <path id="o" d="m0.24699-0.0099945c-0.059326 0-0.10733 0.016663-0.144 0.049988-0.036662 0.033335-0.054993 0.083338-0.054993 0.15001 0 0.047994 0.0065002 0.093491 0.019501 0.13649 0.013 0.04301 0.031667 0.080846 0.056 0.11351 0.024333 0.032664 0.053833 0.058497 0.088501 0.077499 0.034668 0.019002 0.073334 0.028503 0.116 0.028503 0.023336 0 0.046666-0.002335 0.069992-0.007004 0.023336-0.004669 0.044337-0.011002 0.063004-0.018997l-0.024994-0.072998c-0.013336 0.005992-0.029175 0.011653-0.047516 0.016983-0.018331 0.005341-0.038162 0.008011-0.059494 0.008011-0.037994 0-0.071325-0.012833-0.099991-0.038498s-0.051-0.059835-0.067001-0.10251c-0.016001-0.042664-0.024002-0.08933-0.024002-0.14 0-0.04066 0.010498-0.072159 0.031494-0.094498 0.021006-0.022329 0.04984-0.033493 0.086502-0.033493 0.023336 0 0.045502 0.0033315 0.066498 0.0099945 0.021006 0.006663 0.04184 0.014328 0.0625 0.022995v-0.07399c-0.018667-0.0093384-0.0395-0.017003-0.0625-0.022995-0.023-0.0060018-0.048167-0.0090027-0.0755-0.0090027z"/>
  <marker id="e" overflow="visible" markerHeight="1" markerWidth="1" orient="auto" preserveAspectRatio="xMidYMid" viewBox="0 0 1 1">
   <g transform="scale(.6)">
    <path d="m0-40"/>
    <path d="m0 0 8 5v-10z" fill="context-stroke" fill-rule="evenodd"/>
    <path d="m0-8v48" fill="none" stroke="context-stroke" stroke-linecap="square"/>
   </g>
  </marker>
  <marker id="c" overflow="visible" markerHeight="1" markerWidth="1" orient="auto" preserveAspectRatio="xMidYMid" viewBox="0 0 1 1">
   <g transform="scale(.6)">
    <path d="m0-40"/>
    <path d="m0 0-8 5v-10z" fill="context-stroke" fill-rule="evenodd"/>
    <path d="m0-8v48" fill="none" stroke="context-stroke" stroke-linecap="square"/>
   </g>
  </marker>
  <marker id="d" overflow="visible" markerHeight="1" markerWidth="1" orient="auto" preserveAspectRatio="xMidYMid" viewBox="0 0 1 1">
   <g transform="scale(.6)">
    <path d="m0-40"/>
    <path d="m0 0 8 5v-10z" fill="context-stroke" fill-rule="evenodd"/>
    <path d="m0-8v48" fill="none" stroke="context-stroke" stroke-linecap="square"/>
   </g>
  </marker>
  <marker id="b" overflow="visible" markerHeight="1" markerWidth="1" orient="auto" preserveAspectRatio="xMidYMid" viewBox="0 0 1 1">
   <g transform="scale(.6)">
    <path d="m0-40"/>
    <path d="m0 0-8 5v-10z" fill="context-stroke" fill-rule="evenodd"/>
    <path d="m0-8v48" fill="none" stroke="context-stroke" stroke-linecap="square"/>
   </g>
  </marker>
 </defs>
 <use transform="matrix(41.511 0 0 -41.511 83.304 51.267)" data-text="ð‘Ž" xlink:href="#q"/>
 <use transform="matrix(24.907 0 0 -24.907 116.1 27.229)" data-text="ð˜¢" xlink:href="#n"/>
 <use transform="matrix(24.907 0 0 -24.907 131.45 27.229)" data-text="+" xlink:href="#g"/>
 <use transform="matrix(24.907 0 0 -24.907 145.89 27.229)" data-text="ð˜£" xlink:href="#m"/>
 <use transform="matrix(24.907 0 0 -24.907 161.63 27.229)" data-text="=" xlink:href="#f"/>
 <use transform="matrix(24.907 0 0 -24.907 176.08 27.229)" data-text="ð˜¤" xlink:href="#l"/>
 <use transform="matrix(41.511 0 0 -41.511 116.1 51.267)" data-text="â†" xlink:href="#a"/>
 <use transform="matrix(41.511 0 0 -41.511 143.42 51.267)" data-text="â†" xlink:href="#a"/>
 <use transform="matrix(41.511 0 0 -41.511 150.72 51.267)" data-text="â†’" xlink:href="#h"/>
 <use transform="matrix(41.511 0 0 -41.511 197.67 51.267)" data-text="ð‘" xlink:href="#p"/>
 <use transform="matrix(41.511 0 0 -41.511 230.97 51.267)" data-text="â†" xlink:href="#a"/>
 <use transform="matrix(41.511 0 0 -41.511 258.28 51.267)" data-text="â†" xlink:href="#a"/>
 <use transform="matrix(41.511 0 0 -41.511 266.62 51.267)" data-text="â†’" xlink:href="#h"/>
 <use transform="matrix(24.907 0 0 -24.907 230.97 71.319)" data-text="ð˜¥" xlink:href="#k"/>
 <use transform="matrix(24.907 0 0 -24.907 247.75 71.319)" data-text="+" xlink:href="#g"/>
 <use transform="matrix(24.907 0 0 -24.907 262.2 71.319)" data-text="ð˜²" xlink:href="#i"/>
 <use transform="matrix(24.907 0 0 -24.907 277.94 71.319)" data-text="=" xlink:href="#f"/>
 <use transform="matrix(24.907 0 0 -24.907 292.39 71.319)" data-text="ð˜§" xlink:href="#j"/>
 <use transform="matrix(41.511 0 0 -41.511 313.59 51.267)" data-text="ð‘" xlink:href="#o"/>
 <path d="m81.84 50.862h255.13" fill="none" stroke="#fc96ff" stroke-miterlimit="10" stroke-opacity=".67843" stroke-width=".82917"/>
 <text x="32.044098" y="51.157013" fill="#fc96ff" font-family="'Noto Sans'" font-size="12px" stroke-width=".75" style="line-height:1.25" xml:space="preserve"><tspan x="32.044098" y="51.157013" fill="#fc96ff" font-family="'Noto Sans'" font-size="12px" stroke-width=".75">baseline</tspan></text>
 <path d="m81.92 39.792h255.13" fill="none" stroke="#0096ff" stroke-miterlimit="10" stroke-opacity=".68" stroke-width=".82917"/>
 <text x="340.18369" y="40.205544" fill="#0098ff" font-family="'Noto Sans'" font-size="10px" stroke-width=".75" style="line-height:1.25" xml:space="preserve"><tspan x="340.18369" y="40.205544" fill="#0098ff" font-family="'Noto Sans'" font-size="10px" stroke-width=".75">axisHeight</tspan></text>
 <path d="m229.5 71.17v-19.749" fill="none" marker-end="url(#b)" marker-start="url(#d)" stroke="#0096ff" stroke-width=".5"/>
 <text x="311.20508" y="62.677673" fill="#0098ff" font-family="'Noto Sans'" font-size="10px" stroke-width=".75" style="line-height:1.25" xml:space="preserve"><tspan x="311.20508" y="62.677673">stretchStackGapBelowMin</tspan></text>
 <text x="83.205078" y="71.312149" fill="#0098ff" font-family="'Noto Sans'" font-size="10px" stroke-width=".75" style="line-height:1.25" xml:space="preserve"><tspan x="83.205078" y="71.312149">stretchStackBottomShiftDown</tspan></text>
 <path d="m114 50.294v-22.943" fill="none" marker-end="url(#b)" marker-start="url(#d)" stroke="#0096ff" stroke-width=".5"/>
 <text x="8.0527706" y="20.617674" fill="#0098ff" font-family="'Noto Sans'" font-size="10px" stroke-width=".75" style="line-height:1.25" xml:space="preserve"><tspan x="8.0527706" y="20.617674">stretchStackTopShiftUp</tspan></text>
 <path d="m180 31.501v-4.1299" fill="none" marker-end="url(#c)" marker-start="url(#e)" stroke="#0096ff" stroke-width=".5"/>
 <text x="191.20508" y="17.67767" fill="#0098ff" font-family="'Noto Sans'" font-size="10px" stroke-width=".75" style="line-height:1.25" xml:space="preserve"><tspan x="191.20508" y="17.67767">stretchStackGapAboveMin</tspan></text>
 <path d="m294.02 52.081v-4.1299" fill="none" marker-end="url(#c)" marker-start="url(#e)" stroke="#0096ff" stroke-width=".5"/>
</svg>
