<?xml version="1.0" encoding="UTF-8"?>
<svg width="476pt" height="104pt" version="1.1" viewBox="0 0 476 104" xmlns="http://www.w3.org/2000/svg" xmlns:xlink="http://www.w3.org/1999/xlink">
 <style>
  @media (prefers-color-scheme: dark) {
   use:not([fill]) {
       fill: white;
   }
   path[stroke="#000"] {
    stroke: white;
   }
   path[color="#000000"] {
    fill: white;
   }
  }
 </style>
 <defs>
  <marker id="e" overflow="visible" markerHeight="1" markerWidth="1" orient="auto" preserveAspectRatio="xMidYMid" viewBox="0 0 1 1">
   <g transform="scale(.6)">
    <path d="m0-40"/>
    <path d="m0 0-8 5v-10z" fill="context-stroke" fill-rule="evenodd"/>
    <path d="m0-8v48" fill="none" stroke="context-stroke" stroke-linecap="square"/>
   </g>
  </marker>
  <marker id="f" overflow="visible" markerHeight="1" markerWidth="1" orient="auto" preserveAspectRatio="xMidYMid" viewBox="0 0 1 1">
   <g transform="scale(.6)">
    <path d="m0-40"/>
    <path d="m0 0 8 5v-10z" fill="context-stroke" fill-rule="evenodd"/>
    <path d="m0-8v48" fill="none" stroke="context-stroke" stroke-linecap="square"/>
   </g>
  </marker>
  <marker id="d" overflow="visible" markerHeight="1" markerWidth="1" orient="auto" preserveAspectRatio="xMidYMid" viewBox="0 0 1 1">
   <g transform="scale(.6)">
    <path d="m0-40"/>
    <path d="m0 0-8 5v-10z" fill="context-stroke" fill-rule="evenodd"/>
    <path d="m0-8v48" fill="none" stroke="context-stroke" stroke-linecap="square"/>
   </g>
  </marker>
  <marker id="c" overflow="visible" markerHeight="1" markerWidth="1" orient="auto" preserveAspectRatio="xMidYMid" viewBox="0 0 1 1">
   <g transform="scale(.6)">
    <path d="m0-40"/>
    <path d="m0 0 8 5v-10z" fill="context-stroke" fill-rule="evenodd"/>
    <path d="m0-8v48" fill="none" stroke="context-stroke" stroke-linecap="square"/>
   </g>
  </marker>
  <path id="b" d="m0 0 0.27901 0.717h0.080994l0.278-0.717h-0.093002l-0.085999 0.22099h-0.283l-0.084991-0.22099h-0.091003m0.20599 0.30099h0.22601l-0.080002 0.216c-0.002004 0.00533-0.005341 0.014994-0.01001 0.028992-0.004659 0.014008-0.009155 0.028508-0.013489 0.043503-0.004333 0.015004-0.007838 0.026504-0.010513 0.0345-0.004659-0.02066-0.009989-0.040827-0.015991-0.060501-0.006002-0.019664-0.011002-0.035161-0.014999-0.046494z"/>
  <path id="a" d="m0.371-0.0099945c-0.04067 0-0.073171 0.0073293-0.097504 0.021988-0.024333 0.014669-0.043833 0.031336-0.058502 0.050003h-0.009003l-0.022995-0.061996h-0.097992v0.75999h0.12999v-0.179c0-0.021332-6.6631e-4 -0.041997-0.001999-0.061996-0.001333-0.019999-0.002665-0.035665-0.003998-0.046997h0.005997c0.014669 0.022664 0.034668 0.041829 0.059998 0.057495 0.02534 0.015666 0.058339 0.023498 0.098999 0.023498 0.062673 0 0.11334-0.023666 0.15201-0.070999s0.057999-0.11733 0.057999-0.20999c0-0.092672-0.019669-0.16284-0.059006-0.21051-0.039327-0.047658-0.090658-0.071487-0.15399-0.071487m-0.033005 0.10599c0.036001 0 0.063833 0.015335 0.083496 0.046005 0.019674 0.03067 0.02951 0.074671 0.02951 0.132 0 0.057994-0.009837 0.10149-0.02951 0.13049-0.019664 0.029002-0.048162 0.043503-0.085495 0.043503-0.044668 0-0.076004-0.013336-0.094009-0.040009-0.017995-0.026662-0.026993-0.067657-0.026993-0.12299v-0.012009c0-0.057332 0.008835-0.10117 0.026504-0.1315 0.01767-0.030334 0.049835-0.045502 0.096497-0.045502z"/>
  <path id="o" d="m0.215-0.158c-0.059998 0.063334-0.10417 0.13534-0.13251 0.216-0.02833 0.080668-0.042496 0.16434-0.042496 0.25101 0 0.087992 0.014165 0.17299 0.042496 0.25499 0.028341 0.082001 0.07251 0.15533 0.13251 0.22h0.083008c-0.056-0.067332-0.09817-0.14183-0.12651-0.2235-0.02833-0.081665-0.042496-0.16517-0.042496-0.2505 0-0.083995 0.014333-0.16616 0.042999-0.24651 0.028666-0.080332 0.070333-0.15416 0.125-0.2215z"/>
  <path id="m" d="m0.215-0.0099945c-0.048665 0-0.088999 0.012833-0.121 0.038498-0.031993 0.025665-0.047989 0.065832-0.047989 0.1205 0 0.053334 0.020996 0.094498 0.062988 0.12349 0.042002 0.029002 0.10667 0.04484 0.194 0.047516l0.091003 0.002991v0.031998c0 0.044668-0.009669 0.075668-0.029007 0.093002-0.019328 0.017334-0.046656 0.026001-0.081986 0.026001-0.028005 0-0.054677-0.004166-0.080017-0.012497-0.02533-0.008331-0.048991-0.017832-0.070984-0.028503l-0.027008 0.065994c0.023336 0.012675 0.051 0.023509 0.082993 0.032501 0.032003 0.009003 0.065338 0.013504 0.10001 0.013504 0.065338 0 0.11367-0.014333 0.145-0.042999 0.031331-0.028666 0.046997-0.074331 0.046997-0.13699v-0.36501h-0.063995l-0.016998 0.076004h-0.003998c-0.023335-0.029338-0.047836-0.051005-0.073501-0.065002-0.025665-0.013997-0.061167-0.020996-0.10651-0.020996m0.020004 0.070999c0.045329 0 0.082993 0.012497 0.11299 0.037491 0.030009 0.025004 0.045013 0.063507 0.045013 0.11551v0.047989l-0.07901-0.002991c-0.066661-0.0026649-0.11283-0.013331-0.1385-0.031997-0.025665-0.018667-0.038498-0.045003-0.038498-0.07901 0-0.029999 0.009165-0.051997 0.027496-0.065994 0.018341-0.013997 0.041845-0.020996 0.070511-0.020996z"/>
  <path id="l" d="m0.339-0.0099945c-0.042002 0-0.07634 0.007665-0.10301 0.022995-0.026662 0.01533-0.047658 0.033661-0.062988 0.054993h-0.007004l-0.018005-0.067993h-0.062988v0.75999h0.087997v-0.185c0-0.022664-5.0354e-4 -0.043834-0.001511-0.063507-9.969e-4 -0.019664-0.002162-0.035161-0.003494-0.046494h0.005005c0.01533 0.022664 0.036326 0.041662 0.062988 0.056992 0.026672 0.01534 0.06101 0.02301 0.10301 0.02301 0.06666 0 0.12016-0.023168 0.16049-0.069504 0.040334-0.046326 0.060501-0.11549 0.060501-0.20749 0-0.092-0.020335-0.16134-0.061005-0.20801-0.04066-0.046661-0.093989-0.069992-0.15999-0.069992m-0.013 0.072998c0.047994 0 0.083822 0.017665 0.10748 0.052994 0.023672 0.035339 0.035507 0.086339 0.035507 0.153 0 0.13534-0.04833 0.203-0.14499 0.203-0.056671 0-0.096008-0.016337-0.11801-0.049011-0.021993-0.032664-0.03299-0.083328-0.03299-0.15199v-0.003998c0-0.065999 0.010834-0.1165 0.032501-0.1515 0.021668-0.034994 0.061834-0.05249 0.1205-0.05249z"/>
  <path id="k" d="m0.3-0.0099945c-0.047333 0-0.089503 0.0096639-0.12651 0.028992-0.036998 0.019338-0.065999 0.049337-0.087006 0.089996-0.020996 0.04067-0.031494 0.092672-0.031494 0.15601 0 0.065999 0.011002 0.11966 0.033005 0.161 0.022003 0.041341 0.051834 0.071676 0.089493 0.091003 0.037669 0.019338 0.080505 0.029007 0.12851 0.029007 0.027334 0 0.053665-0.002833 0.078995-0.008499 0.02534-0.005666 0.04601-0.012502 0.062012-0.020508l-0.027008-0.072998c-0.016001 0.006002-0.034668 0.011668-0.056 0.016998-0.021332 0.00533-0.041331 0.007996-0.059998 0.007996-0.10534 0-0.158-0.067663-0.158-0.20299 0-0.064667 0.012833-0.11417 0.038498-0.14851 0.025676-0.034332 0.063843-0.051498 0.1145-0.051498 0.029338 0 0.055171 0.0030009 0.077499 0.0090027 0.022339 0.0060018 0.042842 0.013336 0.061508 0.022003v-0.078003c-0.018005-0.0093282-0.037842-0.01649-0.059509-0.021484-0.021667-0.0050049-0.047831-0.0075073-0.078491-0.0075073z"/>
  <path id="n" d="m0.031006-0.158c0.055328 0.067332 0.097158 0.14116 0.12549 0.2215 0.028341 0.080343 0.042511 0.16251 0.042511 0.24651 0 0.085337-0.01417 0.16884-0.042511 0.2505-0.02833 0.081665-0.070496 0.15616-0.1265 0.2235h0.083008c0.059998-0.064667 0.10416-0.138 0.13249-0.22 0.02833-0.082001 0.042496-0.167 0.042496-0.25499 0-0.08667-0.014165-0.17034-0.042496-0.25101-0.02833-0.080668-0.072494-0.15267-0.13249-0.216z"/>
  <path id="j" d="m0.276-0.399c-0.053996 0.063334-0.098328 0.13317-0.133 0.2095-0.034668 0.076335-0.060506 0.1565-0.077515 0.24049-0.016998 0.084005-0.025497 0.17001-0.025497 0.25801 0 0.13067 0.019002 0.25666 0.057007 0.37799 0.038005 0.12134 0.097672 0.23034 0.179 0.327h0.087997c-0.07667-0.10066-0.13417-0.21149-0.1725-0.33249-0.03833-0.121-0.057495-0.24484-0.057495-0.37151 0-0.12733 0.019333-0.25183 0.057999-0.37349 0.038666-0.12167 0.095668-0.23351 0.17101-0.33551z"/>
  <path id="h" d="m0.381 0.55499c0.07134 0 0.12651-0.016001 0.1655-0.048004 0.039001-0.031992 0.058502-0.080322 0.058502-0.14499v-0.362h-0.10199l-0.029007 0.078003h-0.003998c-0.01533-0.019999-0.031499-0.036499-0.048507-0.0495-0.016998-0.013-0.036997-0.022664-0.059998-0.028992-0.023-0.0063375-0.051168-0.0095062-0.084503-0.0095062-0.032664 0-0.062332 0.0058289-0.089004 0.017487-0.026662 0.011668-0.047826 0.030004-0.063492 0.055008s-0.023498 0.05717-0.023498 0.096497c0 0.057332 0.02183 0.099996 0.065491 0.12799 0.043671 0.028005 0.10784 0.043676 0.1925 0.047012l0.10001 0.003998v0.020004c0 0.033335-0.008169 0.057002-0.024506 0.070999-0.016327 0.013997-0.039159 0.020996-0.068497 0.020996-0.026662 0-0.05366-0.004003-0.080994-0.012009-0.027334-0.007996-0.054667-0.01799-0.082001-0.029984l-0.046005 0.098999c0.03067 0.01533 0.064835 0.027161 0.10249 0.035492 0.037669 0.008331 0.078171 0.012497 0.12151 0.012497m0.014008-0.30399c-0.052002-0.001343-0.089004-0.009516-0.11101-0.024521-0.021993-0.014994-0.03299-0.036158-0.03299-0.063492 0-0.023326 0.007497-0.040324 0.022492-0.050995 0.015004-0.010671 0.034505-0.016006 0.058502-0.016006 0.037333 0 0.06783 0.0099996 0.091492 0.029999 0.023672 0.020009 0.035843 0.047679 0.036514 0.083008v0.044998z"/>
  <path id="g" d="m0.26601 0.58c0-0.022003-6.7139e-4 -0.04334-0.002014-0.064011-0.001333-0.02066-0.002665-0.036992-0.003998-0.048996h0.005005c0.013997 0.023336 0.034495 0.043834 0.061493 0.061493 0.027008 0.01767 0.06218 0.026504 0.10551 0.026504 0.063995 0 0.11582-0.023666 0.15549-0.070999 0.039673-0.047333 0.059509-0.11733 0.059509-0.20999 0-0.092-0.020167-0.16233-0.060501-0.211-0.040334-0.048665-0.094167-0.072998-0.1615-0.072998-0.044006 0-0.078176 0.0079956-0.10251 0.023987-0.024333 0.016001-0.043162 0.033005-0.056488 0.05101h-0.01001l-0.024994-0.065002h-0.112v0.75999h0.147v-0.17999m0.118-0.14c-0.041331 0-0.071167-0.012502-0.089508-0.037506-0.018331-0.024994-0.027827-0.063161-0.028488-0.1145v-0.016998c0-0.052663 0.008499-0.092829 0.025497-0.1205 0.016998-0.027669 0.047831-0.041504 0.092499-0.041504 0.036001 0 0.064 0.014501 0.084 0.043503 0.019999 0.029002 0.029999 0.07017 0.029999 0.1235 0 0.10933-0.038 0.164-0.114 0.164z"/>
  <path id="i" d="m0.031006-0.399c0.074666 0.102 0.1315 0.21384 0.17049 0.33551 0.039002 0.12166 0.058502 0.24616 0.058502 0.37349 0 0.12667-0.019333 0.2505-0.057999 0.37151s-0.095998 0.23183-0.172 0.33249h0.087997c0.080668-0.096659 0.14017-0.20566 0.1785-0.327 0.03834-0.12133 0.05751-0.24732 0.05751-0.37799 0-0.088002-0.008504-0.17401-0.025513-0.25801-0.016998-0.083995-0.042831-0.16416-0.077499-0.24049-0.034658-0.076335-0.07899-0.14617-0.133-0.2095z"/>
 </defs>
 <path d="m51.804 45.35h361.6" fill="none" stroke="#fc96ff" stroke-miterlimit="10" stroke-opacity=".67843"/>
 <use transform="matrix(41.511 0 0 -41.511 51.804 45.85)" data-text="A" xlink:href="#b"/>
 <use transform="matrix(24.907 0 0 -24.907 78.329 54.567)" data-text="ð–»" xlink:href="#a"/>
 <use transform="matrix(41.511 0 0 -41.511 144.85 47.304)" data-text="(" xlink:href="#o"/>
 <use transform="matrix(41.511 0 0 -41.511 158.47 45.85)" data-text="a" xlink:href="#m"/>
 <use transform="matrix(41.511 0 0 -41.511 181.76 45.85)" data-text="b" xlink:href="#l"/>
 <use transform="matrix(41.511 0 0 -41.511 207.25 45.85)" data-text="c" xlink:href="#k"/>
 <use transform="matrix(41.511 0 0 -41.511 227.17 47.304)" data-text=")" xlink:href="#n"/>
 <use transform="matrix(24.907 0 0 -24.907 240.79 59.671)" data-text="ð–»" xlink:href="#a"/>
 <use transform="matrix(41.511 0 0 -41.511 307.32 45.85)" data-text="A" xlink:href="#b"/>
 <use transform="matrix(24.907 0 0 -24.907 333.84 55.3)" data-text="(" xlink:href="#j"/>
 <use transform="matrix(20.755 0 0 -20.755 348.69 41.367)" data-text="ð–º" xlink:href="#h"/>
 <path d="m348.64 47.642h15.004" fill="none" stroke="#000" stroke-miterlimit="10" stroke-width="1.7667"/>
 <use transform="matrix(20.755 0 0 -20.755 348.64 66.071)" data-text="ð–»" xlink:href="#g"/>
 <use transform="matrix(24.907 0 0 -24.907 368.62 55.3)" data-text=")" xlink:href="#i"/>
 <text x="415.83261" y="45.686352" fill="#fc96ff" font-family="'Noto Sans'" font-size="12px" stroke-width=".75" style="line-height:1.25" xml:space="preserve"><tspan x="415.83261" y="45.686352" fill="#fc96ff" font-family="'Noto Sans'" font-size="12px" stroke-width=".75">baseline</tspan></text>
 <path d="m106.4 46.014v8.395" fill="none" marker-end="url(#e)" marker-start="url(#f)" stroke="#0096ff" stroke-width=".5"/>
 <text x="14.625664" y="87.85981" fill="#0098ff" font-family="'Noto Sans'" font-size="10px" stroke-width=".75" style="line-height:1.25" xml:space="preserve"><tspan x="14.625664" y="87.85981" fill="#0098ff" font-family="'Noto Sans'" font-size="10px" stroke-width=".75">subscriptShiftDown</tspan></text>
 <text x="134.62567" y="87.85981" fill="#0098ff" font-family="'Noto Sans'" font-size="10px" stroke-width=".75" style="line-height:1.25" xml:space="preserve"><tspan x="134.62567" y="87.85981" fill="#0098ff" font-family="'Noto Sans'" font-size="10px" stroke-width=".75">subscriptBaselineDropMin</tspan></text>
 <path d="m240.36 54.008v5.4947" fill="none" marker-end="url(#d)" marker-start="url(#c)" stroke="#0096ff" stroke-width=".5"/>
 <path d="m383.71 30.19v15.5" fill="none" marker-end="url(#d)" marker-start="url(#c)" stroke="#0096ff" stroke-width=".5"/>
 <text x="317.62567" y="87.85981" fill="#0098ff" font-family="'Noto Sans'" font-size="10px" stroke-width=".75" style="line-height:1.25" xml:space="preserve"><tspan x="317.62567" y="87.85981" fill="#0098ff" font-family="'Noto Sans'" font-size="10px" stroke-width=".75">subscriptTopMax</tspan></text>
</svg>
