<?xml version="1.0" encoding="UTF-8"?>
<svg width="244pt" height="62.354pt" version="1.1" viewBox="0 0 244 62.354" xmlns="http://www.w3.org/2000/svg" xmlns:xlink="http://www.w3.org/1999/xlink">
 <defs>
  <path id="g" d="m0.19701-0.0099945c-0.048004 0-0.085505 0.013499-0.1125 0.040497-0.026998 0.026998-0.040497 0.05983-0.040497 0.098495 0 0.044668 0.013331 0.080668 0.039993 0.108 0.026662 0.027334 0.062159 0.047663 0.10649 0.060989 0.044342 0.013336 0.09318 0.020676 0.14651 0.022018l0.091995 0.002991 0.007004 0.031998c0.001333 0.005341 0.002329 0.011342 0.002991 0.018005 6.7139e-4 0.006663 0.001007 0.015661 0.001007 0.026993 0 0.021342-0.008001 0.039012-0.024002 0.053009-0.016001 0.013997-0.041336 0.020996-0.076004 0.020996-0.016663 0-0.039831-0.002167-0.069504-0.0065-0.029663-0.004333-0.063492-0.015834-0.10149-0.0345l-0.019012 0.061996c0.028666 0.017334 0.060501 0.029999 0.095505 0.037994 0.035004 0.008006 0.068171 0.012009 0.099503 0.012009 0.042664 0 0.077164-0.0065 0.1035-0.019501 0.026337-0.013 0.04567-0.030502 0.057999-0.052506 0.012329-0.021993 0.018494-0.046326 0.018494-0.072998 0-0.014659-6.663e-4 -0.027491-0.001999-0.038498-0.001333-0.010996-0.003332-0.022161-0.005997-0.033493l-0.070999-0.328h-0.063995l-0.0010071 0.076004h-0.0039978c-0.029338-0.029338-0.057673-0.051005-0.085007-0.065002-0.027323-0.013997-0.058985-0.020996-0.094986-0.020996m0.016998 0.070999c0.03066 0 0.059489 0.0081635 0.086487 0.02449 0.027008 0.016337 0.050176 0.037338 0.069504 0.063004 0.019338 0.025665 0.032008 0.0525 0.03801 0.080505l0.006989 0.03299-0.079987-0.002991c-0.037333-0.001333-0.071167-0.006002-0.1015-0.014008-0.030334-0.007996-0.054337-0.02066-0.072006-0.037994-0.01767-0.017334-0.026504-0.041-0.026504-0.070999 0-0.022003 0.007497-0.040003 0.022492-0.054001 0.015004-0.013997 0.033844-0.020996 0.056518-0.020996z"/>
  <path id="d" d="m0.25 0.035995v0.20601h-0.19901v0.070999h0.19901v0.207h0.072006v-0.207h0.19899v-0.070999h-0.19899v-0.20601z"/>
  <path id="e" d="m0.298-0.24001 0.047989 0.22801c0.002675 0.011332 0.00618 0.02533 0.010513 0.041992 0.004333 0.016663 0.008331 0.031825 0.011993 0.045486 0.003662 0.013672 0.005829 0.02151 0.0065 0.023514h-0.0039976c-0.022664-0.029338-0.048498-0.05484-0.077499-0.076508-0.029002-0.021657-0.062169-0.032486-0.099503-0.032486-0.043335 0-0.078501 0.01533-0.1055 0.04599-0.026998 0.03067-0.040497 0.07634-0.040497 0.13701 0 0.048665 0.0059967 0.095332 0.01799 0.14 0.012004 0.044668 0.029505 0.084498 0.052506 0.11949 0.023 0.035004 0.050832 0.062673 0.083496 0.083008 0.032674 0.020335 0.069341 0.030502 0.11 0.030502 0.035339 0 0.063838-0.009333 0.085495-0.028 0.021668-0.018667 0.037837-0.040334 0.048508-0.065002h0.005005l0.03299 0.082993h0.06601l-0.16501-0.776h-0.08699m-0.074997 0.30301c0.021993 0 0.044322 0.0083313 0.066986 0.024994 0.022675 0.016673 0.043508 0.039174 0.0625 0.067505 0.019002 0.02833 0.034337 0.060496 0.046005 0.096497 0.011668 0.036001 0.017502 0.073334 0.017502 0.112 0 0.029338-0.00767 0.054672-0.02301 0.076004-0.01533 0.021332-0.040329 0.031998-0.074997 0.031998-0.026662 0-0.050995-0.008499-0.072998-0.025497-0.021993-0.016998-0.04099-0.03983-0.056992-0.068497s-0.028336-0.061-0.037003-0.097-0.013-0.072667-0.013-0.11c0-0.072001 0.028336-0.108 0.085007-0.108z"/>
  <path id="c" d="m0.050995 0.342v0.070999h0.47v-0.070999h-0.47m0-0.19899v0.070999h0.47v-0.070999z"/>
  <path id="f" d="m0.24699-0.0099945c-0.059326 0-0.10733 0.016663-0.144 0.049988-0.036662 0.033335-0.054993 0.083338-0.054993 0.15001 0 0.047994 0.0065002 0.093491 0.019501 0.13649 0.013 0.04301 0.031667 0.080846 0.056 0.11351 0.024333 0.032664 0.053833 0.058497 0.088501 0.077499 0.034668 0.019002 0.073334 0.028503 0.116 0.028503 0.023336 0 0.046666-0.002335 0.069992-0.007004 0.023336-0.004669 0.044337-0.011002 0.063004-0.018997l-0.024994-0.072998c-0.013336 0.005992-0.029175 0.011653-0.047516 0.016983-0.018331 0.005341-0.038162 0.008011-0.059494 0.008011-0.037994 0-0.071325-0.012833-0.099991-0.038498s-0.051-0.059835-0.067001-0.10251c-0.016001-0.042664-0.024002-0.08933-0.024002-0.14 0-0.04066 0.010498-0.072159 0.031494-0.094498 0.021006-0.022329 0.04984-0.033493 0.086502-0.033493 0.023336 0 0.045502 0.0033315 0.066498 0.0099945 0.021006 0.006663 0.04184 0.014328 0.0625 0.022995v-0.07399c-0.018667-0.0093384-0.0395-0.017003-0.0625-0.022995-0.023-0.0060018-0.048167-0.0090027-0.0755-0.0090027z"/>
  <marker id="b" overflow="visible" markerHeight="1" markerWidth="1" orient="auto" preserveAspectRatio="xMidYMid" viewBox="0 0 1 1">
   <g transform="scale(.6)">
    <path d="m0-40"/>
    <path d="m0 0 8 5v-10z" fill="context-stroke" fill-rule="evenodd"/>
    <path d="m0-8v48" fill="none" stroke="context-stroke" stroke-linecap="square"/>
   </g>
  </marker>
  <marker id="a" overflow="visible" markerHeight="1" markerWidth="1" orient="auto" preserveAspectRatio="xMidYMid" viewBox="0 0 1 1">
   <g transform="scale(.6)">
    <path d="m0-40"/>
    <path d="m0 0-8 5v-10z" fill="context-stroke" fill-rule="evenodd"/>
    <path d="m0-8v48" fill="none" stroke="context-stroke" stroke-linecap="square"/>
   </g>
  </marker>
 </defs>
 <use transform="matrix(41.511 0 0 -41.511 29.304 27.967)" data-text="ð‘Ž" xlink:href="#g"/>
 <use transform="matrix(41.511 0 0 -41.511 62.098 27.967)" data-text="+" xlink:href="#d"/>
 <use transform="matrix(41.511 0 0 -41.511 95.058 27.967)" data-text="ð‘ž" xlink:href="#e"/>
 <use transform="matrix(41.511 0 0 -41.511 130.63 27.967)" data-text="=" xlink:href="#c"/>
 <use transform="matrix(41.511 0 0 -41.511 165.88 27.967)" data-text="ð‘" xlink:href="#f"/>
 <path d="m29.304 45.629h155.42" fill="none" stroke="#000" stroke-miterlimit="10" stroke-width="2.9458"/>
 <path d="m106.15 44.012v-5.9397" fill="none" marker-end="url(#a)" marker-start="url(#b)" stroke="#0096ff" stroke-width=".5"/>
 <text x="3.2000008" y="40.526386" fill="#0098ff" font-family="'Noto Sans'" font-size="10px" stroke-width=".75" style="line-height:1.25" xml:space="preserve"><tspan x="3.2000008" y="40.526386">underbarVerticalGap</tspan></text>
 <path d="m106.15 58.211v-10.995" fill="none" marker-end="url(#a)" marker-start="url(#b)" stroke="#0096ff" stroke-width=".5"/>
 <text x="121.34268" y="57.701698" fill="#0098ff" font-family="'Noto Sans'" font-size="10px" stroke-width=".75" style="line-height:1.25" xml:space="preserve"><tspan x="121.34268" y="57.701698">underbarExtraDescender</tspan></text>
</svg>
