<svg xmlns="http://www.w3.org/2000/svg" xmlns:xlink="http://www.w3.org/1999/xlink" version="1.1" width="84.166667pt" height="56.249998pt" viewBox="0 0 84.166667 56.249998">
<defs>
<path id="font_1_4907" d="M.923996 .6029968C.873998 .6029968 .8238322 .60649618 .77349856 .6134949 .72316488 .6204936 .6729991 .6283264 .6230011 .6369934 .5730031 .6456604 .5236664 .6534932 .47499085 .66049197 .42632548 .6675008 .3789927 .67100527 .33299256 .67100527 .266332 .67100527 .21283467 .66566976 .17250061 .6549988 .13216655 .64433798 .09666443 .6276703 .06599426 .6049957H0C.028004965 .6483307 .07067362 .6818288 .12800598 .7054901 .18533834 .72916159 .2543386 .7409973 .3350067 .7409973 .3856659 .7409973 .43633018 .737498 .4869995 .73049929 .5376689 .72350057 .58783468 .7156677 .63749697 .70700076 .6871694 .69833377 .7361705 .6905009 .7845001 .6835022 .8328298 .6765035 .8799947 .67300418 .9259949 .67300418 .9926656 .67300418 1.046168 .6785024 1.0865021 .6894989 1.1268362 .7004954 1.1623331 .71699526 1.1929932 .7389984H1.2590027C1.2309977 .69633486 1.1883291 .66299948 1.1309967 .6389923 1.0736643 .6149953 1.0046641 .6029968 .923996 .6029968Z"/>
<path id="font_1_1031" d="M.19700623-.009994507C.14900208-.009994507 .11150106 .0035044354 .084503177 .03050232 .05750529 .057500204 .044006349 .09033203 .044006349 .1289978 .044006349 .17366536 .057337446 .20966594 .083999637 .23699951 .11066183 .2643331 .14615886 .28466288 .19049073 .2979889 .23483277 .31132508 .28367106 .31866456 .33700563 .32000733L.42900086 .32299806 .43600465 .35499574C.43733726 .3603363 .43833415 .3663381 .43899537 .3730011 .43966676 .3796641 .44000245 .3886617 .44000245 .3999939 .44000245 .42133586 .43200175 .43900553 .41600038 .45300294 .399999 .46700035 .3746643 .47399903 .33999635 .47399903 .32333375 .47399903 .3001658 .47183229 .27049256 .46749879 .24082947 .46316529 .20700073 .45166526 .16900635 .43299867L.1499939 .49499513C.17866008 .5123291 .210495 .5249939 .24549866 .5329895 .28050233 .5409953 .31366984 .54499819 .34500123 .54499819 .3876648 .54499819 .42216493 .5384979 .4485016 .52549746 .47483827 .51249697 .49417115 .49499513 .50650027 .47299195 .51882937 .45099894 .5249939 .42666627 .5249939 .3999939 .5249939 .3853353 .5243276 .37250266 .522995 .36149598 .5216624 .35049949 .5196635 .3393351 .5169983 .32800294L.44599916 0H.38200379L.3809967 .07600403H.3769989C.34766136 .046666463 .31932578 .024998984 .2919922 .011001587 .2646688-.0029958089 .23300679-.009994507 .19700623-.009994507M.21400452 .06100464C.2446645 .06100464 .27349345 .06916809 .30049134 .085494998 .3274994 .10183207 .35066734 .12283325 .36999513 .14849854 .3893331 .17416382 .40200297 .20099895 .40800477 .2290039L.4149933 .2619934 .3350067 .2590027C.29767356 .25767008 .26383973 .2530009 .23350525 .24499512 .20317078 .23699951 .1791687 .22433472 .16149903 .20700073 .14382935 .18966675 .1349945 .16600037 .1349945 .13600159 .1349945 .11399841 .14249166 .09599813 .15748596 .08200073 .17249044 .068003337 .19132996 .06100464 .21400452 .06100464Z"/>
<path id="font_1_1032" d="M.2689972-.009994507C.23299663-.009994507 .2038269-.00082906088 .18148804 .017501831 .15915935 .03583272 .1426646 .057332357 .13200379 .08200073H.1269989L.09399414 0H.027999878L.18899536 .7599945H.2769928L.23899842 .58000186C.23432923 .55733749 .22916158 .5351715 .22349549 .513504 .21782939 .49183656 .21299744 .47383628 .20899964 .45950318 .20500183 .44517008 .20266724 .43733726 .20199585 .43600465H.20599365C.23000081 .46533204 .25616966 .49082948 .28450013 .51249697 .3128306 .5341644 .34566245 .54499819 .3829956 .54499819 .42700196 .54499819 .46250407 .5296631 .48950196 .49899293 .5164998 .46833293 .5299988 .42300416 .5299988 .3630066 .5299988 .31433106 .523997 .26765953 .5119934 .22299195 .5 .17833455 .48266603 .13850403 .45999146 .103500369 .43732707 .068496707 .4099935 .040827436 .37799073 .020492554 .34599815 .00016784668 .30966697-.009994507 .2689972-.009994507M.2619934 .06300354C.28866578 .06300354 .31299845 .071502689 .33499146 .08850098 .35699464 .10549927 .37582908 .1283315 .39149476 .15699768 .40716044 .18566387 .41915895 .21799724 .42749024 .2539978 .4358317 .28999839 .44000245 .32666526 .44000245 .3639984 .44000245 .43599955 .41166688 .47200013 .35499574 .47200013 .33300273 .47200013 .3105062 .46383158 .2875061 .4474945 .264506 .4311676 .24333699 .40883384 .22399903 .38049317 .20467122 .3521627 .18917339 .31999717 .1775055 .28399659 .1658376 .24799602 .16000366 .21033223 .16000366 .17100525 .16000366 .13900249 .16833496 .1130015 .18499756 .09300232 .20167034 .073003139 .22733562 .06300354 .2619934 .06300354Z"/>
<path id="font_1_1033" d="M.24699402-.009994507C.18766785-.009994507 .13966878 .006668091 .102996829 .039993287 .066335048 .07332865 .04800415 .1233317 .04800415 .19000244 .04800415 .23799642 .054504396 .28349305 .06750488 .3264923 .08050537 .36950175 .09917196 .40733848 .12350464 .44000245 .14783733 .4726664 .17733765 .49849955 .21200562 .51750186 .24667359 .5365041 .28533937 .54600527 .32800294 .54600527 .3513387 .54600527 .3746694 .54367068 .397995 .53900149 .42133079 .5343323 .44233195 .5279999 .46099855 .5200043L.43600465 .44700624C.42266847 .45299784 .40682984 .45865885 .38848878 .46398927 .37015788 .46932984 .35032655 .47200013 .32899476 .47200013 .29100038 .47200013 .25767008 .45916749 .2290039 .4335022 .20033773 .4078369 .17800395 .3736674 .16200257 .33099366 .14600118 .28833009 .13800049 .24166362 .13800049 .19099427 .13800049 .15033467 .14849854 .11883545 .16949463 .09649658 .1905009 .074167888 .21933492 .06300354 .2559967 .06300354 .2793325 .06300354 .3014984 .066335048 .3224945 .07299805 .34350077 .07966105 .3643341 .08732605 .3849945 .09599304V.022003174C.3663279 .012664795 .3454946 .0049997966 .3224945-.0009918213 .29949443-.006993612 .2743276-.009994507 .24699402-.009994507Z"/>
</defs>
<use data-text="&#x0303;" xlink:href="#font_1_4907" transform="matrix(41.51083,0,0,-41.51083,15.983337,39.06665)"/>
<use data-text="&#x1d622;" xlink:href="#font_1_1031" transform="matrix(41.51083,0,0,-41.51083,8.304169,47.53334)"/>
<use data-text="&#x1d623;" xlink:href="#font_1_1032" transform="matrix(41.51083,0,0,-41.51083,31.882325,47.53334)"/>
<use data-text="&#x1d624;" xlink:href="#font_1_1033" transform="matrix(41.51083,0,0,-41.51083,55.9171,47.53334)"/>
</svg>
